<svg width="24" height="24" viewBox="0 0 24 24" fill="none" xmlns="http://www.w3.org/2000/svg">
<path fill-rule="evenodd" clip-rule="evenodd" d="M11.9997 0.0833435C5.41843 0.0833435 0.0830078 5.41876 0.0830078 12C0.0830078 18.5813 5.41843 23.9167 11.9997 23.9167C18.5809 23.9167 23.9163 18.5813 23.9163 12C23.9163 5.41876 18.5809 0.0833435 11.9997 0.0833435ZM13.083 16.3333C13.083 16.6207 12.9689 16.8962 12.7657 17.0994C12.5625 17.3025 12.287 17.4167 11.9997 17.4167C11.7124 17.4167 11.4368 17.3025 11.2336 17.0994C11.0305 16.8962 10.9163 16.6207 10.9163 16.3333V13.0833H7.66634C7.37902 13.0833 7.10347 12.9692 6.90031 12.766C6.69714 12.5629 6.58301 12.2873 6.58301 12C6.58301 11.7127 6.69714 11.4371 6.90031 11.234C7.10347 11.0308 7.37902 10.9167 7.66634 10.9167H10.9163V7.66668C10.9163 7.37936 11.0305 7.10381 11.2336 6.90064C11.4368 6.69748 11.7124 6.58334 11.9997 6.58334C12.287 6.58334 12.5625 6.69748 12.7657 6.90064C12.9689 7.10381 13.083 7.37936 13.083 7.66668V10.9167H16.333C16.6203 10.9167 16.8959 11.0308 17.099 11.234C17.3022 11.4371 17.4163 11.7127 17.4163 12C17.4163 12.2873 17.3022 12.5629 17.099 12.766C16.8959 12.9692 16.6203 13.0833 16.333 13.0833H13.083V16.3333Z" fill="#E3B100"/>
</svg>
