<svg width="40" height="40" viewBox="0 0 40 40" fill="none" xmlns="http://www.w3.org/2000/svg">
<path d="M29.6983 18.7305C30.4829 18.7305 30.8104 17.7225 30.1731 17.2578L20.4764 10.2043C20.338 10.1029 20.1708 10.0482 19.9991 10.0482C19.8274 10.0482 19.6602 10.1029 19.5218 10.2043L9.82508 17.2578C9.18777 17.7199 9.51531 18.7305 10.3024 18.7305H11.8741V28.2266H10.046C9.93426 28.2266 9.84285 28.318 9.84285 28.4297V29.75C9.84285 29.8617 9.93426 29.9531 10.046 29.9531H29.9522C30.0639 29.9531 30.1553 29.8617 30.1553 29.75V28.4297C30.1553 28.318 30.0639 28.2266 29.9522 28.2266H28.1241V18.7305H29.6983ZM16.6729 28.2266H13.7022V18.7305H16.6729V28.2266ZM21.4718 28.2266H18.5011V18.7305H21.4718V28.2266ZM26.296 28.2266H23.2999V18.7305H26.296V28.2266Z" fill="#E3B100"/>
<rect width="40" height="40" rx="10" fill="#E3B100" fill-opacity="0.2"/>
</svg>
