<svg width="30" height="30" viewBox="0 0 30 30" fill="none" xmlns="http://www.w3.org/2000/svg">
<path d="M29.5479 18.6286C27.5445 26.6644 19.4055 31.5548 11.3688 29.5509C3.33542 27.5476 -1.55501 19.4081 0.449228 11.373C2.45171 3.33629 10.5907 -1.55451 18.6249 0.448851C26.6611 2.45221 31.5512 10.5926 29.5476 18.6287L29.5478 18.6286H29.5479Z" fill="#F7931A"/>
<path fill-rule="evenodd" clip-rule="evenodd" d="M21.6123 12.8627C21.9109 10.8666 20.3911 9.79354 18.313 9.07773L18.9872 6.37374L17.3412 5.9636L16.6849 8.5964C16.2522 8.48847 15.8078 8.38678 15.3661 8.28597L16.0271 5.63579L14.3822 5.22565L13.7076 7.92876C13.3495 7.84723 12.9978 7.76665 12.6566 7.68175L12.6585 7.67324L10.3886 7.10642L9.95079 8.86445C9.95079 8.86445 11.172 9.14438 11.1462 9.16161C11.8128 9.32797 11.9333 9.7692 11.9133 10.1189L11.1454 13.1994C11.1913 13.2111 11.2508 13.2279 11.3165 13.2543L11.2687 13.2424L11.2687 13.2424C11.2281 13.2322 11.1859 13.2217 11.1425 13.2113L10.0661 17.5266C9.98466 17.7291 9.7779 18.033 9.31189 17.9176C9.32839 17.9415 8.11555 17.6191 8.11555 17.6191L7.29834 19.5032L9.44034 20.0372C9.6749 20.096 9.90668 20.1564 10.1361 20.2162L10.1366 20.2164C10.2968 20.2581 10.4558 20.2996 10.6139 20.34L9.93275 23.075L11.5768 23.4851L12.2514 20.7792C12.7005 20.9011 13.1364 21.0136 13.5631 21.1196L12.8909 23.8128L14.5369 24.2229L15.218 21.4931C18.0248 22.0243 20.1353 21.8101 21.0236 19.2714C21.7394 17.2274 20.988 16.0484 19.5113 15.2796C20.5868 15.0316 21.3969 14.3242 21.6129 12.863L21.6124 12.8626L21.6123 12.8627ZM17.8517 18.1367C17.385 20.012 14.4497 19.2367 13.1067 18.882C12.9859 18.8501 12.878 18.8216 12.7859 18.7987L13.6897 15.1753C13.802 15.2033 13.9391 15.2341 14.0945 15.269L14.0945 15.269C15.4837 15.5807 18.3299 16.2195 17.8518 18.1367H17.8517ZM14.373 13.5867C15.4927 13.8855 17.9352 14.5374 18.3606 12.833H18.3608C18.7952 11.0898 16.4214 10.5642 15.262 10.3075C15.1316 10.2787 15.0165 10.2532 14.9226 10.2298L14.1031 13.516C14.1805 13.5353 14.2713 13.5595 14.373 13.5867Z" fill="white"/>
</svg>
