<svg width="18" height="18" viewBox="0 0 18 18" fill="none" xmlns="http://www.w3.org/2000/svg">
<path d="M10.667 17.3333H2.33365C2.11272 17.341 1.89256 17.3032 1.68688 17.2221C1.48119 17.1411 1.29438 17.0186 1.13806 16.8623C0.98174 16.7059 0.85925 16.5191 0.77821 16.3134C0.697169 16.1078 0.65931 15.8876 0.666988 15.6667V7.33333C0.65931 7.1124 0.697169 6.89224 0.77821 6.68656C0.85925 6.48087 0.98174 6.29406 1.13806 6.13774C1.29438 5.98142 1.48119 5.85893 1.68688 5.77789C1.89256 5.69685 2.11272 5.65899 2.33365 5.66667H5.66699V2.33333C5.65931 2.1124 5.69717 1.89224 5.77821 1.68656C5.85925 1.48087 5.98174 1.29406 6.13806 1.13774C6.29438 0.98142 6.48119 0.85893 6.68688 0.777889C6.89256 0.696848 7.11272 0.65899 7.33365 0.666667H15.667C15.8879 0.65899 16.1081 0.696848 16.3138 0.777889C16.5194 0.85893 16.7063 0.98142 16.8626 1.13774C17.0189 1.29406 17.1414 1.48087 17.2224 1.68656C17.3035 1.89224 17.3413 2.1124 17.3337 2.33333V10.6667C17.3412 10.8876 17.3033 11.1077 17.2222 11.3133C17.1411 11.5189 17.0186 11.7057 16.8623 11.862C16.706 12.0183 16.5193 12.1408 16.3136 12.2219C16.108 12.3029 15.8879 12.3409 15.667 12.3333H12.3337V15.6667C12.3412 15.8876 12.3033 16.1077 12.2222 16.3133C12.1411 16.5189 12.0186 16.7057 11.8623 16.862C11.706 17.0183 11.5192 17.1408 11.3136 17.2219C11.108 17.3029 10.8879 17.3409 10.667 17.3333ZM2.33365 7.33333V15.6667H10.667V12.3333H7.33365C7.11275 12.3409 6.89265 12.3029 6.68702 12.2219C6.48139 12.1408 6.29463 12.0183 6.13834 11.862C5.98204 11.7057 5.85955 11.5189 5.77846 11.3133C5.69738 11.1077 5.65943 10.8876 5.66699 10.6667V7.33333H2.33365ZM7.33365 2.33333V10.6667H15.667V2.33333H7.33365Z" fill="#E3B100"/>
</svg>
