<svg width="31" height="30" viewBox="0 0 31 30" fill="none" xmlns="http://www.w3.org/2000/svg">
<circle cx="15.5" cy="15" r="15" fill="#2E3148"/>
<circle cx="15.5" cy="15.0001" r="8.70372" fill="#1B1E36"/>
<path fill-rule="evenodd" clip-rule="evenodd" d="M12.5989 15.0304C12.5989 7.78589 13.9118 1.91309 15.531 1.91309C17.1501 1.91309 18.463 7.78589 18.463 15.0304C18.463 22.2749 17.1501 28.1477 15.531 28.1477C13.9118 28.1477 12.5989 22.2749 12.5989 15.0304ZM15.363 27.4691C15.363 27.4691 15.5482 27.6543 15.7334 27.4074C15.7334 27.4074 16.6031 26.666 17.2241 23.1476C17.2241 23.1476 18.0309 18.518 17.9074 14.3822C17.9074 14.3822 18.0309 9.62914 16.6673 4.56742C16.6673 4.56742 16.2056 2.9359 15.655 2.54578C15.5633 2.48059 15.4381 2.49072 15.3581 2.56978C14.9787 2.94502 13.8636 4.63522 13.2507 11.7901C13.2507 11.7901 12.9402 20.8025 14.2445 24.9999C14.2445 24.9999 14.6174 26.6051 15.363 27.4691Z" fill="#6F7390"/>
<path fill-rule="evenodd" clip-rule="evenodd" d="M14.0687 12.4865C20.3556 8.88144 26.1025 7.09752 26.9087 8.50248C27.7142 9.90684 23.2795 13.9685 16.9926 17.5735C10.7057 21.1786 4.95814 22.9619 4.15258 21.5575C3.34702 20.1532 7.78174 16.0915 14.0687 12.4865ZM4.65739 21.0723C4.65739 21.0723 4.58767 21.326 4.89631 21.3649H4.89643C4.89643 21.3649 5.97175 21.7507 9.33283 20.5395C9.33283 20.5395 13.75 18.9364 17.276 16.7704C17.276 16.7704 21.4605 14.5118 25.1699 10.8087C25.1699 10.8087 26.3583 9.59669 26.42 8.92469C26.4317 8.81242 26.3607 8.70808 26.252 8.67773C25.739 8.53649 23.7167 8.40869 17.2063 11.4377C17.2063 11.4377 9.23395 15.6532 6.24079 18.8735C6.24079 18.8735 5.03599 19.9958 4.65739 21.0723Z" fill="#6F7390"/>
<path fill-rule="evenodd" clip-rule="evenodd" d="M17.0042 12.4915C23.269 16.1236 27.6926 20.2039 26.8802 21.6051C26.0685 23.0089 20.3295 21.2027 14.0611 17.5706C7.79265 13.9384 3.36981 9.86057 4.18149 8.45693C4.99317 7.05329 10.7394 8.85929 17.0042 12.4915ZM4.85309 8.64529C4.85309 8.64529 4.59977 8.71381 4.71977 8.99833L4.72061 9.00145C4.72061 9.00145 4.92605 10.1243 7.66061 12.4267C7.66061 12.4267 11.2594 15.4471 14.8989 17.4101C14.8989 17.4101 18.9495 19.8983 24.0143 21.2563C24.0143 21.2563 25.6576 21.6749 26.2712 21.394C26.3738 21.3474 26.428 21.2338 26.3996 21.1248C26.2643 20.61 25.3619 18.7964 19.478 14.6791C19.478 14.6791 11.8358 9.89209 7.54997 8.91613C7.54997 8.91613 5.97461 8.43349 4.85309 8.64529Z" fill="#6F7390"/>
<circle cx="15.5" cy="15" r="1.5432" fill="#B7B9C8"/>
<ellipse cx="21.8271" cy="9.07411" rx="0.89508" ry="0.92592" fill="#B7B9C8"/>
<ellipse cx="7.1358" cy="12.2223" rx="0.89508" ry="0.92592" fill="#B7B9C8"/>
<ellipse cx="13.679" cy="23.5802" rx="0.89508" ry="0.92592" fill="#B7B9C8"/>
</svg>
