<svg width="40" height="40" viewBox="0 0 40 40" fill="none" xmlns="http://www.w3.org/2000/svg">
<path d="M26.5 23.25V26.5M26.5 29.75V26.5M26.5 26.5H23.25M26.5 26.5H29.75" stroke="#E3B100" stroke-width="2.16667" stroke-linecap="round" stroke-linejoin="round"/>
<path fill-rule="evenodd" clip-rule="evenodd" d="M12.416 12.4167C11.5541 12.4167 10.7274 12.7591 10.1179 13.3686C9.50843 13.9781 9.16602 14.8047 9.16602 15.6667V24.3333C9.16602 25.1953 9.50843 26.0219 10.1179 26.6314C10.7274 27.2409 11.5541 27.5833 12.416 27.5833H20.0893C20.0293 27.2253 19.9992 26.863 19.9993 26.5C19.9993 25.2563 20.3482 24.095 20.9538 23.1081C20.4676 23.2572 19.9533 23.2902 19.4521 23.2044C18.9508 23.1186 18.4767 22.9165 18.0678 22.6142C17.6589 22.3119 17.3266 21.918 17.0976 21.4639C16.8687 21.0099 16.7494 20.5085 16.7493 20C16.75 19.5328 16.8514 19.0712 17.0466 18.6468C17.2417 18.2223 17.5261 17.8449 17.8804 17.5403C18.2346 17.2357 18.6504 17.011 19.0993 16.8816C19.5482 16.7522 20.0198 16.7212 20.4818 16.7905C20.9438 16.8599 21.3855 17.028 21.7766 17.2835C22.1678 17.539 22.4992 17.8758 22.7484 18.271C22.9976 18.6662 23.1587 19.1105 23.2206 19.5735C23.2826 20.0366 23.244 20.5076 23.1074 20.9544C24.128 20.3286 25.3022 19.9982 26.4993 20C28.1644 20 29.6833 20.6262 30.8327 21.6553V15.6667C30.8327 14.8047 30.4903 13.9781 29.8808 13.3686C29.2713 12.7591 28.4446 12.4167 27.5827 12.4167H12.416ZM19.9993 18.9167C19.712 18.9167 19.4365 19.0308 19.2333 19.234C19.0302 19.4371 18.916 19.7127 18.916 20C18.916 20.2873 19.0302 20.5629 19.2333 20.766C19.4365 20.9692 19.712 21.0833 19.9993 21.0833C20.2867 21.0833 20.5622 20.9692 20.7654 20.766C20.9685 20.5629 21.0827 20.2873 21.0827 20C21.0827 19.7127 20.9685 19.4371 20.7654 19.234C20.5622 19.0308 20.2867 18.9167 19.9993 18.9167Z" fill="#E3B100"/>
<rect width="40" height="40" rx="10" fill="#E3B100" fill-opacity="0.2"/>
</svg>
