<svg width="41" height="40" viewBox="0 0 41 40" fill="none" xmlns="http://www.w3.org/2000/svg">
<circle cx="21" cy="20" r="15" fill="#988430"/>
<circle cx="21" cy="20" r="14.5195" fill="#7A6A2A"/>
<circle cx="21" cy="20" r="14.2136" fill="#BA9F33"/>
<path fill-rule="evenodd" clip-rule="evenodd" d="M12.5585 18.3983C12.4735 18.3207 12.3838 18.243 12.3012 18.1654C12.2187 18.0878 12.1339 18.01 12.0489 17.9324L11.7964 17.6924C11.7551 17.6511 11.7115 17.6148 11.6702 17.5734C11.6289 17.5371 11.5804 17.4958 11.5391 17.4593C11.2041 17.1414 10.8671 16.8235 10.5367 16.5054C10.879 16.8185 11.214 17.1294 11.5563 17.4471L11.6751 17.5662C11.7164 17.6073 11.7601 17.6438 11.8014 17.6851L12.0537 17.918C12.1387 17.9956 12.2212 18.0734 12.3062 18.158C12.3911 18.2427 12.4737 18.3206 12.5587 18.398L12.5585 18.3983ZM8.11194 18.3503C8.11194 18.3503 9.33034 18.4764 9.92506 18.5614C10.4759 18.6391 12.1993 18.9036 12.1993 18.9036L8.11194 18.3503ZM8.11198 18.3503C8.45422 18.3795 8.79646 18.4158 9.1387 18.4523C9.31342 18.4692 9.48094 18.4886 9.64846 18.5055L9.90558 18.5348C9.99054 18.5468 10.0731 18.559 10.1581 18.5711L11.1776 18.7337L11.6872 18.8187C11.8547 18.8478 12.0222 18.8795 12.1969 18.9086C12.0294 18.8916 11.8547 18.8673 11.6872 18.843L11.1776 18.7702L10.1581 18.6198C10.0731 18.6076 9.99054 18.5905 9.90558 18.5785L9.6483 18.5489C9.48078 18.5319 9.30606 18.5076 9.13854 18.4881C8.7963 18.447 8.45406 18.4031 8.11182 18.3499L8.11198 18.3503ZM12.0781 19.2209C12.0781 19.2209 10.7771 19.5512 10.3377 19.6774C9.90573 19.7963 8.59741 20.1944 8.59741 20.1944L12.0779 19.2211L12.0781 19.2209Z" fill="#CFB66C"/>
<path fill-rule="evenodd" clip-rule="evenodd" d="M12.0777 19.2207C11.7889 19.3057 11.5017 19.3882 11.2087 19.466L10.3397 19.6989C10.0509 19.7839 9.76373 19.8665 9.47573 19.9514L9.04373 20.0703C8.90053 20.1116 8.75493 20.1479 8.60693 20.1893C8.74997 20.1413 8.89573 20.0922 9.03893 20.0509L9.47093 19.9127C9.75973 19.8228 10.0469 19.7378 10.3349 19.6481C10.6285 19.5753 10.9175 19.4975 11.2111 19.4271C11.4901 19.3567 11.7839 19.2865 12.0777 19.2209V19.2207ZM8.7793 20.995C8.92234 20.9415 10.5729 20.1723 10.9564 19.9926C11.1484 19.9027 11.7065 19.7046 11.7065 19.7046L8.7793 20.995Z" fill="#CFB66C"/>
<path fill-rule="evenodd" clip-rule="evenodd" d="M8.77897 20.9949C8.90505 20.9469 9.02409 20.8882 9.14537 20.8323L9.50457 20.6648L10.2255 20.3178C10.4655 20.2037 10.6988 20.0778 10.9463 19.9706C11.0726 19.9173 11.1988 19.8736 11.3249 19.8323L11.5169 19.7717C11.5823 19.7547 11.6431 19.7352 11.7089 19.7183C11.4689 19.8323 11.2162 19.9295 10.9759 20.041C10.7359 20.16 10.4905 20.2571 10.2428 20.3639L9.50985 20.6866C9.26377 20.7863 9.02377 20.893 8.77881 20.9949H8.77897ZM8.93896 21.6668C8.93896 21.6668 10.434 20.7907 10.9486 20.5091C11.218 20.3587 12.0894 19.9265 12.0894 19.9265L8.93896 21.6668Z" fill="#CFB66C"/>
<path fill-rule="evenodd" clip-rule="evenodd" d="M8.93921 21.668C9.19153 21.5126 9.44881 21.3549 9.70609 21.1947L10.0901 20.9616C10.2211 20.884 10.3474 20.8112 10.481 20.7336C10.612 20.6558 10.7382 20.5782 10.8717 20.5054C10.9352 20.4662 11.0018 20.4321 11.0707 20.4035L11.2746 20.3016C11.544 20.1705 11.8134 20.0369 12.0974 19.9229C11.8402 20.0856 11.5755 20.224 11.311 20.367C11.18 20.4398 11.0464 20.5054 10.9154 20.5782C10.7843 20.651 10.6581 20.7288 10.5245 20.7992C10.3934 20.8768 10.2672 20.9496 10.1338 21.02L9.73809 21.236L8.93953 21.668H8.93921ZM12.0775 20.1194C12.0775 20.1194 11.1479 20.833 10.8469 21.0611C10.546 21.2893 9.66003 21.9301 9.66003 21.9301L12.0775 20.1194Z" fill="#CFB66C"/>
<path fill-rule="evenodd" clip-rule="evenodd" d="M17.4127 25.8737L16.937 24.9732L17.2137 23.847L19.1869 23.0849L18.3471 21.3617L18.7621 19.6214L19.5413 18.063L21.9492 17.6844L23.7185 15.9976L27.5389 16.2864L28.2889 20.3713L26.8447 25.5145L26.022 28.1772L22.6869 28.3035L21.1385 27.2307L19.3253 26.4732L17.4127 25.8737Z" fill="#E2CC85"/>
<path fill-rule="evenodd" clip-rule="evenodd" d="M23.2623 25.8447C23.2623 25.8447 22.801 26.0559 22.0143 26.0073C21.7866 25.7015 20.192 25.5583 20.192 25.5583C20.192 25.5583 19.993 25.4977 19.641 25.6433C19.2867 25.7873 18.9517 25.7695 18.6386 25.8471C18.3255 25.9247 18.0146 25.5171 17.7746 25.4321C17.5346 25.3423 17.2163 25.1263 17.2163 25.1263L16.5443 25.0607L15.1949 24.4903L13.0511 22.3545L12.4685 23.2665L12.2888 24.3951L12.937 25.7326L14.6821 27.3223L18.085 28.1863L20.1019 27.5921L22.6287 26.5241L23.2623 25.8446V25.8447Z" fill="#F1D789"/>
<path fill-rule="evenodd" clip-rule="evenodd" d="M11.1723 18.2962L11.6043 16.9881L12.1191 16.1433L13.7767 16.0049L13.2791 17.4564L11.8933 19.9225L12.4685 22.1239L11.4491 22.6335L11.1359 22.153L10.8835 21.0511L10.8666 19.8132L11.1723 18.2962Z" fill="#F4ECB4"/>
<path fill-rule="evenodd" clip-rule="evenodd" d="M13.0315 25.755L12.7136 25.3108C12.7136 25.3108 12.6287 25.0996 12.6773 24.9151C12.7253 24.7283 12.7184 24.7161 12.6943 24.6457C12.6701 24.5753 12.4661 24.3326 12.4783 24.1238C12.4903 23.9126 12.4613 23.8422 12.6165 23.6748C12.7791 23.5123 12.7306 23.2307 12.7306 23.2307L12.9418 23.3617L12.9898 23.2889C12.9898 23.2889 13.0674 23.3495 13.0674 23.4443C13.0843 23.3132 13.0139 22.7063 13.1741 22.5681C13.3343 22.4299 13.6183 23.2161 13.6183 23.2161L13.4435 22.0753L12.9944 20.9055L12.1959 19.8375L12.1479 18.6603V18.5583C12.1479 18.5583 11.7813 19.1215 11.6794 19.5663C11.6066 19.8721 11.7813 20.2435 11.745 20.6828C11.7157 21.1198 11.6794 21.0857 11.7861 21.2588C11.8928 21.4319 12.1527 21.7879 12.0507 22.0452C11.961 22.2662 11.6551 22.1108 11.6551 22.1108C11.6551 22.1108 11.5944 22.2903 11.5119 22.3559C11.4827 22.2492 11.4512 22.1812 11.393 22.1159C11.388 22.1572 11.376 22.2131 11.376 22.2131C11.376 22.2131 11.3226 22.0455 11.2691 21.8343C11.1965 21.5529 11.1187 21.1815 11.0483 20.9825C11.0192 21.0966 10.9464 21.4436 10.9464 21.4436L10.9877 21.9777L11.1867 22.7107L11.3787 23.1907L11.5656 23.778L11.728 24.1726L11.8591 24.4735L11.9731 25.1508L12.524 25.7332L12.8178 25.8644L13.0312 25.7551L13.0315 25.755Z" fill="#F3E19D"/>
<path fill-rule="evenodd" clip-rule="evenodd" d="M11.4611 17.2282C11.4611 17.2282 11.0654 17.9002 10.9515 18.5777C10.8376 19.2551 10.7355 19.9709 10.8075 20.8932C10.8803 21.8229 11.0187 22.3932 11.1304 22.801C11.3224 23.4783 11.8196 24.4201 11.8196 24.4201L11.8366 24.3836C11.753 24.2251 11.6863 24.0584 11.6376 23.886C11.572 23.6287 11.5476 23.3229 11.487 23.1845C11.4336 23.0463 11.3438 22.9273 11.3001 22.7573C11.2588 22.5948 11.2521 22.3375 11.1254 22.1458C11.072 22.0681 11.0064 21.8642 10.987 21.6604C10.9627 21.3545 10.9992 21.0122 10.97 20.7308C10.9166 20.2623 10.8803 19.9444 10.9288 19.6991C10.9772 19.4538 11.2299 18.7575 11.3852 18.2041C11.4872 17.8497 11.4264 17.5511 11.6132 17.2428C11.8001 16.937 11.9144 16.6676 11.9555 16.4807C12.0035 16.3108 11.4604 17.2282 11.4604 17.2282H11.4611Z" fill="#F2E8B0"/>
<path fill-rule="evenodd" clip-rule="evenodd" d="M13.3375 16.9587C13.3375 16.9587 13.1336 17.0195 13.0365 17.1263C12.9394 17.2282 12.8981 17.3131 12.7671 17.4855C12.636 17.6578 12.6287 17.7986 12.5218 18.0146C12.4151 18.2258 12.1795 18.5437 12.1504 18.6578C12.1213 18.7719 12.0728 19.3058 12.0122 19.5583C11.9587 19.8107 12.0728 20.1215 12.0728 20.1215L12.2111 20.0922C12.2111 20.0922 12.2111 20.2719 12.3495 20.3933C12.4877 20.5122 12.512 19.9903 12.512 19.9903L13.029 18.2451L13.808 17.716L13.893 17.2888L13.3371 16.9587H13.3375Z" fill="#F5EEC0"/>
<path fill-rule="evenodd" clip-rule="evenodd" d="M13.7159 17.7501C13.7159 17.7501 13.3494 17.7743 13.1699 17.9055C13.0971 17.9588 13.0679 18.0025 12.9903 18.0681C12.8471 18.1869 12.7014 18.2962 12.6311 18.4521C12.5534 18.6073 12.4684 18.8428 12.4102 19.2869C12.3859 19.4738 12.3859 19.6461 12.3689 19.7967C12.3446 20.0005 12.3083 20.1631 12.3276 20.2767C12.3519 20.5097 12.5923 20.6311 12.6156 20.8956L13.1132 20.6433L13.5817 18.7961L14.5769 18.1721L14.0137 17.541L13.7153 17.749L13.7159 17.7501Z" fill="#E6DB9D"/>
<path fill-rule="evenodd" clip-rule="evenodd" d="M11.0909 30.1885C11.0929 30.1703 11.095 30.1521 11.0971 30.1333C11.1697 29.5093 11.1821 29.0364 11.2353 28.7402C11.3129 28.3204 11.3664 28.1642 11.3542 28.0071C11.3373 27.7548 11.3179 27.5703 11.3422 27.3761C11.3785 27.1188 11.631 26.813 11.6238 26.6018C11.6189 26.4343 11.5339 26.3252 11.4611 26.2233C11.3883 26.1213 11.3301 26.0364 11.3301 26.0364C11.3301 26.0364 11.8277 25.6941 11.8229 24.3154C11.833 24.3183 11.8428 24.3224 11.852 24.3276L12.0971 25.0241L12.2646 25.2279L12.9078 26.4269L13.7355 27.2305L14.9587 28.0532L15.7257 28.8879L15.8033 31.1137L14.8009 32.4146L14.6368 32.7119C13.3326 32.0572 12.1366 31.2061 11.0907 30.1884L11.0909 30.1885Z" fill="#E5CB7A"/>
<path fill-rule="evenodd" clip-rule="evenodd" d="M14.153 32.3179C14.153 32.3179 14.1699 32.0413 14.3981 31.8616C14.4346 31.9222 14.4587 31.9806 14.4515 32.0242C14.4928 31.9515 14.7816 31.4854 15.4346 31.364C16.0875 31.2451 16.2453 30.7694 16.2453 30.7694L17.631 29.5098L19.216 28.051L21.1432 27.3738L22.0438 27.1528C22.0438 27.1528 22.0608 27.2184 22.0269 27.364C22.1942 27.352 22.5656 27.267 22.9515 27.131C23.1069 27.0704 23.2526 27.0461 23.3302 27.1262C23.4443 27.233 23.4613 27.4854 23.4685 27.6358C23.6554 27.5946 23.8714 27.415 24.0445 27.432C24.3213 27.4611 24.5664 27.7864 24.848 27.7864C25.2194 27.7864 25.3867 27.5582 25.6466 27.3786C25.8019 27.2718 26.0251 27.1386 26.1514 27.0485C26.4523 26.8275 29.6368 25.8542 29.6368 25.8542L30.7533 25.927L30.933 27.1261L30.837 30.2605C30.8251 30.2718 30.8133 30.2837 30.8013 30.295L25.7248 32.9464L18.688 34.0251C17.1117 33.7676 15.5906 33.2444 14.1894 32.4778L14.1534 32.3178L14.153 32.3179Z" fill="#D8C173"/>
<path fill-rule="evenodd" clip-rule="evenodd" d="M11.5176 30.5874C11.6176 30.3783 11.7075 30.2034 11.7233 30.1409C11.7358 30.2669 11.7587 30.5436 11.8048 30.8377C11.708 30.7554 11.6123 30.672 11.5176 30.5873V30.5874Z" fill="#F1D789"/>
<path fill-rule="evenodd" clip-rule="evenodd" d="M16.658 33.5371L17.5681 33.284L17.6457 33.3083C17.6457 33.3083 17.6869 33.3326 17.6869 33.415C17.801 33.3496 17.8981 33.3616 17.9685 33.3181C18.0049 33.3957 18.0412 33.653 18.2015 33.6845C18.3689 33.721 18.5485 33.6117 18.7306 33.4734C18.9101 33.3302 19.1146 33.1506 19.2693 33.0778C19.3261 33.1821 19.3764 33.2899 19.4199 33.4005C19.6237 33.2379 19.9781 32.5778 20.4829 32.5898C20.6288 32.245 20.8726 31.9505 21.1841 31.7427C21.6525 31.4248 21.9461 31.4005 22.3127 31.4296C22.4583 31.2405 22.6377 31.08 22.8418 30.9563C22.9025 30.9806 23.07 31.0826 23.2788 30.9854C23.49 30.8885 23.7277 30.5122 24.0409 30.4637C24.2096 30.4405 24.3812 30.4765 24.5263 30.5656C24.5263 30.5656 25.4383 29.6602 26.0676 29.3592C26.0433 29.2864 25.9948 29.0122 26.7325 28.4053C26.7738 28.4418 26.7447 28.5437 26.7738 28.5493C26.7858 28.5493 26.9658 28.4717 27.1937 28.2968C27.4753 28.0858 27.8125 27.8648 28.0164 27.8042C28.4004 27.6901 28.8077 27.923 28.8077 27.923C28.8424 27.8987 28.881 27.8807 28.9218 27.8696C29.0188 27.8526 29.0892 27.8405 29.1426 27.8216C29.1378 27.9478 29.2082 28.1638 29.1426 28.3507C29.2186 28.3935 29.2991 28.4276 29.3826 28.4526C29.3415 28.5424 29.2516 28.7706 29.1012 28.8798C29.2273 28.9405 29.2442 29.0109 29.4239 29.0718C29.3511 29.1738 29.2319 29.3486 29.1788 29.4558C29.1253 29.5699 28.9335 30.0432 28.8485 30.2227C28.7588 30.4024 28.6375 30.7325 28.5791 30.7987C28.5207 30.865 28.3097 31.1458 28.1471 31.284C28.2911 31.2306 28.8802 31.051 29.1301 30.983C29.0557 31.0922 28.6786 31.6517 28.3161 32.1898C24.8043 34.2946 20.5566 34.7863 16.6569 33.5395L16.658 33.5371Z" fill="#E0CD81"/>
<path fill-rule="evenodd" clip-rule="evenodd" d="M13.776 17.6844C13.776 17.6844 13.565 17.6844 13.5237 17.7136C13.4824 17.7427 13.7349 17.8035 13.8125 17.8326C13.8901 17.8617 14.0576 17.9952 14.1013 18.102C14.1426 18.204 15.6183 18.7985 15.6183 18.7985L16.6619 18.7451L17.0218 18.248L16.3373 17.6484L16.8173 16.2334L16.1815 16.3353L14.6523 17.2473L13.8853 17.5411L13.776 17.6844Z" fill="#DFC57C"/>
<path fill-rule="evenodd" clip-rule="evenodd" d="M16.068 18.1529C16.0987 18.2026 16.1536 18.2322 16.212 18.2305C16.428 18.2305 16.6269 18.2839 16.7095 18.393C16.8479 18.5679 17.2314 19.1262 17.2314 19.1262L18.1488 19.4562L18.208 18.3759L17.2056 17.6794L16.0648 18.0993V18.1527H16.0674L16.068 18.1529Z" fill="#E5CC7C"/>
<path fill-rule="evenodd" clip-rule="evenodd" d="M15.888 18.5535C15.888 18.5535 16.0554 18.5657 16.2666 18.4879C16.4778 18.4101 16.8248 18.2428 16.9754 18.3084C17.1864 18.3981 17.1427 18.6797 17.3711 18.9324C17.5093 19.0877 17.7618 19.0829 17.905 19.2505C18.0482 19.418 18.5408 19.3402 18.5408 19.3402L18.7277 20.3482L17.9778 21.3095L17.7325 22.5036H16.7184L15.792 22.1361L15.3357 21.0321L15.5639 19.9156L15.888 18.5535Z" fill="#D2C281"/>
<path fill-rule="evenodd" clip-rule="evenodd" d="M17.8496 18.602C17.8747 18.6097 17.9008 18.6138 17.9272 18.6141C17.898 18.6384 17.8372 18.6917 17.8616 18.8301C17.8859 18.9685 17.9635 19.1432 17.898 19.25C17.9503 19.3071 17.9892 19.3751 18.0121 19.449C18.0534 19.568 18.0656 19.6772 18.3348 19.6943C18.296 19.7182 18.2601 19.7467 18.2281 19.7792C18.2281 19.7792 18.415 19.9418 18.5097 20.0922C18.6067 20.088 18.864 20.008 18.864 20.008L18.9174 20.0445L19.0315 19.9965C19.0315 19.9965 18.9248 19.9552 19.0024 19.6956C19.0752 19.4674 19.1408 19.4796 19.1464 19.4626C19.152 19.4456 19.1998 19.2053 19.1998 19.1082C19.2361 18.9821 19.2652 18.5986 19.2652 18.5986L19.1876 17.7516L18.7508 17.4869L18.3956 17.144L18.0606 17.7751L17.84 17.9951L17.823 18.5412L17.8496 18.602Z" fill="#E2C270"/>
<path fill-rule="evenodd" clip-rule="evenodd" d="M18.9005 17.8934C18.9005 17.8934 18.9781 18.1142 19.0074 18.2841C19.0177 18.2511 19.0234 18.2168 19.0244 18.1822C19.0244 18.1822 19.085 18.5172 19.097 18.6556C19.1213 18.6507 19.145 18.6435 19.1504 18.6676C19.1559 18.6918 19.2112 18.9614 19.1984 19.1118C19.2995 18.945 19.4394 18.8052 19.6061 18.7041C19.7032 18.6433 19.8173 18.5779 19.9364 18.5729C20.1232 18.5681 20.2591 18.6919 20.4824 18.6919C21.0212 18.6919 21.5092 18.2963 21.8684 18.175C22.1328 18.0851 22.361 18.0196 22.5212 17.8739C22.5989 17.8084 22.7373 17.6628 22.8634 17.4467C23.0309 17.1587 23.2056 16.9079 23.3805 16.8764C23.3014 16.891 23.2209 16.8967 23.1405 16.8934C23.1405 16.8934 23.194 16.8399 23.2845 16.7671C23.3751 16.6943 23.4836 16.6046 23.6388 16.6046C23.9156 16.6046 24.0538 16.6457 24.2092 16.6457C24.3645 16.6409 24.4543 16.6046 24.4543 16.6046C24.4543 16.6046 24.617 16.7187 24.9834 16.7187C25.35 16.7235 25.5951 16.755 25.7869 16.7721C25.9788 16.7892 26.6218 16.7187 26.8063 16.7241C26.9265 16.7287 27.0446 16.7576 27.1535 16.8091L26.5588 15.0811L24.4224 13.2139L23.1506 14.1143L21.1941 16.0707L19.301 16.7721L18.9053 17.2163V17.8934H18.9005Z" fill="#CCB360"/>
<path fill-rule="evenodd" clip-rule="evenodd" d="M23.1481 16.9029C23.1481 16.9029 23.2016 16.8496 23.2912 16.7768C23.3808 16.704 23.4904 16.6141 23.6456 16.6141C23.9222 16.6141 24.0606 16.6554 24.216 16.6554C24.3713 16.6506 24.4611 16.6141 24.4611 16.6141C24.4611 16.6141 24.624 16.728 24.9902 16.728C25.3568 16.7328 25.6019 16.7644 25.7937 16.7813C25.9856 16.7983 26.6286 16.728 26.8131 16.7333C26.9333 16.7378 27.0514 16.7667 27.1601 16.8183L26.8907 16.0391L26.5777 15.4445L25.6845 14.4663C25.6845 14.4663 24.6125 13.8352 24.6043 13.8304C24.5995 13.8256 24.2329 13.7285 24.2329 13.7285L23.2621 14.3159L22.3811 16.5951L22.3641 17.0751L22.9344 17.3445C23.0776 17.1045 23.2355 16.9125 23.3835 16.8882C23.2499 16.9028 23.148 16.9028 23.148 16.9028L23.1481 16.9029Z" fill="#D5B457"/>
<path fill-rule="evenodd" clip-rule="evenodd" d="M23.136 17.0657C23.051 17.0705 22.9808 17.0536 22.9612 16.9929C22.8884 16.7891 22.8302 16.76 22.7692 16.76C22.7083 16.76 22.626 16.891 22.5772 16.903C22.5284 16.915 22.4705 16.7526 22.4705 16.7526L22.4171 16.7283C22.4171 16.7283 22.104 16.9321 21.8832 17.1724C21.6624 17.4128 21.3006 17.8206 21.138 17.8932C20.9755 17.9659 20.4171 17.9904 20.226 18.0316C20.035 18.0729 19.8232 18.2113 19.794 18.2428C19.7649 18.2744 19.8792 18.3083 19.8961 18.3398C19.9131 18.3689 19.7091 18.3568 19.6921 18.3878C19.6801 18.4121 19.7401 18.5504 19.7699 18.6208C19.822 18.5949 19.8791 18.5808 19.9372 18.5795C20.1241 18.5747 20.2601 18.6985 20.4833 18.6985C21.0222 18.6985 21.51 18.3028 21.8692 18.1814C22.1339 18.0916 22.362 18.026 22.5222 17.8804C22.5998 17.815 22.7382 17.6692 22.8644 17.4532C22.9566 17.3052 23.0465 17.1668 23.1364 17.0649L23.136 17.0657Z" fill="#D2B257"/>
<path fill-rule="evenodd" clip-rule="evenodd" d="M15.408 29.0777C15.408 29.0777 15.36 28.898 14.9152 28.4345C14.789 28.3034 14.7114 28.1945 14.6264 28.1166C14.4152 27.9174 14.2914 27.8641 14.141 27.75C13.8109 27.5049 13.4517 27.5049 13.1751 27.2039C12.8984 26.903 12.576 26.3279 12.352 25.7402C12.1312 25.1529 12.0704 24.966 12.0704 24.949C12.0704 24.9321 12.1312 24.818 12.2088 24.835C12.2864 24.8519 12.2864 25.0023 12.306 25.0388C12.3446 25.0983 12.3885 25.1544 12.437 25.2062C12.5511 25.3374 12.7136 25.4942 12.7962 25.7281C12.7792 25.529 12.7112 25.3082 12.7112 25.3082C12.7112 25.3082 13.1384 25.5777 13.5024 25.8591C13.869 26.1407 14.0194 26.2378 14.1264 26.4174C14.2335 26.5969 14.4856 27.0703 14.6064 27.2087C14.7272 27.3471 16.3824 27.8689 16.3824 27.8689L17.1698 28.4559L17.5607 29.3127L17.2548 29.7927L16.6674 29.919L15.7135 29.4918L15.408 29.0775V29.0777Z" fill="#D2B159"/>
<path fill-rule="evenodd" clip-rule="evenodd" d="M13.2888 26.1263C13.2888 26.1263 13.4879 26.4442 13.9733 26.7452C14.4103 27.0098 15.1019 27.2502 15.7186 27.3934C16.0728 27.4783 16.4272 27.5438 16.7451 27.5487C17.6019 27.5607 18.1917 27.3158 18.9224 27.2356C19.3181 27.1943 19.8035 27.1628 20.3083 27.0436C20.9563 26.8882 21.3399 26.7134 21.8618 26.4676C22.2403 26.2929 22.5875 26.1618 22.869 25.9943C23.2647 25.7614 23.5535 25.5017 23.8885 25.4241C23.8472 25.5382 23.8035 25.742 23.4735 25.9532C23.6482 25.9482 23.8885 25.9362 23.8885 25.9362C23.8885 25.9362 23.6555 26.0745 23.2453 26.3852C22.9928 26.5772 22.6579 26.9022 22.3157 27.1182C22.0947 27.2566 21.8544 27.3582 21.6967 27.441C21.3127 27.6522 21.1578 27.759 20.9055 28.017C20.9952 28.0122 21.0026 28.017 21.0026 28.017C21.0026 28.017 20.6845 28.0583 20.4565 28.1796C20.4085 28.1796 20.3253 28.1626 20.1797 28.2039C20.0656 28.2402 19.9151 28.323 19.7599 28.3665C19.5389 28.4321 19.4663 28.403 19.4663 28.403L19.5026 28.4758C19.5026 28.4758 19.2146 28.4708 19.1186 28.4806C19.1355 28.4854 19.1307 28.4927 19.1307 28.4927C19.1139 28.4955 19.0976 28.5013 19.0827 28.5097C19.0365 28.5396 18.9857 28.5617 18.9323 28.5751C18.9032 28.5799 18.8789 28.5799 18.8424 28.5873C18.8546 28.6164 18.9493 28.7793 18.993 28.8753C18.9567 28.8996 18.4104 29.3122 18.4104 29.3122C18.4274 29.3389 18.4412 29.3674 18.4517 29.3972C18.4687 29.4505 18.476 29.5282 18.493 29.5646C18.5341 29.6374 18.5584 29.6495 18.5584 29.6495C18.5584 29.6495 18.493 29.6617 18.3787 29.6908C18.2818 29.7151 18.1627 29.7562 17.9947 29.7806C17.9432 29.7873 17.8913 29.7913 17.8394 29.7927C17.8637 29.8462 17.9704 30.05 17.7738 30.2854C17.5771 30.5207 17.5165 30.555 17.4559 30.7054C17.4253 30.6823 17.3928 30.6619 17.3587 30.6446C17.2933 30.6154 17.2034 30.5719 17.1719 30.5135C17.1535 30.5913 17.1291 30.6676 17.0991 30.7417C17.0384 30.9042 16.9487 31.0646 16.9317 31.1858C16.8661 31.113 16.7448 30.9698 16.5773 30.999C16.4098 31.0281 16.2763 31.2562 16.2472 31.3218C16.2472 31.2806 16.2181 31.249 16.2109 31.2975C16.2059 31.351 16.1138 31.909 15.5992 32.3606C15.5944 32.2465 15.5944 31.994 15.5823 31.9116C15.5343 31.9596 15.4755 32.0305 15.1259 32.181C14.7837 32.3314 14.8379 32.482 14.8379 32.482C14.8379 32.482 14.8088 32.242 14.9933 31.9892C15.1802 31.7369 15.2943 31.6178 15.2943 31.5985C15.2912 31.5788 15.2828 31.5603 15.2699 31.545C15.2456 31.5207 15.1971 31.4916 15.1971 31.4722C15.2263 31.4602 15.5151 31.3218 15.4981 31.0353C15.4811 30.7782 15.372 30.6446 15.2943 30.55C15.2823 30.5378 15.4085 30.4481 15.3914 30.419C15.3792 30.402 15.224 30.2878 15.2045 30.227C15.2091 30.1907 15.2172 30.1549 15.2288 30.1202C15.2458 30.0668 15.2579 30.0303 15.2531 29.994C15.241 29.9334 15.1754 29.7658 15.156 29.7489C15.173 29.7537 15.2943 29.7489 15.2943 29.7489C15.2943 29.7489 15.1973 29.5935 15.1802 29.5207C15.1631 29.4479 15.1267 29.2561 15.1074 29.2198C15.1487 29.2246 15.2506 29.2318 15.2506 29.2198C15.2555 29.1833 15.1608 29.1226 15.2026 29.0758C15.2317 29.0806 15.2875 29.1049 15.3408 29.1729C15.3117 29.0951 15.2632 28.9447 15.1611 28.8841C15.2091 28.8671 15.3723 28.8233 15.5155 28.9082C15.6587 28.9932 15.7075 29.1121 15.7075 29.1121C15.7075 29.1121 15.7925 29.1777 15.9237 29.2748C16.0741 29.3937 16.2658 29.5628 16.5717 29.6825C16.6373 29.719 16.8047 29.719 16.9261 29.6946C16.979 29.682 17.0297 29.6616 17.0765 29.634C17.0934 29.624 17.1113 29.6159 17.1299 29.6097C17.1038 29.5573 17.0738 29.507 17.0402 29.4591C17.0815 29.4591 17.1299 29.4641 17.1299 29.4641C17.1299 29.4641 17.1591 29.3985 17.028 29.2721C17.0571 29.243 17.0936 29.2241 17.0936 29.175C17.0523 29.1702 16.9795 29.1095 16.9626 29.0852C16.9867 29.0682 17.0232 29.0124 17.0645 28.9954C17.028 28.9663 16.9383 28.8449 16.897 28.8329C16.9364 28.8182 16.9746 28.8004 17.0111 28.7794C17.0111 28.7794 16.8072 28.726 16.7416 28.6823C16.676 28.6343 16.5791 28.5513 16.5208 28.527C16.46 28.5026 16.3533 28.4906 16.3096 28.442C16.3507 28.4542 16.4163 28.442 16.465 28.442C16.5013 28.442 16.5184 28.4468 16.5304 28.4468C16.5256 28.4298 16.5256 28.3934 16.6203 28.3814C16.6659 28.3745 16.7101 28.3606 16.7514 28.3401C16.7514 28.3401 16.6615 28.3353 16.5594 28.2382C16.4573 28.141 16.3725 28.0634 16.3143 28.0513C16.2536 28.0391 16.1395 28.0926 16.0691 28.0876C15.972 28.0756 15.9307 28.027 15.9307 28.027C15.9307 28.027 15.608 28.0561 14.892 27.6193C14.273 27.2406 14.0035 26.9057 14.0035 26.9057C13.9456 26.8846 13.8896 26.8586 13.8362 26.8279C13.6032 26.7066 13.2803 26.4542 13.2901 26.1239L13.2888 26.1263Z" fill="#C2A44D"/>
<path fill-rule="evenodd" clip-rule="evenodd" d="M22.2184 11.5582C22.2746 11.5764 22.3245 11.61 22.3624 11.6553C22.4765 11.7863 22.5493 12.0338 22.2896 12.2985C22.3915 12.3348 22.4336 12.3465 22.5226 12.3348C22.4328 12.4417 22.229 12.6698 22.2168 12.8689C22.2047 13.0314 22.3066 13.0801 22.3066 13.0801C22.3066 13.0801 22.1512 13.2596 22.144 13.5601C22.2174 13.4773 22.2977 13.401 22.384 13.3319C22.5637 13.1887 22.8112 13.0262 22.9787 12.9242C22.9765 12.967 22.9822 13.0097 22.9957 13.0503C22.9957 13.0503 23.3087 12.793 23.5717 12.9073C23.6906 12.9607 23.6371 13.1281 23.6371 13.1281C23.6371 13.1281 23.7999 13.0674 23.9139 13.1815C24.028 13.2956 24.1893 13.5898 24.272 13.7039C24.3083 13.7574 24.4031 13.8593 24.5 14.017C24.6325 14.2379 24.7431 14.4712 24.8303 14.7135C24.8351 14.5873 24.8666 14.3908 25.2259 14.5145C25.5851 14.6407 25.9928 14.9054 26.3351 15.4265C26.6773 15.9476 26.7621 16.5359 26.9344 16.7599C27.1091 16.9759 27.2888 17.3351 27.301 17.4857C27.3131 17.6362 27.2475 18.1215 27.6067 19.4346C27.7087 19.027 27.864 18.1215 27.864 18.1215L27.949 17.323L28.0461 14.8521L25.4659 12.7086L23.449 11.2449L22.1359 11.3711L22.2183 11.558L22.2184 11.5582Z" fill="#CAA13E"/>
<path fill-rule="evenodd" clip-rule="evenodd" d="M27.0122 15.2355C27.0122 15.2355 26.9757 14.9955 26.369 14.5875C25.7621 14.1846 25.2888 14.1846 24.852 13.8423C24.517 13.5729 24.1675 12.9539 23.94 12.75C23.7191 12.5486 23.6827 11.966 23.6827 11.966L24.4279 11.342L25.536 9.74026L26.4728 8.70874L26.9218 9.33274L27.5458 10.0657L27.8928 11.5366L28.0191 13.6895L27.0111 15.2356L27.0122 15.2355Z" fill="#B59544"/>
<path fill-rule="evenodd" clip-rule="evenodd" d="M27.7623 17.8161C27.7807 17.4896 27.7403 17.1624 27.6433 16.8501C27.4833 16.3525 27.1337 15.469 26.9713 15.1381C26.9057 14.7716 26.9543 14.7425 27.0247 14.7012C27.0951 14.6599 27.3597 14.5092 27.5047 13.9804C27.6497 13.4516 28.0994 13.4343 28.0994 13.4343L28.3761 13.2305L28.7961 14.2813L29.1625 15.2305L29.2765 15.9562L29.3615 16.5751L29.1625 17.8834L28.1796 18.7717L27.7621 17.8161H27.7623Z" fill="#C89D3A"/>
<path fill-rule="evenodd" clip-rule="evenodd" d="M14.0463 32.3982V32.3713C14.0667 32.3585 14.0847 32.3423 14.0995 32.3233C14.1165 32.299 14.1288 32.2699 14.1408 32.2627C14.1651 32.2505 14.2792 32.2147 14.3399 32.2262C14.4005 32.2377 14.5608 32.3038 14.6458 32.299C14.8205 32.2942 15.0243 32.1606 15.3472 32.2214C15.8327 32.3112 15.9467 32.6412 16.2283 32.8281C16.4203 32.9593 16.6191 32.9009 16.6482 32.9009H16.7136C16.7258 32.9009 16.8155 32.799 16.8642 32.804C16.9613 32.8088 16.9709 32.8889 17.0315 32.8937C17.1747 32.9107 17.4515 32.8209 17.5899 32.8574C17.6732 32.8835 17.7385 32.9487 17.7647 33.032C17.7938 33.1217 17.7695 33.2358 17.6991 33.3014C17.5487 33.4396 17.4055 33.5708 17.3763 33.6854C17.4134 33.7136 17.4489 33.7438 17.4829 33.7756C16.282 33.4697 15.1265 33.007 14.0463 32.3996V32.3982Z" fill="#CEB052"/>
<path fill-rule="evenodd" clip-rule="evenodd" d="M26.9708 27.5487C26.9708 27.5487 27.3494 27.0439 27.4806 26.7938C27.6116 26.5361 27.0655 23.2721 27.0655 23.2721L28.1627 19.6775L28.1334 18.5076C28.1334 18.5076 28.1868 17.4274 28.3131 16.9589C28.4636 17.2284 28.9321 17.5537 29.034 17.726C29.082 17.3957 29.2451 16.6993 29.2209 15.9565C29.3107 16.0948 29.5267 17.4857 29.5267 17.4857L29.7427 18.4225L30.0243 19.4177L30.3374 20.4687L30.5243 21.1945L30.631 21.3692L30.7209 21.6749L30.8059 22.0052L31.051 22.7794L31.195 23.4153L31.3091 24.5682C31.3339 24.6565 31.3517 24.7466 31.3625 24.8377C31.3673 24.9639 31.3455 25.0367 31.3455 25.0586C31.3455 25.0805 31.3868 25.3353 31.3699 25.5271C31.3455 25.7191 31.3455 25.8693 31.195 26.0071C31.0444 26.1449 30.9499 26.9682 30.9499 26.9682L30.6804 26.7887C30.6804 26.7887 30.7339 26.5434 30.6076 26.3202C30.4814 26.097 30.2363 26.0508 30.0979 26.0873C29.9596 26.1164 29.683 26.1599 29.5931 26.2377C29.5081 26.3153 29.2995 26.5556 29.1076 26.6649C28.8676 26.8089 28.4766 26.8202 28.2679 26.8687C28.0567 26.9167 27.8238 27.0607 27.5785 27.2279C27.3862 27.3524 27.1831 27.4595 26.9718 27.5479L26.9708 27.5487Z" fill="#CCA847"/>
<path fill-rule="evenodd" clip-rule="evenodd" d="M26.9708 32.8521C26.9708 32.8521 26.9868 32.8625 27.0177 32.8794C28.7421 32.0715 30.2872 30.9263 31.5617 29.5114C31.5478 29.0202 31.5297 28.5167 31.5099 28.3302C31.4687 27.9345 31.4979 27.5316 31.4857 27.2986C31.4735 27.0657 31.3425 26.1166 31.2819 25.8714C31.2163 25.6263 31.0899 25.5049 31.0707 25.5049C31.0537 25.5098 30.9516 25.9662 30.9516 26.0809C30.9516 26.1956 30.9273 26.4718 30.9273 26.5422C30.9103 26.5372 30.9031 26.4942 30.9031 26.4766C30.8788 26.5372 30.8497 26.6441 30.8375 26.6562C30.8254 26.6684 30.8545 26.5543 30.8375 26.53C30.8206 26.5057 30.7895 26.5178 30.7963 26.4572C30.7991 26.4212 30.8048 26.3856 30.8132 26.3505C30.8132 26.3505 30.7404 26.4572 30.6871 26.729C30.6337 26.9985 30.6337 27.0058 30.6143 27.03C30.5974 27.0593 30.5003 27.1562 30.4953 27.1927C30.4905 27.2582 30.5852 27.3238 30.5924 27.3601C30.5972 27.4209 30.5075 27.7023 30.4783 27.8401C30.4492 27.9778 30.4614 28.2478 30.4303 28.3862C30.406 28.5124 30.3823 28.5852 30.2993 28.6385C30.3599 28.6506 30.4182 28.6676 30.4182 28.6676C30.4182 28.6676 30.5031 29.0268 30.2871 29.3327C30.2095 29.4394 30.1902 29.4881 30.1076 29.5852C29.9449 29.7647 29.8187 29.9692 29.8065 30.1022C29.7981 30.0629 29.7924 30.0231 29.7895 29.9831C29.7895 29.9831 29.5372 30.2769 29.4303 30.4444C29.2921 30.6604 29.1003 30.6482 29.0463 30.7017C28.9924 30.7551 28.9807 30.8521 28.9983 30.9298C28.9503 30.9418 28.8601 30.959 28.7993 31.1458C28.7702 31.2428 28.6974 31.3378 28.5833 31.4031C28.4692 31.4684 28.3308 31.4881 28.2604 31.505C28.3211 31.522 28.3454 31.522 28.3745 31.5414C28.3382 31.602 28.1707 31.6967 27.9838 31.8182C27.7969 31.9322 27.707 32.0996 27.6609 32.2089C27.6129 32.3108 27.542 32.3764 27.4279 32.3886C27.4759 32.4177 27.547 32.4855 27.5833 32.5074C27.5299 32.5196 27.4393 32.5196 27.2775 32.658C27.1076 32.7988 27.0494 32.8401 26.9716 32.8522L26.9708 32.8521Z" fill="#C39D3C"/>
<path fill-rule="evenodd" clip-rule="evenodd" d="M23.5936 33.9769C23.6865 33.9117 23.7872 33.8584 23.8933 33.818C24.2718 33.6676 24.6723 33.6385 24.8301 33.59C24.9806 33.542 25.0995 33.4758 25.2864 33.4395C25.2814 33.482 25.2773 33.522 25.2728 33.5598C24.7218 33.733 24.1608 33.8723 23.5928 33.9769H23.5936Z" fill="#D2BA6B"/>
<path fill-rule="evenodd" clip-rule="evenodd" d="M30.576 24.0195C30.576 24.0195 30.4984 24.4393 30.36 24.704C30.2215 24.9686 30.0719 25.335 30.0719 25.335C30.0729 25.2525 30.0826 25.1702 30.1011 25.0897C29.9264 25.1917 29.5016 25.4369 29.3811 25.5461C29.267 25.648 29.0752 25.8277 29.0267 25.9126C29.1408 25.5777 29.2596 25.2768 29.2792 25.1384C29.1044 25.2646 28.2888 25.9369 27.8641 26.3811L26.5412 27.4515C26.3886 27.5339 26.2314 27.6075 26.0704 27.672C25.8424 27.7689 25.5729 27.8515 25.3739 27.9293C25.4273 27.7861 25.5121 27.6597 25.6312 27.5384C25.7574 27.4195 26.136 27.0093 26.1942 26.8184C26.2476 26.6193 26.2598 26.5005 26.1894 26.3329C26.1238 26.3499 25.9734 26.3573 25.8715 26.3864C25.7696 26.4155 25.6603 26.5246 25.6603 26.5246C25.6603 26.5246 25.7379 26.0805 25.9054 25.6606C25.7792 25.6654 25.5632 25.7017 25.5632 25.7017C25.5632 25.7017 25.8641 25.1969 26.3792 24.8451C26.2214 24.8787 26.0671 24.9266 25.918 24.9881C25.6171 25.1144 25.287 25.3013 25.0419 25.4032C25.1801 25.2112 26.151 23.8256 26.7288 22.5342C27.3047 21.2454 27.52 20.9153 27.6462 20.2237C27.7116 19.8814 27.6942 19.3757 27.7116 18.9227C27.7286 18.4736 27.7844 18.0707 27.7481 17.8013C27.8985 17.9881 28.4617 18.5149 28.4811 19.6921C28.498 20.8693 27.9424 22.4592 27.3524 23.3158C27.4964 23.3571 27.8696 23.4057 28.2529 22.7398C28.6363 22.0739 28.6316 21.888 28.77 21.6112C28.787 21.7496 28.782 21.7981 28.782 21.7981C28.782 21.7981 29.3404 21.1209 29.6049 20.2689C29.6583 20.6355 29.8161 20.9584 29.5684 21.6307C29.3476 22.2374 29.0588 22.3856 29.0588 22.3856C29.0588 22.3856 29.202 22.3613 29.4131 22.235C29.4496 22.3248 29.4424 22.427 29.503 22.4632C29.5636 22.4993 29.6462 22.5603 29.6583 22.6185C29.7238 22.5214 29.8257 22.3976 29.8574 22.3054C29.8331 22.4974 29.8161 23.3369 29.9054 23.7641C30.0924 23.7472 30.2841 23.735 30.4152 23.3976C30.3254 23.7278 30.3254 23.9267 30.386 24.2083C30.4856 24.1405 30.5753 24.019 30.5753 24.019L30.576 24.0195Z" fill="#C0993A"/>
<path fill-rule="evenodd" clip-rule="evenodd" d="M24.2695 10.6407C24.2695 10.6407 24.0826 10.7183 23.7647 10.7183C23.488 10.7183 23.5656 10.6116 23.1336 10.6116C22.4687 10.6116 20.1458 10.9956 19.7379 10.9901C19.4733 10.9853 20.6311 11.1042 20.6311 11.1042L23.5899 11.1455L24.1845 11.0975L24.4055 10.6479L24.2695 10.6407Z" fill="#A88F33"/>
<path fill-rule="evenodd" clip-rule="evenodd" d="M16.5971 16.4248C16.5971 16.4248 16.2183 16.7136 16.0582 16.9345C15.898 17.1555 15.8131 17.3009 15.631 17.4806C15.6737 17.4823 15.7164 17.4765 15.7572 17.4637C15.7572 17.4637 15.7572 17.5117 15.7281 17.5243C15.7791 17.5186 15.8299 17.5362 15.8663 17.5723C15.8129 17.6014 15.6673 17.7472 15.7814 17.9195C15.8663 18.0505 16.046 18.0625 16.046 18.0625C16.046 18.0625 16.0047 18.1816 16.1771 18.1694C16.5484 18.1525 16.9635 17.9897 17.1551 18.031C17.3471 18.079 17.4563 18.0966 17.5921 18.3321C17.7361 18.5651 17.8615 18.6016 17.8615 18.6016C17.8615 18.6016 17.9465 18.3854 17.9271 18.0627C17.9968 17.8887 18.0354 17.7039 18.0412 17.5166L17.915 16.587L17.3641 15.8904L16.6505 16.2861L16.5971 16.4243V16.4248Z" fill="#E3C571"/>
<path fill-rule="evenodd" clip-rule="evenodd" d="M17.2743 16.2865C17.2743 16.2865 17.3277 16.4127 17.5511 16.4247C17.5268 16.4782 17.5268 16.4855 17.5341 16.5266C17.5389 16.5679 17.5461 16.6286 17.5461 16.6286C17.5707 16.6167 17.5929 16.6004 17.6117 16.5806C17.6239 16.634 17.5996 16.7188 17.6117 16.7796C17.6192 16.8166 17.6314 16.8525 17.6481 16.8863C17.6516 16.878 17.6557 16.87 17.6602 16.8622C17.665 16.85 17.7082 16.9932 17.8277 17.1022C17.8276 17.0854 17.8318 17.0689 17.8397 17.0542C17.8416 17.0846 17.8516 17.114 17.8689 17.1391C17.8599 17.1349 17.8517 17.1291 17.8447 17.1222C17.8447 17.1222 17.8567 17.5062 17.9223 17.7047C17.9333 17.6919 17.943 17.6781 17.9514 17.6634C17.9514 17.6514 17.9466 17.7703 17.9345 17.8554C17.9175 17.9404 17.9297 18.0593 17.9297 18.0593C17.9734 18.0248 18.0215 17.9963 18.0727 17.9743C18.1455 17.945 18.2647 17.8553 18.3373 17.6562C18.3795 17.5435 18.412 17.4274 18.4345 17.3092C18.4579 17.3544 18.4741 17.403 18.4825 17.4532C18.4874 17.5138 18.6015 17.4823 18.6015 17.4823L18.6258 17.2177L18.7698 16.6182L18.9009 16.2468L19.5319 15.2639L20.6721 14.3858L21.6673 14.614L22.5069 13.4732L21.0604 12.6042L19.6914 12.7474L18.449 14.4682L17.454 16.029L17.2743 16.2863L17.2743 16.2865Z" fill="#D8B65B"/>
<path fill-rule="evenodd" clip-rule="evenodd" d="M24.4441 13.7961C24.4441 13.7961 24.3592 13.8131 24.1141 13.9401C23.8689 14.0671 23.699 14.1075 23.6043 14.2943C23.5096 14.4812 23.5024 14.6294 23.5024 14.6294C23.5024 14.6294 23.6699 14.5566 23.767 14.5323C23.8689 14.5081 23.983 14.5153 23.9709 14.5566C23.9592 14.5849 23.943 14.6111 23.9229 14.6342C23.9229 14.6342 24.1149 14.6294 24.1097 14.7241C24.1046 14.8188 24.0734 14.9231 24.0371 14.9692C24.0006 15.0172 23.8502 15.0883 23.8333 15.1441C23.792 15.2582 23.8502 15.263 23.8283 15.3551C23.8113 15.4451 23.7313 15.6198 23.4691 15.9255C23.1997 16.2315 23.0851 16.4475 23.0851 16.4475C23.0851 16.4475 22.9541 16.2023 22.8861 15.9911C22.8381 16.0153 22.5803 16.1585 22.5803 16.1585L21.9832 14.0785L21.9952 13.9401C21.9952 13.9401 22.0486 13.8747 22.0608 13.7532C21.971 13.7241 21.9589 13.6998 21.8398 13.5859C21.7208 13.4719 21.6238 13.3334 21.4249 13.2387C21.3958 13.1852 21.3593 13.1126 21.2137 13.0833C21.0681 13.054 20.9808 13.03 20.9808 13.03C20.9808 13.03 21.0584 13.0007 21.0949 12.9401C21.0049 12.9523 20.9323 12.9814 20.7357 12.9766C20.5366 12.9716 20.5147 12.9644 20.4056 12.9814C20.2965 12.9983 20.1656 13.047 20.1168 12.8795C20.0633 12.8382 19.9493 12.8747 19.8521 13.0177C19.755 13.1607 19.7211 13.275 19.5342 13.3308C19.5211 13.4132 19.4922 13.4923 19.4493 13.5638C19.3958 13.6537 19.3109 13.7435 19.1968 13.8769C19.0171 14.0881 19.0462 14.4351 18.7598 14.6998C18.471 14.9643 18.8078 13.9667 18.8078 13.9667L19.2689 12.8627L20.5821 11.5787L22.6209 11.4404L22.82 12.4964L23.8152 12.8387L24.4438 13.7974L24.4441 13.7961Z" fill="#D3AE4D"/>
<path fill-rule="evenodd" clip-rule="evenodd" d="M24.7671 14.0291L23.9103 12.7938L23.3108 12.3325C23.3108 12.3325 22.8836 11.5463 22.8544 11.5219C22.8301 11.505 22.4272 11.4613 22.17 11.4443L22.218 11.5632C22.2741 11.5815 22.324 11.6151 22.362 11.6603C22.476 11.7914 22.5488 12.0389 22.2892 12.3035C22.3911 12.3399 22.4332 12.3515 22.5221 12.3399C22.4324 12.4467 22.2285 12.6749 22.2164 12.8739C22.2042 13.0365 22.3061 13.085 22.3061 13.085C22.3061 13.085 22.1508 13.2647 22.1436 13.565C22.2169 13.4822 22.2972 13.4059 22.3836 13.3368C22.5632 13.1928 22.8108 13.0309 22.9783 12.929C22.976 12.9717 22.9817 13.0146 22.9952 13.0552C22.9952 13.0552 23.3082 12.7979 23.5712 12.912C23.6901 12.9655 23.6367 13.133 23.6367 13.133C23.6367 13.133 23.7994 13.0723 23.9135 13.1864C24.0276 13.3005 24.1901 13.5941 24.2727 13.7083C24.309 13.7618 24.4037 13.8637 24.5007 14.0213C24.6332 14.2422 24.7438 14.4755 24.8309 14.7179C24.8357 14.6208 24.8552 14.485 25.0229 14.485L24.768 14.0287L24.7671 14.0291Z" fill="#CAA13E"/>
<path fill-rule="evenodd" clip-rule="evenodd" d="M11.9225 17.5388C11.9225 17.5388 11.8618 17.3882 11.9225 17.0946C11.9831 16.801 12.0778 16.6626 12.1093 16.2306C12.1409 15.7986 12.4225 15.2598 12.4225 15.2598L13.2015 14.9055L13.7525 15.0559L13.9151 15.7938L13.2185 16.1778C13.2185 16.1778 13.1821 16.3404 12.9855 16.4714C12.7889 16.6025 12.517 16.7044 12.4516 16.838C12.4125 16.9198 12.3839 17.0063 12.3666 17.0953C12.3666 17.0953 12.1676 17.054 12.0487 17.185C11.9225 17.3186 11.9273 17.4375 11.9225 17.5394V17.5388Z" fill="#F4EFC8"/>
<path fill-rule="evenodd" clip-rule="evenodd" d="M13.4951 17.3423C13.4951 17.3423 13.4295 17.3836 13.3811 17.4863C13.3331 17.4087 13.2183 16.9474 13.2135 16.5324C13.2087 16.1174 13.1839 16.0145 13.2799 15.8714C13.3759 15.7284 13.7524 15.5777 13.699 15.3201C13.6455 15.075 13.4222 14.973 13.1479 15.0434C12.9559 15.0914 12.8131 15.4998 12.614 15.7036C12.4635 15.859 12.2839 15.8346 12.2355 15.9196C12.1699 16.0337 12.2305 16.1478 12.2111 16.2206C12.2062 16.2449 12.1455 16.3759 12.0363 16.5337C11.8155 16.8516 11.4417 17.3007 11.3931 17.7036C11.41 17.4754 11.398 17.4706 11.4587 17.2182L11.4222 17.1575L11.6622 16.3711L11.8175 15.7231L12.1647 14.638L12.7763 13.5289L13.371 12.8638L13.9899 12.905L14.0627 13.8346L14.4171 15.5799L15.1622 16.4974L13.9679 17.301L13.4947 17.3423H13.4951Z" fill="#EBCC73"/>
<path fill-rule="evenodd" clip-rule="evenodd" d="M13.8665 17.6719C13.8665 17.6719 13.7646 17.6962 13.7281 17.6769C13.6917 17.6575 13.6555 17.6356 13.6675 17.6113C13.6795 17.587 13.7451 17.5458 13.7451 17.5263C13.7479 17.4897 13.721 17.4574 13.6845 17.4535C13.6286 17.4463 13.6117 17.4826 13.6117 17.4826C13.6117 17.4826 13.5582 17.4415 13.5147 17.4346C13.5405 17.4315 13.5664 17.4298 13.5923 17.4297C13.5252 17.3993 13.4541 17.3789 13.3811 17.369C13.4417 17.3327 13.5608 17.2258 13.6384 17.2258C13.716 17.2258 13.7646 17.2138 13.7525 17.1726C13.7403 17.1313 13.6797 17.0706 13.6142 17.0463C13.6384 17.0172 13.6555 16.9735 13.5973 16.8543C13.5365 16.7354 13.5608 16.6553 13.5803 16.6263C13.5973 16.5898 13.6579 16.5244 13.687 16.4831C13.7161 16.4418 13.7405 16.386 13.7889 16.3569C13.8133 16.3399 13.8909 16.3089 13.9686 16.2793C14.0536 16.2502 14.124 16.2137 14.1725 16.2502C14.2259 16.2865 14.2016 16.3351 14.2016 16.3351C14.2016 16.3351 14.3691 16.2743 14.5195 16.3521C14.6701 16.4247 15.0366 16.471 15.0366 16.471L15.168 16.7356L14.299 17.4807L13.9398 17.6604L13.867 17.6724L13.8665 17.6719Z" fill="#E5C66B"/>
<path fill-rule="evenodd" clip-rule="evenodd" d="M15.0728 16.454C15.0728 16.454 14.8034 16.6337 14.7427 16.6991C14.7791 16.7041 14.8397 16.7284 14.8154 16.7647C14.7863 16.8011 14.6115 16.9273 14.5144 17.0463C14.4125 17.1652 14.3154 17.3158 14.2815 17.3886C14.2451 17.454 13.9683 17.6459 13.8738 17.67C14.0728 17.67 14.4733 17.4249 14.6237 17.4249C14.6189 17.4977 14.665 17.5803 14.7499 17.5875C14.8349 17.5947 15.08 17.6409 15.4101 17.4371C15.7402 17.238 15.6311 17.0899 15.7693 16.9929C16.0339 16.818 16.1407 16.6627 16.2863 16.5657C16.4319 16.4687 16.5072 16.4467 16.5072 16.4467C16.5072 16.4467 16.512 16.3739 16.5552 16.3812C16.5793 16.384 16.5999 16.3999 16.6087 16.4225C16.6087 16.4225 16.8611 16.2428 17.1847 16.1943C17.1771 16.191 17.1711 16.1849 17.1677 16.1774C17.1677 16.1774 17.1919 16.1652 17.1968 16.1531C17.1968 16.1531 17.2138 16.1287 17.2259 16.1409C17.2381 16.1531 17.2551 16.2428 17.2794 16.2793C17.3328 16.255 17.4347 16.0268 17.4347 16.0268L17.68 15.3254V14.6846L17.488 14.7211L16.048 15.3326L15.1741 16.238L15.0722 16.454H15.0728Z" fill="#E6BD62"/>
<path fill-rule="evenodd" clip-rule="evenodd" d="M19.2184 13.3108C19.2963 13.2919 19.3709 13.2616 19.44 13.2208C19.4109 13.2986 19.4109 13.3836 19.2846 13.568C19.1584 13.7525 19.1536 13.7792 19.0517 13.9709C18.9497 14.17 18.9376 14.4564 18.8405 14.5824C18.884 14.5613 18.9307 14.5474 18.9787 14.5413C18.9787 14.5413 18.8817 14.6263 18.8405 14.716C18.7992 14.8058 18.7264 14.9927 18.5469 15.1069C18.3673 15.2212 18.139 15.2938 17.8939 15.5632C17.6486 15.8277 17.3963 16.1628 17.2699 16.2832C17.3355 16.1692 17.4253 15.941 17.4496 15.7906C17.4739 15.6402 17.4446 15.4604 17.4859 15.2615C17.5272 15.0626 17.5272 14.9192 17.7259 14.572C17.9246 14.2248 18.2648 13.0186 18.2648 13.0186L18.9977 12.7856L19.2187 13.31L19.2184 13.3108Z" fill="#B6933F"/>
<path fill-rule="evenodd" clip-rule="evenodd" d="M18.6892 12.8665C18.6892 12.8665 18.4684 13.1844 18.4078 13.466C18.3472 13.7476 18.4028 13.7233 18.3665 13.8617C18.3448 13.9461 18.3448 14.0346 18.3665 14.119C18.443 13.9958 18.5477 13.8926 18.672 13.8179C18.8808 13.6918 19.0507 13.6019 19.152 13.4951C19.2539 13.3811 19.3388 13.1942 19.5596 13.051C19.4699 13.0388 19.3436 12.9975 19.3196 13.003C19.4096 12.9011 19.6788 12.7457 19.9507 12.5588C20.2201 12.3668 20.2032 12.2894 20.6401 12.0977C20.4969 12.122 20.4289 12.0855 20.3099 12.0977C20.3579 11.9958 20.5259 11.9471 20.6939 11.7798C20.8619 11.6124 20.5872 11.3647 20.5872 11.3647L19.3072 12.139L18.6883 12.8671L18.6892 12.8665Z" fill="#C49937"/>
<path fill-rule="evenodd" clip-rule="evenodd" d="M15.2159 12.2887L15.2451 12.0557L15.6116 11.4684L15.9951 10.4369V9.02661L15.966 8.21109L16.0267 7.67701L16.0727 7.50725L16.1214 7.44165L16.4343 7.60421L16.8665 8.19157L16.9078 9.32517L16.4878 11.114L15.2887 12.4223L15.2159 12.2887Z" fill="#DFC068"/>
<path fill-rule="evenodd" clip-rule="evenodd" d="M16.1699 7.37613C16.1699 7.37613 15.9779 7.38109 15.9369 8.17965C15.896 8.97821 15.8761 9.39805 15.847 9.79373C15.8179 10.1894 15.7501 10.4296 15.716 10.6627C15.6819 10.8958 15.6625 11.2136 15.5534 11.4078C15.5054 11.4976 15.4029 11.7792 15.1625 11.9904C14.8931 12.2233 14.4905 12.3861 14.4296 12.3982C14.3227 12.4224 13.7814 12.4758 13.5606 12.5973C13.483 12.6385 13.3494 12.687 13.2014 12.8254C12.9077 13.0899 12.5169 13.5632 12.2353 14.1336C11.8033 14.9856 11.3713 17.3909 11.3713 17.3909L11.4685 17.2283C11.4685 17.2283 11.4806 17.0123 11.6966 16.6336C11.9078 16.255 11.8472 15.8302 12.1408 15.1045C12.2549 14.8278 12.3981 14.4686 12.5728 14.1627C12.8496 13.6651 13.1845 13.2379 13.5219 13.0049C14.0728 12.6264 14.6797 12.5438 14.6797 12.5438L15.3326 12.1118C15.3326 12.1118 15.4467 11.891 15.5973 11.6385C15.8083 11.2843 16.0773 10.8886 16.136 10.3134C16.2259 9.46141 16.0097 8.90317 16.0219 8.39837C16.0341 7.89357 16.0389 7.52221 16.1409 7.43229C16.243 7.34237 16.1701 7.37645 16.1701 7.37645L16.1699 7.37613Z" fill="#A88F33"/>
<path fill-rule="evenodd" clip-rule="evenodd" d="M16.1699 11.1868C16.1699 11.1868 16.4579 10.478 16.5897 9.84938C16.614 9.72314 16.6625 9.59706 16.6747 9.49514C16.7353 8.90042 16.7523 8.6553 16.6747 8.33002C16.614 8.09002 16.3811 7.8737 16.2596 7.70602C16.1408 7.53114 16.0849 7.46602 16.1092 7.42922C16.1336 7.39242 16.2281 7.33226 16.3203 7.33946C16.5183 7.34522 16.7052 7.43198 16.8374 7.57946C17.0243 7.79546 17.1723 8.52858 17.1723 8.52858L17.328 9.49594L17.7236 10.7143L16.1702 11.1878L16.1699 11.1868Z" fill="#C99E3D"/>
<path fill-rule="evenodd" clip-rule="evenodd" d="M18.8761 10.4491C18.8761 10.4491 18.8227 10.4733 18.7257 10.4491C18.7341 10.5299 18.6966 10.6086 18.6286 10.653C18.5267 10.6117 17.5726 10.6943 17.5726 10.6943C17.5726 10.6943 17.1284 10.6165 16.99 10.0291C16.8931 9.63825 17.0628 9.09953 17.007 8.74513C16.922 8.22321 16.8032 8.12113 16.791 7.95873C16.7788 7.79633 16.7667 7.75489 16.7667 7.65297C16.7132 7.64081 16.6817 7.62385 16.6284 7.62385C16.6163 7.57585 16.6404 7.53393 16.5872 7.44897C16.6163 7.46113 16.8153 7.48545 17.0483 7.70625C17.2403 7.88593 17.2403 7.95137 17.2692 7.98785C17.3056 8.02417 17.5993 8.27585 17.7256 8.52673C17.8518 8.77761 18.0969 9.57761 18.1528 9.70865C18.1697 9.76209 18.2062 9.81553 18.2968 9.93681C18.4376 10.1117 18.6438 10.4008 18.8768 10.4488L18.8761 10.4491Z" fill="#B58634"/>
<path fill-rule="evenodd" clip-rule="evenodd" d="M17.3035 8C17.4505 8.23752 17.5826 8.48397 17.699 8.73792C17.8422 9.06064 17.9271 9.32528 18.1068 9.54128C18.0097 9.25984 17.8374 8.7064 17.7355 8.50976C17.6214 8.30176 17.3884 8.07776 17.3035 8.00016V8Z" fill="#A88F33"/>
<path fill-rule="evenodd" clip-rule="evenodd" d="M15.6529 11.9904C15.6529 11.9904 15.4078 12.051 14.9515 12.2914C14.8009 12.369 14.6579 12.4344 14.5195 12.4952C14.16 12.6578 13.7744 12.808 13.4684 12.8909C13.4928 12.92 13.5048 12.932 13.5048 12.932C13.5048 12.932 13.5048 13.051 13.5704 13.1189C13.534 13.1554 13.0484 13.4854 13.1918 14.5898C13.2888 14.5534 13.4028 14.5048 13.4198 14.5048C13.4491 14.5098 13.4563 14.5898 13.4926 14.5898C13.5289 14.5898 13.648 14.5418 13.7742 14.3786C13.7694 14.4442 13.6966 15.1043 14.0873 15.5485C14.1601 15.4635 14.3446 15.1819 14.3446 15.1819L14.3494 15.0922C14.3494 15.0922 14.3664 14.779 14.4684 14.4926C14.5705 14.2062 14.7694 13.995 14.7694 13.995L15.808 12.512L15.6526 11.9902L15.6529 11.9904Z" fill="#E6C367"/>
<path fill-rule="evenodd" clip-rule="evenodd" d="M14.6821 14.1679C14.6345 14.2015 14.5821 14.2277 14.5267 14.2455C14.5097 14.1849 14.4854 13.9761 14.6286 13.7722C14.7961 13.527 15.1625 13.209 15.2645 12.9562C15.3301 12.7935 15.3009 12.3858 15.8835 11.8639C16.4661 11.342 16.6941 11.1625 16.6941 11.1625L17.6358 10.6892L18.7936 11.1455L18.2184 13.3999L17.7718 14.4559L15.9958 14.121L14.6819 14.1679H14.6821Z" fill="#DCBA5A"/>
<path fill-rule="evenodd" clip-rule="evenodd" d="M15.36 13.5558L15.5809 13.2791V13.0825C15.5809 13.0825 15.8261 13.0169 16.0905 12.7475C16.355 12.478 16.7216 11.9611 17.0445 11.9926C17.3673 12.0291 17.3989 12.694 17.411 12.8811C17.4232 13.0681 17.4645 13.4926 17.5299 13.7209C17.6027 13.9491 16.7435 14.8131 16.7435 14.8131L16.16 15.2572L15.36 13.5558Z" fill="#E9CE77"/>
<path fill-rule="evenodd" clip-rule="evenodd" d="M16.0437 15.8591C16.0437 15.8591 16.2234 15.5775 16.0917 15.5169C16.1693 15.3422 16.3125 15.1577 16.3125 15.1577C16.3125 15.1577 16.4144 14.9054 16.7445 14.5947C17.0746 14.2839 17.2786 14.0775 17.332 13.8689C17.365 13.7329 17.3829 13.5937 17.3855 13.4539C17.4211 13.483 17.4593 13.509 17.4995 13.5315C17.553 13.5558 17.8053 13.7644 17.769 14.1844C17.7327 14.6044 17.577 14.7791 17.577 14.7791C17.577 14.7791 17.4266 14.9295 17.3199 15.0073C17.2056 15.0849 17.1645 15.1747 16.9727 15.182C16.9924 15.1663 17.0145 15.154 17.0383 15.1455C17.0383 15.1455 16.8392 15.1214 16.7323 15.2183C16.6255 15.3153 16.3983 15.614 16.2842 15.7039C16.1701 15.7767 16.0442 15.8593 16.0442 15.8593L16.0437 15.8591Z" fill="#CDAE50"/>
<path fill-rule="evenodd" clip-rule="evenodd" d="M24.114 11.1382C23.8273 11.0337 23.5259 10.9748 23.2209 10.9635C22.7111 10.9466 21.966 10.9757 21.2355 10.9805C20.4491 10.9853 19.7355 10.711 18.7452 10.6626C18.5827 10.5654 18.1692 10.1406 16.8787 11.0411C16.9563 11.0363 17.8156 10.8421 18.114 11.216C18.415 11.5874 18.33 12.2184 18.2889 12.3688C18.2111 12.7038 17.9587 13.1917 17.8569 13.5339C17.7551 13.8762 17.7791 14.056 17.7063 14.296C17.6335 14.536 17.4734 14.6552 17.5679 14.9318C17.6942 14.8542 17.7599 14.8542 17.9708 14.381C18.1817 13.9077 18.1383 13.5702 18.4879 13.1698C18.8302 12.7669 19.3999 12.2158 19.6166 12.0774C19.8332 11.939 21.5534 11.0459 23.3545 11.8979C23.7889 11.8518 24.1142 11.1381 24.1142 11.1381L24.114 11.1382Z" fill="#D2A83E"/>
<path fill-rule="evenodd" clip-rule="evenodd" d="M17.6043 10.808C17.6025 10.7898 17.5985 10.7718 17.5923 10.7546C17.5755 10.7191 17.5534 10.6863 17.5267 10.6575C17.5267 10.6575 17.0995 10.5799 16.8835 10.604C16.5048 10.6453 16.1626 11.1138 16.0024 11.3541C15.8422 11.5944 15.6432 11.9656 15.4272 12.1575C15.4296 12.1388 15.4253 12.1199 15.415 12.104C15.415 12.104 15.4272 12.121 15.403 12.1453C15.3789 12.1696 15.3787 12.1816 15.3909 12.1933L15.4274 12.2296C15.4394 12.2296 15.7744 12.0791 16.2307 11.6536C16.7162 11.2095 17.0875 10.9816 17.2818 10.9035C17.3853 10.8595 17.4936 10.8275 17.6045 10.808H17.6043Z" fill="#C29637"/>
<path fill-rule="evenodd" clip-rule="evenodd" d="M25.8909 8.98315C25.8909 8.98315 25.8132 9.08011 25.716 9.18699C25.5 9.41515 25.2184 9.67227 24.9781 9.93691C24.7501 10.1894 24.4928 10.386 24.2039 10.7161C23.9149 11.0462 23.5799 11.4126 23.4951 11.5195C23.4175 11.6264 23.3568 11.8011 23.3568 11.8908C23.3156 11.8617 23.2671 11.8302 23.2671 11.8302C23.2875 11.8683 23.3119 11.9041 23.3399 11.9371C23.4005 12.022 23.4951 12.1291 23.5437 12.1944C23.6034 12.2775 23.6462 12.3714 23.6698 12.471C23.6989 12.4758 23.8858 12.5123 24.1189 12.1288C24.352 11.7452 24.6576 11.3254 24.6576 11.3254L25.1431 10.6044L25.449 9.99291L25.833 9.30843L25.8914 8.98315H25.8909Z" fill="#AC8132"/>
<path fill-rule="evenodd" clip-rule="evenodd" d="M26.3885 8.49292C26.3885 8.49292 26.0948 8.73292 25.9807 8.87692C25.8666 9.02092 25.5967 9.39884 25.5967 9.39884L25.6938 9.38668L26.1866 8.94988L26.3786 8.60764L26.3884 8.49356L26.3885 8.49292Z" fill="#A88F33"/>
<path fill-rule="evenodd" clip-rule="evenodd" d="M26.2985 27.7815C26.2985 27.7815 26.2937 27.5825 26.4054 27.4636C26.5195 27.3446 26.8083 27.1699 27.0899 26.5145C27.3715 25.8591 27.4028 25.7111 27.4028 25.7111C27.4028 25.7111 26.898 26.1431 26.5868 26.2451C26.6596 26.0945 26.7009 25.9878 26.7374 25.91C26.6961 25.8737 26.5214 25.8324 26.5044 25.8131C26.6014 25.7159 26.6548 25.478 26.8515 25.3203C27.104 25.1283 27.5651 24.7983 27.9235 24.5043C28.2819 24.2102 28.9865 23.5262 29.0764 23.3271C29.1299 23.4047 29.1419 23.4532 29.1419 23.4532C29.1419 23.4532 28.7876 23.9145 28.6032 24.2081C28.4404 24.4606 28.4526 24.6038 28.4526 24.6038L28.7876 24.4598C28.7876 24.4598 28.8846 24.819 28.4454 25.3652C28.6374 25.2924 28.7148 25.3361 28.824 25.2753C28.6443 25.3895 28.3968 25.5449 28.1638 25.9719C27.9356 26.3991 27.6249 26.8967 27.1008 27.2073C26.591 27.535 26.2972 27.7801 26.2972 27.7801L26.2985 27.7815Z" fill="#A67A2E"/>
<path fill-rule="evenodd" clip-rule="evenodd" d="M24.9831 11.3909C24.9831 11.3909 24.7841 11.8058 24.7549 12.1287C24.7501 12.2065 24.7306 12.2671 24.7306 12.3569C24.7258 12.6457 24.7476 12.9685 24.6826 13.1189C24.6583 13.0583 24.6461 13.017 24.6218 12.9929C24.5855 13.0948 24.5199 13.4127 24.4665 13.5316C24.4423 13.454 24.3889 13.1845 24.3938 12.8666C24.3988 12.5487 24.4058 12.4879 24.4058 12.4225C24.3938 12.5194 24.3282 12.6506 24.3039 12.7282C24.2676 12.6628 24.2263 12.5778 24.1777 12.5074C24.1485 12.5554 24.1122 12.6263 24.0807 12.6628C24.0757 12.6337 24.0637 12.5559 24.0564 12.4468C24.0516 12.3205 24.0442 12.158 24.0516 12.1239C24.0636 12.0585 24.1657 11.8012 24.3817 11.5657C24.6389 11.2841 24.9036 10.7429 24.9812 10.5754C25.0588 10.4079 25.3889 9.71143 25.3889 9.71143H25.6413L25.2748 10.5463C25.2748 10.5463 25.054 11.0026 24.9399 11.1703C24.8258 11.338 24.5855 11.8185 24.4786 12.0053C24.5562 11.9034 24.6218 11.85 24.6996 11.7529C24.7748 11.6849 24.9834 11.3913 24.9834 11.3913L24.9831 11.3909Z" fill="#8C6228"/>
<path fill-rule="evenodd" clip-rule="evenodd" d="M26.3932 8.46118C26.352 8.58811 26.2868 8.70597 26.2012 8.80838C26.0507 8.98806 25.7278 9.22822 25.5702 9.4199C25.4262 9.60678 25.1382 10.1165 25.2691 10.7209C25.3171 10.5898 25.4075 10.3301 25.6478 10.0364C25.8881 9.74262 26.1454 9.40534 26.2718 9.14326C26.3979 8.87862 26.4148 8.66998 26.4148 8.66998L26.4628 8.60934L26.4337 8.47094L26.3924 8.46118L26.3932 8.46118Z" fill="#CBA94C"/>
<path fill-rule="evenodd" clip-rule="evenodd" d="M31.3084 24.5606C31.3084 24.5606 31.2112 24.2962 31.1821 24.0558C31.153 23.8155 31.2301 23.7678 31.1408 23.4928C31.0874 23.3253 30.9904 23.3488 30.9661 23.3253C30.9418 23.3017 30.9248 23.0486 30.9296 22.9102C30.9344 22.7718 30.9248 22.5923 30.9005 22.5146C30.8642 22.4854 30.8399 22.4611 30.7864 22.2816C30.7258 22.1019 30.6967 22.0121 30.6676 21.9589C30.6384 21.9056 30.5533 21.8569 30.5533 21.8035C30.5533 21.6966 30.6504 21.641 30.6504 21.6115C30.6456 21.5509 30.5728 21.5995 30.5533 21.5824C30.5292 21.5533 30.6141 21.3785 30.5826 21.3542C30.5704 21.3422 30.4855 21.4441 30.4636 21.415C30.4392 21.3857 30.4101 21.0969 30.3664 20.9053C30.3253 20.7184 30.2815 20.5826 30.2767 20.5267C30.2719 20.4733 29.9416 19.5315 29.8616 19.3033C29.7972 19.1106 29.7429 18.9145 29.6991 18.716C29.6748 18.6019 29.6578 18.3688 29.6456 18.3931C29.6335 18.4174 29.6408 18.5363 29.6213 18.5315C29.6044 18.5265 29.5437 18.1117 29.5244 18.0461C29.5074 17.9805 29.4053 17.7581 29.3804 17.5971C29.356 17.4344 29.3028 17.0096 29.2663 16.7208C29.2298 16.432 29.2128 16.3131 29.2128 16.2408C29.2188 16.0639 29.2091 15.8868 29.1837 15.7117C29.1357 15.4057 29.0397 15.0344 28.9556 14.8185C28.793 14.4107 28.3608 13.367 28.2836 13.1073C28.2836 13.0417 28.3685 13.0782 28.3685 13.0782C28.3685 13.0782 28.5796 13.6073 28.7349 14.015C28.8855 14.4229 29.0287 14.7821 29.0652 14.8185C29.0943 14.8549 29.3224 15.2553 29.4244 15.9107C29.5263 16.5661 29.5626 17.1704 29.6234 17.5733C29.6525 17.7653 29.6768 17.969 29.7375 18.1728C29.8029 18.3938 29.9048 18.6219 30.0384 18.9713C30.1525 19.2651 30.2375 19.5102 30.2836 19.7214C30.337 19.9909 30.337 20.1947 30.3685 20.3283C30.3978 20.4424 30.4413 20.6704 30.5434 21.0003C30.6455 21.3302 30.7957 21.7552 30.8976 22.0197C31.0968 22.5488 31.1856 22.9905 31.2157 23.2261C31.2423 23.4688 31.3322 24.3086 31.3079 24.561L31.3084 24.5606Z" fill="#A88F33"/>
<path fill-rule="evenodd" clip-rule="evenodd" d="M26.4054 8.43196L26.3933 8.46108C26.3933 8.46108 26.4296 8.47324 26.4224 8.52188C26.4229 8.58843 26.4188 8.65493 26.4102 8.72092C26.3982 8.80588 26.3739 8.87132 26.3691 8.92476C26.3691 9.03884 26.3861 9.16988 26.2251 9.49516C26.1771 9.58492 26.1475 9.66252 26.1232 9.71596C26.0625 9.847 26.0504 9.86652 25.9969 9.92716C26.0819 9.87916 26.3878 9.68716 26.543 9.71596C26.4363 9.7766 26.2736 9.89564 26.1717 10.051C26.196 10.0558 26.2979 10.0753 26.4597 10.051C26.7291 10.0097 27.0301 9.9126 27.2945 9.93196C27.5835 9.94892 27.4694 9.58492 27.4694 9.58492L27.136 8.85196L26.5049 8.40796L26.4054 8.43212V8.43196Z" fill="#BE9C44"/>
<path fill-rule="evenodd" clip-rule="evenodd" d="M28.051 13.9223C28.051 13.9223 27.7694 13.6407 27.6554 12.6743C27.5413 11.7034 27.5656 10.2743 27.5656 10.2743L27.3374 9.71606C27.3374 9.71606 27.2894 9.3447 27.1699 9.20646C27.0504 9.06822 26.8157 8.8351 26.7088 8.72102C26.6019 8.60694 26.4806 8.45158 26.4078 8.42726C26.4442 8.36662 26.6069 8.02438 27.2306 8.01958C27.8542 8.01478 28.0466 8.36182 28.1117 8.48806C28.1768 8.6143 28.4709 9.16006 28.58 10.2001C28.6819 11.2388 28.6869 11.3165 28.6699 11.6757C28.6578 11.8748 28.5922 12.3359 28.4779 12.8285C28.3736 13.2461 28.2595 13.7122 28.0507 13.9233L28.051 13.9223Z" fill="#A17C34"/>
<path fill-rule="evenodd" clip-rule="evenodd" d="M27.168 14.7502C27.2619 14.757 27.3556 14.7358 27.4375 14.6894C27.5272 14.6846 27.8525 14.7259 28.1024 14.408C28.1194 14.4806 28.1632 14.6774 28.049 14.8521C28.1098 14.7913 28.1995 14.7672 28.2117 14.7502C28.2165 14.84 28.3015 15.1166 27.9423 15.7889C28.0392 15.6822 28.1533 15.687 28.2552 15.6748C28.2602 15.8011 28.328 16.2257 28.1485 16.454C28.0296 16.6094 27.8354 16.5608 27.8354 16.5608C27.8382 16.5268 27.8382 16.4928 27.8354 16.4588C27.8306 16.3932 27.8063 16.3278 27.8234 16.2841C27.7295 16.2412 27.644 16.182 27.5709 16.1092C27.3597 15.9102 27.0855 15.5705 27.0661 15.318C27.0418 15.0364 27.2943 14.9758 27.2943 14.9758C27.2731 14.9569 27.2551 14.9347 27.2408 14.9102C27.2287 14.8691 27.2165 14.8035 27.168 14.7502Z" fill="#8C6228"/>
<path fill-rule="evenodd" clip-rule="evenodd" d="M25.296 11.6967C25.296 11.6967 25.2838 11.6797 25.2184 11.7573C25.2305 11.6797 25.2427 11.6067 25.2475 11.5363C25.2785 11.4712 25.3186 11.4107 25.3665 11.3568C25.3301 11.4295 25.3057 11.4951 25.3057 11.4951C25.3057 11.4951 25.3957 11.3275 25.5267 11.2256C25.6165 11.1528 25.7305 11.1189 25.779 11.0509C25.8325 10.9781 25.8203 10.9659 25.8325 10.9538C25.8325 10.9538 25.9515 10.8762 26.1336 10.6479C26.1577 10.6187 26.1942 10.5872 26.2185 10.5581C26.2597 10.5411 26.3568 10.4975 26.4709 10.4391C26.5899 10.3736 26.7233 10.2839 26.8059 10.2471C26.9685 10.1743 27.1409 10.1816 27.2209 10.0674C27.2816 10.0504 27.347 9.86833 27.335 9.71313C27.4248 9.74945 27.8859 10.0359 28.0438 10.6621C28.1579 11.1063 27.9539 11.7907 27.8689 12.121C27.784 12.4512 27.772 12.6962 27.6529 12.8466C27.5024 13.0458 27.0171 13.3266 26.8981 13.4656C26.7961 13.5797 26.4904 13.8685 26.5024 14.0771C26.5145 14.2325 26.7062 14.3171 26.7477 14.3466C26.7891 14.376 26.7888 14.4122 26.8665 14.3946C26.9443 14.377 26.9733 14.3411 27.0049 14.3411C27.0413 14.3459 27.0413 14.3533 27.0582 14.3533C27.0705 14.3529 27.0828 14.3513 27.0947 14.3483C27.0947 14.3483 27.0825 14.5693 26.5656 14.6363C26.5291 14.6413 26.4928 14.6533 26.4465 14.6607C26.5073 14.6315 26.5437 14.6315 26.6093 14.5418C26.5365 14.5296 26.3277 14.5175 26.2742 14.5005C26.2912 14.4714 26.347 14.3936 26.3931 14.3573C26.4344 14.321 26.3883 14.3093 26.352 14.3282C26.2895 14.3707 26.2295 14.4169 26.1723 14.4664C26.1117 14.5199 26.0582 14.5927 25.9611 14.6584C25.932 14.5613 25.9368 14.3768 26.051 14.2434C26.0217 14.2482 25.9659 14.3331 25.9126 14.3162C25.903 14.2276 25.9087 14.1381 25.9296 14.0515C25.9587 13.9423 26.1165 13.7506 26.1165 13.7506L26.8785 12.3888L27.0411 11.3573L25.296 11.6963V11.6967Z" fill="#92723A"/>
<path fill-rule="evenodd" clip-rule="evenodd" d="M25.2549 11.7549C25.2549 11.7549 25.2136 11.784 25.2962 11.8399C25.284 11.8568 25.2549 11.9175 25.2184 11.9587C25.1773 12.0067 25.1335 12.0365 25.1165 12.0778C25.0802 12.1627 25.0511 12.221 25.0511 12.2575C25.0511 12.2939 25.0389 12.5269 24.937 12.6773C24.9005 12.7307 24.8592 12.8205 24.8301 12.8811C24.7695 12.9879 24.716 13.0731 24.7039 13.1211C24.6797 13.2061 24.6627 13.4391 24.6627 13.4391C24.6627 13.4391 24.7162 13.3735 24.7355 13.3493C24.7063 13.4099 24.6747 13.4754 24.6287 13.524C24.6578 13.4997 24.7427 13.4391 24.8859 13.3128C25.085 13.1455 25.3957 12.8639 25.7744 12.6408C25.6602 12.6821 25.5632 12.6821 25.4856 12.6943C25.5463 12.6336 26.0923 11.9928 26.3787 11.9322C26.3961 11.9101 26.4048 11.8824 26.4031 11.8544L26.1578 11.8303L25.6602 11.937L25.5875 11.553L25.2549 11.7544V11.7549Z" fill="#B18E3E"/>
<path fill-rule="evenodd" clip-rule="evenodd" d="M26.0463 13.9393C26.0463 13.9393 25.9807 14.0047 25.92 14.1675C25.8733 14.1187 25.8333 14.064 25.801 14.0047C25.7112 13.8543 25.573 13.6625 25.2501 13.7718C25.2453 13.6699 25.238 13.6164 25.2501 13.5436C25.3036 13.5316 25.4661 13.4006 25.6287 13.2087C25.7429 13.0777 25.8496 12.9271 25.9224 12.7355C25.9704 12.699 26.0535 12.6383 26.1624 12.5679C26.3178 12.4612 26.5047 12.3155 26.5338 12.1529C26.461 12.182 26.3056 12.2548 26.0725 12.2428C26.1624 12.2015 26.3007 12.1579 26.2837 11.9782C26.3202 11.9539 26.3493 11.9369 26.3493 11.9369C26.322 11.9278 26.2932 11.9237 26.2644 11.9247C26.2594 11.9078 26.2522 11.8836 26.2109 11.8956C26.1696 11.9076 26.1629 11.9078 26.1575 11.9247C26.1405 11.9297 26.0847 11.9247 26.0434 11.954C26.0021 11.9833 25.888 12.0801 25.8444 12.0971C25.8613 12.0679 25.8855 12.0244 25.8855 12.0244C25.8855 12.0244 25.7666 12.0364 25.6816 12.0724C25.5263 12.1259 25.3468 12.223 25.1647 12.3175C25.1816 12.2884 25.189 12.2695 25.201 12.2641C25.213 12.2587 25.2423 12.2521 25.2423 12.2471C25.2423 12.2422 25.2303 12.1991 25.2375 12.1817C25.2919 12.0664 25.3561 11.956 25.4295 11.8516C25.5144 11.7374 25.5314 11.5748 25.5314 11.5748L25.9028 11.3879L26.9464 11.1479L27.6237 11.1892L27.5388 11.6577L27.1388 12.4756L26.7965 13.2207L26.4056 13.6772L26.0464 13.9393H26.0463Z" fill="#543E26"/>
<path fill-rule="evenodd" clip-rule="evenodd" d="M27.738 11.9119C27.738 11.9119 27.3301 12.4167 27.216 12.4944C27.2888 12.3391 27.738 11.4143 27.9005 11.157C27.8642 11.1279 27.8156 11.1279 27.9296 10.677C27.8327 10.905 27.7986 11.024 27.7186 11.0847C27.6386 11.1453 27.6287 11.126 27.5746 11.126C27.5848 11.1075 27.589 11.0863 27.5866 11.0653C27.5866 11.0653 27.2444 11.024 27.0106 11.024C26.7768 11.024 26.3141 11.1503 26.0567 11.2522C25.8528 11.3372 25.7388 11.3372 25.666 11.3904C25.5932 11.4511 25.5519 11.5167 25.5154 11.5336C25.4863 11.5506 25.348 11.5943 25.3164 11.6404C25.2872 11.6884 25.2388 11.7423 25.2388 11.7544C25.2388 11.7666 25.2266 11.7837 25.2631 11.7714C25.2751 11.7666 25.365 11.718 25.4669 11.6573C25.6052 11.5797 25.7727 11.49 25.8941 11.4365C26.2412 11.2981 26.3504 11.3224 26.5056 11.2933C26.6682 11.2642 26.9013 11.1962 27.0565 11.1962C27.2119 11.1914 27.5056 11.1962 27.5736 11.2084C27.5445 11.2327 27.5202 11.2618 27.5324 11.3637C27.5324 11.3928 27.508 11.4244 27.4844 11.4948C27.4117 11.6938 27.2733 12.0239 27.1964 12.1914C27.0896 12.4194 26.9684 12.6112 26.9084 12.7301C26.8484 12.849 26.7164 13.1621 26.5856 13.3296C26.4549 13.4972 26.3866 13.5991 26.3456 13.6356C26.3047 13.672 26.0106 13.8879 26.0325 13.9656C26.086 13.9487 26.4234 13.8216 26.6684 13.5458C26.9133 13.27 26.9621 13.1016 27.1538 12.9511C27.3455 12.8005 27.496 12.5482 27.5858 12.3396C27.661 12.1453 27.644 12.0847 27.7386 11.9124L27.738 11.9119Z" fill="#806031"/>
<path fill-rule="evenodd" clip-rule="evenodd" d="M18.9492 15.6796C18.9492 15.6796 18.8957 15.9004 18.7743 16.0097C18.6554 16.1165 18.4442 16.2087 18.4201 16.3884C18.3909 16.5679 18.6313 16.6578 18.6313 16.6578C18.6313 16.6578 18.5001 16.8738 18.5001 17.0364C18.5001 17.2039 18.4953 17.2354 18.5122 17.3956C18.493 17.408 18.4766 17.4243 18.4642 17.4436C18.4642 17.4436 18.4762 17.5989 18.5953 17.6959C18.7143 17.7929 18.8161 17.8513 18.8767 17.8269C18.886 17.8467 18.8941 17.867 18.901 17.8877C18.901 17.8877 18.9909 17.6596 19.0516 17.4605C19.1122 17.2567 19.1657 17.2857 19.1898 17.0114C19.214 16.7372 19.4778 16.2663 19.4778 16.2663L19.6578 15.8639L19.3642 15.6357L18.9492 15.6794V15.6796Z" fill="#B6903C"/>
<path fill-rule="evenodd" clip-rule="evenodd" d="M19.4952 16.0752C19.4347 16.1373 19.3788 16.2039 19.328 16.2742C19.2504 16.3811 19.1898 16.4781 19.0757 16.5195C18.9616 16.561 18.8888 16.5606 18.896 16.6749C18.9032 16.7891 19.0101 16.8374 19.0707 16.8957C19.1363 16.9563 19.1898 17.0582 19.1606 17.1725C19.197 17.1555 19.2626 17.136 19.3232 17.005C19.3838 16.8739 19.808 16.0754 19.808 16.0754H19.4952V16.0752Z" fill="#685026"/>
<path fill-rule="evenodd" clip-rule="evenodd" d="M21.1681 14.2329C21.1681 14.2329 21.2044 14.1359 21.1681 14.0655C21.1316 13.9927 20.9108 13.9684 20.8015 13.8859C20.6874 13.8009 20.549 13.7419 20.4349 13.7791C20.4519 13.7379 20.5199 13.6479 20.4641 13.6286C20.4106 13.6116 20.2117 13.7014 20.1583 13.7427C20.1049 13.7839 19.9834 13.8324 19.9593 13.8617C19.9351 13.891 19.8937 13.9467 19.8693 13.9223C19.845 13.9054 19.833 13.8617 19.7917 13.8859C19.7505 13.91 19.5517 14.0727 19.5151 14.1675C19.4785 14.2622 19.3961 14.4734 19.1485 14.7135C18.901 14.9537 18.7941 15.1092 18.8669 15.199C18.9397 15.2887 18.9738 15.2233 18.986 15.3009C18.9953 15.3771 18.9912 15.4543 18.9738 15.5291C18.9447 15.6553 18.8962 15.7742 18.9617 15.7985C19.1292 15.8519 19.2919 15.7505 19.3282 15.7815C19.401 15.847 19.2869 16.0825 19.4593 16.1286C19.6341 16.1766 19.8065 16.0873 19.8065 16.0873L20.4423 15.7451L21.054 15.4223L21.3669 14.8033L21.1991 14.2863L21.1671 14.2329H21.1681Z" fill="#D4B968"/>
<path fill-rule="evenodd" clip-rule="evenodd" d="M20.568 15.7112C20.568 15.7112 20.4611 15.5487 20.5923 15.4053C20.7235 15.2619 20.9103 15.2015 20.9831 15.1117C20.9692 15.0946 20.9506 15.082 20.9296 15.0754C20.9779 14.9889 21.0517 14.9194 21.1408 14.8762C21.1045 14.8399 21.0559 14.8107 21.0026 14.8107C20.8835 14.8107 20.8106 14.8835 20.7015 14.8835C20.5947 14.8835 20.5826 14.8301 20.5826 14.8301C20.5826 14.8301 20.7623 14.8131 20.7451 14.733C20.7282 14.648 20.6971 14.648 20.6971 14.648C20.6971 14.648 21.0442 14.504 21.1048 14.4272C21.1655 14.3504 21.1583 14.2597 21.1704 14.2234C21.2115 14.2234 21.4519 14.0971 21.549 14.1506C21.6461 14.204 21.5781 14.3496 21.5781 14.3496C21.5781 14.3496 21.872 14.1287 22.0218 13.912C22.1528 13.9242 22.2138 13.8223 22.3098 13.8223C22.4288 13.8223 22.6157 13.9848 22.652 14.3319C22.6763 14.5309 22.7127 14.645 22.6763 14.997C22.6594 15.196 22.6642 15.621 22.7243 15.8319C22.7655 15.9994 22.8626 15.9824 22.8626 15.9824C22.8477 16.0335 22.8181 16.079 22.7776 16.1135C22.712 16.1741 22.7048 16.3344 22.712 16.3951C22.7217 16.4394 22.7339 16.4832 22.7485 16.5261C22.7485 16.5261 22.6709 16.6159 22.6514 16.6767C22.6344 16.7373 22.5544 16.7786 22.496 16.7786C22.4376 16.7786 22.4669 16.7736 22.3893 16.7786C22.3117 16.7835 22.2874 16.7955 22.2387 16.7786C22.1901 16.7616 22.1538 16.7421 22.1733 16.5866C22.1903 16.4312 21.5738 16.0696 21.5738 16.0696L20.5658 15.7104L20.568 15.7112Z" fill="#CCA849"/>
<path fill-rule="evenodd" clip-rule="evenodd" d="M19.4102 17.2451C19.4102 17.2451 19.631 17.5388 20.5389 17.5388C20.9709 17.5388 21.1214 17.4975 21.2109 17.4732C21.308 17.4489 21.672 17.3059 22.0385 16.8737C22.3686 16.483 22.2958 16.3228 22.2958 16.3228L22.1038 16.2937L21.4798 16.3787L19.6334 17.1651L19.4094 17.2451H19.4102Z" fill="#585136"/>
<path fill-rule="evenodd" clip-rule="evenodd" d="M20.0873 17.3179C20.0873 17.3179 19.3009 17.4928 19.3009 16.9952C19.3009 16.5098 19.7863 16 19.9078 15.9103C20.034 15.8203 20.335 15.7183 20.335 15.7183H21.0607L21.199 16.0848L21.1383 16.876L20.0873 17.3178V17.3179Z" fill="#252211"/>
<path fill-rule="evenodd" clip-rule="evenodd" d="M20.8131 15.8666C20.8131 15.8666 20.6627 15.7282 20.3205 15.9146C19.9782 16.101 19.7014 16.4906 19.6845 16.8443C19.6675 17.1573 19.9417 17.3904 20.3689 17.4026C20.6869 17.4146 20.8787 17.3782 20.9758 17.3546C20.9515 17.3254 20.8253 17.1677 20.8253 17.1677L20.8133 15.8667L20.8131 15.8666Z" fill="#C3B378"/>
<path fill-rule="evenodd" clip-rule="evenodd" d="M20.6652 15.944C20.6652 15.944 20.6289 15.9149 20.5212 15.9732C20.4314 16.0212 20.3004 16.148 20.1985 16.2378C20.1329 16.2912 20.0916 16.3154 20.0545 16.3567C19.9039 16.5364 19.7777 16.8301 19.8506 16.9757C19.9236 17.1213 20.1637 17.2888 20.7754 17.1748L20.6634 15.9442L20.6652 15.944Z" fill="#E6D89C"/>
<path fill-rule="evenodd" clip-rule="evenodd" d="M20.4661 16.245C20.4661 16.245 20.369 16.3956 20.369 16.6359C20.369 16.881 20.5074 17.2717 21.0172 17.3009C21.4079 17.3252 21.67 16.7378 21.954 16.5097C22.17 16.3349 22.301 16.33 22.301 16.33C22.301 16.33 22.0802 16.09 21.4904 15.7791C20.9079 15.466 20.2549 15.4247 19.9005 15.9053C20.068 15.8932 20.6093 15.7548 20.6093 15.7548L20.874 15.8397L20.4661 16.2452V16.245Z" fill="#252211"/>
<path fill-rule="evenodd" clip-rule="evenodd" d="M21.228 16.5627C21.2111 16.5264 21.1989 16.4777 21.2693 16.4657C21.3397 16.4537 21.3712 16.4608 21.3956 16.5137C21.4199 16.5667 21.4436 16.6108 21.4076 16.6328C21.3712 16.6521 21.2765 16.6328 21.2279 16.5624L21.228 16.5627ZM21.1138 16.2202C21.1138 16.2202 21.0895 16.2372 21.1017 16.2033C21.1065 16.1622 21.1382 16.0892 21.2158 16.1063C21.2934 16.1234 21.2766 16.2082 21.2638 16.2326C21.251 16.2569 21.1862 16.298 21.1375 16.2806C21.125 16.2774 21.1148 16.2684 21.11 16.2564C21.1052 16.2444 21.1064 16.2309 21.1132 16.2199L21.1138 16.2202Z" fill="#6F674D"/>
<path fill-rule="evenodd" clip-rule="evenodd" d="M14.5439 16.376C14.5439 16.376 14.7359 16.52 14.959 16.5144C15.1798 16.5095 15.4638 16.2815 15.5948 16.1357C15.6724 16.0508 15.7388 15.961 15.8108 15.8906C15.8716 15.83 15.9127 15.8008 15.9419 15.7596C15.9831 15.7116 16.0268 15.6213 16.0487 15.592C15.9953 15.6333 15.9177 15.7063 15.8375 15.7548C15.7599 15.8028 15.5924 15.893 15.5244 15.9173C15.459 15.9416 14.7793 16.3013 14.7793 16.3013L14.5439 16.376Z" fill="#AC924C"/>
<path fill-rule="evenodd" clip-rule="evenodd" d="M14.8374 14.5827C14.8374 14.5827 14.9441 14.5099 15.1505 14.4636C15.3496 14.4156 15.75 14.3787 15.75 14.3787L16.0801 14.5227L16.2112 15.0203L15.9712 15.5374L15.6654 15.7294L15.3182 15.1711L14.8382 14.5836L14.8374 14.5827Z" fill="#9F8E57"/>
<path fill-rule="evenodd" clip-rule="evenodd" d="M14.4055 15.0267L14.2913 15.112C14.2913 15.112 14.3205 15.0585 14.3447 14.896C14.3689 14.7334 14.4953 14.3377 14.6797 14.1096C14.8642 13.8814 14.8594 13.8936 14.8594 13.8936C14.8251 13.8873 14.7897 13.8961 14.7623 13.9177C14.7866 13.864 14.942 13.672 15.0973 13.576C15.2527 13.48 15.3133 13.4497 15.4759 13.528C15.6385 13.6062 15.6797 13.6469 15.7988 13.6421C15.9178 13.6373 16.0196 13.511 16.0196 13.511C16.0196 13.511 16.0439 13.5886 15.9541 13.7683C15.8644 13.948 15.51 14.3144 15.51 14.3144L14.7721 14.8192L14.4055 15.0272V15.0267Z" fill="#EAC970"/>
<path fill-rule="evenodd" clip-rule="evenodd" d="M14.9513 14.5218C14.9513 14.5218 15.4854 14.5946 15.648 14.4442C15.6528 14.4612 15.6723 14.4612 15.6723 14.4733C15.671 14.4825 15.6667 14.491 15.6601 14.4975C15.6778 14.4947 15.6957 14.4931 15.7136 14.4927C15.7349 14.499 15.7569 14.5031 15.7792 14.5048C15.7971 14.5045 15.8149 14.5028 15.8326 14.4999C15.8292 14.5243 15.816 14.5462 15.7961 14.5607C15.8204 14.5607 15.8441 14.5655 15.8441 14.5848C15.8441 14.6042 15.8489 14.6626 15.8198 14.6748C15.7957 14.6814 15.77 14.6797 15.747 14.6698C15.7489 14.7158 15.7614 14.7606 15.7835 14.801C15.8315 14.8908 15.9339 14.993 16.0715 14.9636C16.0715 14.9636 16.1441 15.1383 15.8384 15.5266C15.7972 15.58 15.7534 15.6528 15.7001 15.7135C15.6791 15.7594 15.663 15.8074 15.6521 15.8567C15.6521 15.8567 16.1692 15.6576 16.3172 15.2037C16.4678 14.7474 16.4969 14.2984 16.4678 13.8786C16.4628 13.7596 16.4435 13.6748 16.4144 13.614C16.3416 13.4634 16.1376 13.4877 16.0552 13.5727C15.9361 13.6917 15.7371 13.9877 15.4604 14.1916C15.1788 14.3954 15.1668 14.4316 14.9507 14.5218H14.9513Z" fill="#D7BC6B"/>
<path fill-rule="evenodd" clip-rule="evenodd" d="M14.3107 15.1772C14.3107 15.1772 14.2088 15.2378 14.1553 15.4652C14.1019 15.6981 14.2033 15.9821 14.262 16.0719C14.3208 16.1617 14.454 16.4069 14.7305 16.4191C14.799 16.4187 14.8666 16.4047 14.9296 16.3778C15.0261 16.3336 15.1166 16.2773 15.199 16.2103C15.318 16.1205 15.415 16.0429 15.4028 16.0356C15.3737 16.0234 14.6699 15.4409 14.6699 15.4409L14.4052 15.1455L14.3105 15.1775L14.3107 15.1772Z" fill="#585136"/>
<path fill-rule="evenodd" clip-rule="evenodd" d="M14.976 16.1433C14.976 16.1433 15.1192 16.1313 15.2041 16.0778C15.2891 16.0244 14.7065 15.4468 14.7065 15.4468L14.7478 16.0708L14.976 16.1433Z" fill="#453A25"/>
<path fill-rule="evenodd" clip-rule="evenodd" d="M14.3568 15.1335C14.3568 15.1335 14.284 15.2719 14.284 15.3084C14.2719 15.4273 14.3083 15.8011 14.3375 15.9199C14.3666 16.0462 14.5243 16.2379 14.7283 16.2379C14.8544 16.2379 15.0293 16.1603 15.0293 16.1409C15.0293 16.1166 14.8496 16.0929 14.8011 16.0025C14.772 15.9545 14.7599 15.8351 14.7531 15.7145C14.7483 15.6369 14.7483 15.5519 14.7775 15.5225C14.8431 15.4497 14.8551 15.2409 14.8551 15.2409L15.088 14.8081H14.7816L14.4151 15.0363L14.3568 15.1335Z" fill="#84754B"/>
<path fill-rule="evenodd" clip-rule="evenodd" d="M14.2671 15.2669C14.2671 15.2669 14.5071 14.949 14.7234 14.876C14.9397 14.8031 15.0365 14.8469 15.0365 14.8469L14.9103 15.1698L14.7306 15.3688L14.7428 15.4708C14.7428 15.4708 14.7135 15.7402 14.8932 15.9271C15.0728 16.114 15.2063 16.1068 15.284 16.1068C15.3618 16.1068 15.585 16.0412 15.6991 15.7717C15.801 15.5194 15.886 15.1957 15.6821 14.8712C15.4829 14.5484 15.1311 14.5359 15.0631 14.5359C14.9951 14.5359 14.4612 14.5626 14.2671 15.2664V15.2669Z" fill="#252211"/>
<path fill-rule="evenodd" clip-rule="evenodd" d="M20.4296 16.347C20.3398 16.3058 20.4248 16.0534 20.5145 15.9757C20.6043 15.8979 20.7184 15.8083 20.9176 15.796C20.9902 15.7912 21.0606 15.8373 21.0486 15.8859C21.0316 15.9757 20.9054 16.1019 20.7913 16.1917C20.6336 16.3155 20.5315 16.3931 20.4296 16.347Z" fill="#F7F7E7"/>
<path fill-rule="evenodd" clip-rule="evenodd" d="M15.5752 14.9708C15.6408 14.966 15.7257 15.0188 15.7427 15.0898C15.7596 15.1674 15.7014 15.3228 15.5752 15.3228C15.4732 15.3228 15.4198 15.1965 15.4198 15.1602C15.4209 15.1303 15.4293 15.1012 15.4441 15.0752C15.4489 15.0679 15.4611 14.9829 15.5752 14.9708Z" fill="#F8F6DE"/>
<path fill-rule="evenodd" clip-rule="evenodd" d="M14.6286 15.0266C14.6286 15.0266 14.4611 15.1042 14.3835 15.2666C14.3281 15.3865 14.3113 15.5207 14.3355 15.6506C14.3477 15.7113 14.4083 15.8617 14.4496 15.9151C14.4909 15.9685 14.5467 16.005 14.588 16.0001C14.6293 15.9951 14.7141 15.886 14.7141 15.8205C14.7141 15.7551 14.719 15.4783 14.799 15.3277C14.8694 15.1773 14.6291 15.0268 14.6291 15.0268L14.6286 15.0266Z" fill="#D4C38B"/>
<path fill-rule="evenodd" clip-rule="evenodd" d="M14.6529 15.0147C14.6238 15.0316 14.5753 15.056 14.5873 15.0875C14.5995 15.1166 14.7014 15.1355 14.7379 15.2065C14.7792 15.2793 14.7792 15.3569 14.767 15.3934C14.7987 15.3783 14.8275 15.3577 14.852 15.3326C14.9054 15.272 14.9708 15.1896 15.0267 15.1896C15.0632 15.1896 15.0995 15.2065 15.1336 15.2065C15.187 15.2065 15.2403 15.1896 15.2476 15.1337C15.2596 15.0609 15.1457 14.9953 15.0801 15.0075C15.0923 14.9595 15.1092 14.8886 15.0558 14.84C15.0024 14.7913 14.835 14.8764 14.7985 14.9008C14.762 14.9251 14.6529 15.0148 14.6529 15.0148V15.0147Z" fill="#E2D59D"/>
<path fill-rule="evenodd" clip-rule="evenodd" d="M18.5097 20.1141L18.8689 20.0081L18.9708 20.0809C18.9708 20.0809 19.0435 20.2362 19.1577 20.2556C19.1212 20.3332 19.0265 20.3996 19.0315 20.4546C19.0364 20.5097 19.0849 20.5517 19.0849 20.5517C19.0849 20.5517 18.762 21.0857 19.398 21.6237C19.2475 21.6844 19.0558 21.7677 18.9539 21.8157C19.0265 21.8327 19.1819 21.8637 19.2475 21.9226C19.3131 21.9815 19.3131 22.0002 19.3737 22.0367C19.4344 22.0732 19.4707 22.1217 19.4587 22.1434C19.4174 22.1191 19.279 22.0465 19.2548 22.1143C19.2307 22.1821 18.6553 22.1556 18.6553 22.1556L17.6844 22.3425C17.6844 22.3425 17.7208 22.2453 17.6188 22.1556C17.5 22.0489 17.3544 22.1604 17.199 22.0415C16.9952 21.8861 16.9878 21.7065 16.9224 21.6386C16.9878 21.5973 17.1214 21.5367 17.4393 21.4946C17.4272 21.4703 17.3859 21.3975 17.4102 21.3321C17.4393 21.2471 17.5606 21.1937 17.5243 21.0921C17.5777 21.0799 17.6019 21.0799 17.7355 20.9124C17.8617 20.7449 17.9393 20.7085 18.0364 20.6964C18.1336 20.6842 18.1918 20.6964 18.3715 20.5289C18.4976 20.41 18.4564 20.3081 18.4564 20.3081C18.4564 20.3081 18.5388 20.2813 18.5099 20.1138L18.5097 20.1141Z" fill="#CBAC5A"/>
<path fill-rule="evenodd" clip-rule="evenodd" d="M17.4492 20.1681C17.454 20.1438 17.4735 20.1316 17.6045 20.1438C17.7356 20.1559 18.5656 20.0662 18.7914 20.054C19.0196 20.037 19.8229 20.049 20.2138 20.1316C20.6047 20.2142 21.0002 20.3113 21.1919 20.3598C21.3839 20.4132 21.4444 20.4324 21.437 20.4567C21.4322 20.481 21.389 20.5047 21.3642 20.498C21.34 20.4932 20.7041 20.299 20.5076 20.258C20.3111 20.217 19.6312 20.1074 19.2596 20.114C18.9125 20.119 18.7741 20.1092 18.4805 20.1431C18.1868 20.1796 17.7013 20.2281 17.5557 20.2087C17.4117 20.1918 17.4415 20.1918 17.4488 20.1674L17.4492 20.1681Z" fill="#D6BC6F"/>
<path fill-rule="evenodd" clip-rule="evenodd" d="M19.4028 22.0704C19.4028 22.0704 19.9004 22.3399 20.0801 22.6699C20.2112 22.9151 20.0025 23.0365 20.0025 23.0365C20.0025 23.0365 20.2841 23.0365 20.2476 23.1919C20.2307 23.2888 19.7622 23.5509 19.4491 23.6893C19.1312 23.8277 19.1433 23.8205 18.988 23.8447C18.8374 23.869 18.4248 23.7967 18.3398 23.9175C18.2548 24.0383 18.2918 24.1627 18.3155 24.1821C18.3398 24.1991 18.5364 24.2234 18.5364 24.2234C18.5364 24.2234 18.4952 24.3375 18.0875 24.3496C17.6798 24.3618 17.5777 24.3907 17.5534 24.4346C17.5291 24.4757 17.631 24.4515 17.818 24.4826C18.0049 24.5117 18.267 24.5306 18.267 24.5306C18.267 24.5306 18.182 24.6034 17.9612 24.6616C17.7088 24.7271 17.3131 24.7879 17.1942 24.8607C17.2548 24.9019 17.3448 24.9626 17.3862 24.9674C17.2843 24.9917 17.1409 25.0451 17.1168 25.0645C17.1531 25.0888 17.2017 25.1179 17.2017 25.1179C17.2017 25.1179 16.9977 25.3631 16.8788 25.4239C16.76 25.4847 16.0755 25.8024 15.84 25.7418C15.2526 25.5864 15.1798 24.9432 15.0366 24.8947C14.8206 24.8219 14.7187 24.9674 14.5268 24.8655C14.6118 24.8048 14.658 24.7685 14.7478 24.7272C14.6507 24.6792 14.1483 24.3607 14.1483 24.3607C14.0957 24.2461 14.0374 24.1344 13.9736 24.0258C13.8764 23.8583 13.7336 23.6349 13.6264 23.4383C13.3934 23.0063 13.3812 22.8072 13.17 22.5621C13.2065 22.5141 13.3326 22.5208 13.3326 22.5208L15.1022 23.1034L18.24 23.1943L19.056 22.0293L19.403 22.0706L19.4028 22.0704Z" fill="#DFC677"/>
<path fill-rule="evenodd" clip-rule="evenodd" d="M14.7549 23.847C14.7738 23.8681 14.7959 23.8861 14.8203 23.9004C14.8811 23.9417 14.9709 23.9904 15.0315 24.063C15.0558 24.0267 15.1165 23.9611 15.2235 24.063C15.3306 24.1649 15.4635 24.0923 15.5462 24.1164C15.6312 24.1457 15.636 24.1577 15.636 24.1577C15.636 24.1577 15.684 24.1164 15.7914 24.0728C15.857 24.0484 15.9346 24.0315 16.0195 24.0073C16.0971 23.9904 16.1821 23.966 16.2405 23.966C16.2939 24.0024 16.4856 24.206 17.255 23.9054C17.9808 23.6238 18.1482 23.5923 18.2696 23.6358C18.2818 23.6067 18.2939 23.5508 18.4808 23.5582C18.4808 23.4806 18.3254 23.216 18.3254 23.216L17.4686 22.9224H17L15.5947 23.1796L14.816 23.624L14.7554 23.848L14.7549 23.847Z" fill="#C4A859"/>
<path fill-rule="evenodd" clip-rule="evenodd" d="M14.2864 23.3544C14.2864 23.3544 14.3033 23.4855 14.4976 23.6239C14.6896 23.7621 14.7499 23.8447 14.7499 23.8447C14.7499 23.8447 14.7864 23.7967 14.8155 23.7477C14.8446 23.6943 14.8689 23.6336 14.9174 23.6167C15.0145 23.5754 15.2353 23.653 15.284 23.6408C15.3253 23.6288 15.3131 23.5439 15.3568 23.5439C15.4587 23.5389 15.5241 23.6093 15.5606 23.6093C15.5971 23.6093 15.6867 23.6045 15.6989 23.5852C15.711 23.5658 15.7158 23.3642 15.8542 23.2671C16.0048 23.1604 16.1893 23.2064 16.2382 23.2307C16.2382 23.2671 16.243 23.357 16.3401 23.3618C16.4373 23.3666 16.4469 23.3496 16.5321 23.3787C16.6174 23.4079 16.719 23.374 16.7651 23.517C16.8064 23.505 16.9035 23.4928 16.8792 23.3544C16.9272 23.3181 16.9691 23.2938 17.0712 23.1506C17.0955 23.1143 17.1366 23.073 17.1683 23.0196C17.2533 23.0196 17.3552 23.0026 17.491 23.1215C17.4497 23.1506 17.4254 23.1695 17.4134 23.1991C17.4489 23.2342 17.4814 23.2724 17.5104 23.3132C17.5469 23.3612 17.5712 23.42 17.6173 23.4322C17.7192 23.4613 17.8867 23.42 18.0736 23.4322C18.2533 23.4443 18.4037 23.5098 18.4693 23.5511C18.4936 23.5391 18.4936 23.5341 18.5542 23.5463C18.6149 23.5584 18.6609 23.5632 18.5955 23.4856C18.6318 23.5026 18.6731 23.5391 18.7096 23.5026C18.7461 23.4661 18.775 23.4128 18.8769 23.4007C18.9789 23.3885 19.0153 23.4055 19.0566 23.2988C19.1101 23.1677 18.9256 23.1677 18.9256 23.1677C18.9256 23.1677 19.0105 23.09 19.1053 22.988C19.2193 22.8813 19.3504 22.7429 19.3819 22.573C19.4353 22.2599 19.1296 22.2188 19.1296 22.2188L17.6465 22.6751L15.8334 22.5852L14.2873 23.3546L14.2864 23.3544Z" fill="#927D49"/>
<path fill-rule="evenodd" clip-rule="evenodd" d="M12.954 19.0705C12.954 19.0705 12.906 19.1311 12.8764 19.2743C12.8468 19.4175 12.8594 19.4006 12.8351 19.5025C12.8108 19.6044 12.512 20.619 12.624 20.9612C12.736 21.3034 12.93 21.4297 13.0512 21.7063C13.0756 21.767 13.0992 21.8034 13.1119 21.8569C13.1532 22.0364 13.1168 22.1748 13.1653 22.3545C13.1823 22.4151 13.2261 22.4855 13.2916 22.5583C13.4356 22.7087 13.6703 22.8519 13.7716 22.9538C13.9146 23.1044 14.1186 23.4103 14.3783 23.4393C14.5167 23.4562 14.7133 23.398 14.8759 23.301C15.0199 23.2111 15.1088 23.085 15.2599 23.013C15.3666 22.9596 15.4807 22.9402 15.5826 22.9159C15.7938 22.8746 15.9856 22.8679 16.0997 22.8916C16.2744 22.9281 16.6871 23.0543 16.9157 23.0543C17.0944 23.0514 17.272 23.027 17.4448 22.9815C17.7919 22.8796 18.2117 22.7047 18.4885 22.6271C18.6511 22.5791 18.7821 22.5665 18.9157 22.5374C19.1439 22.4839 19.3356 22.4111 19.4448 22.2727C19.372 22.1878 19.2823 22.0567 18.7967 22.0615C18.2458 22.0737 17.6098 22.3794 17.2967 22.4281C16.9836 22.4767 16.8477 22.5178 16.4981 22.3916C16.1554 22.2641 16.144 22.1798 16.144 22.1798C16.144 22.1798 15.7842 21.9281 15.6336 21.2865C15.4831 20.6449 15.6336 20.1774 16.0245 19.733C16.1264 19.619 16.1021 19.517 16.1021 19.517C16.1021 19.517 16.3594 19.17 16.289 18.845C16.2114 18.5222 15.7138 18.5878 15.7138 18.5878L12.9541 19.0705H12.954Z" fill="#6E6342"/>
<path fill-rule="evenodd" clip-rule="evenodd" d="M13.3689 20.1506C13.3475 20.1909 13.3375 20.2362 13.3398 20.2817C13.3446 20.3471 13.3641 20.4321 13.5606 20.6239C13.7281 20.7913 13.6917 20.9782 13.6917 20.9782C13.6917 20.9782 13.776 20.9951 14.0048 20.8881C14.1845 20.8031 14.2448 20.9537 14.2448 20.9537C14.2971 20.9262 14.3538 20.9082 14.4123 20.9002C14.4653 20.8953 14.5166 20.879 14.5627 20.8522C14.5627 20.8522 14.7739 21.0682 14.9584 21.1702C15.1259 21.2601 15.223 21.3207 15.3056 21.2601C15.3832 21.2066 15.3832 21.0974 15.3782 21.0489C15.359 21.0041 15.3346 20.9618 15.3056 20.9226C15.2521 20.845 15.1672 20.7551 15.1616 20.6826C15.1494 20.5153 15.2878 20.3161 15.2585 20.2676C15.2293 20.2191 15.1203 20.207 14.8509 20.3041C14.5718 20.3962 13.3678 20.1511 13.3678 20.1511L13.3689 20.1506Z" fill="#39331F"/>
<path fill-rule="evenodd" clip-rule="evenodd" d="M14.0049 21.2356C14.0049 21.2356 13.8666 21.1046 13.9151 20.4686C13.9738 20.4677 14.0324 20.4734 14.0898 20.4855C14.0898 20.4855 14.1652 20.9783 14.0049 21.2356Z" fill="#292311"/>
<path fill-rule="evenodd" clip-rule="evenodd" d="M13.0195 18.5851C13.0388 18.5708 13.0567 18.5547 13.0729 18.5371C13.0249 18.6268 12.8033 18.986 12.983 19.5516C13.1627 20.1147 13.614 20.5345 14.1699 20.554C14.7257 20.5735 15.0179 20.3015 15.3519 19.8939C15.483 19.7313 15.6335 19.5273 15.767 19.3891C15.966 19.1729 16.1214 19.1123 16.1214 18.9036C16.1214 18.4764 15.6844 18.2846 15.0412 18.0929C14.398 17.9012 13.8179 17.9249 13.5169 18.0561C13.2233 18.1991 13.0971 18.3497 13.0193 18.5852L13.0195 18.5851Z" fill="#252211"/>
<path fill-rule="evenodd" clip-rule="evenodd" d="M15.085 21.4271L15.133 21.4028C15.133 21.4028 15.145 21.2108 15.2227 21.2159C15.3003 21.2281 15.3368 21.3302 15.3294 21.3665C15.3246 21.4028 15.3053 21.4636 15.2275 21.4562C15.1256 21.4586 15.0845 21.4271 15.0845 21.4271H15.085Z" fill="#3F3824"/>
<path fill-rule="evenodd" clip-rule="evenodd" d="M14.869 20.6117C14.869 20.6117 14.917 20.5947 14.9757 20.653C15.0237 20.653 15.233 20.6286 15.2986 20.6699C15.3642 20.7112 15.3836 20.7475 15.3836 20.7475C15.3836 20.7475 15.1385 20.801 15.0049 20.7475C14.869 20.7014 14.869 20.6117 14.869 20.6117H14.869Z" fill="#2D2815"/>
<path fill-rule="evenodd" clip-rule="evenodd" d="M15.9491 20.6481C15.9491 20.636 15.8181 20.5462 15.6797 20.5169C15.6553 20.5121 15.6504 20.5291 15.6317 20.5291C15.6195 20.5243 15.6147 20.4878 15.6147 20.4878L15.536 20.5292C15.536 20.5292 15.5238 20.5462 15.5651 20.5772C15.6014 20.6064 15.6622 20.6307 15.6792 20.6792C15.6961 20.7276 15.6961 20.7446 15.7035 20.752C15.7083 20.7568 15.7933 20.752 15.8345 20.7276C15.8758 20.7033 15.9536 20.6636 15.9486 20.6476L15.9491 20.6481Z" fill="#82764F"/>
<path fill-rule="evenodd" clip-rule="evenodd" d="M14.7234 21.1407C14.7234 21.1407 14.7475 20.9733 14.9103 20.966C15.0776 20.9538 15.1093 21.1164 15.1093 21.1164L15.0122 21.2135C15.0122 21.2111 14.9394 21.1092 14.7242 21.1407H14.7234Z" fill="#2D2816"/>
<path fill-rule="evenodd" clip-rule="evenodd" d="M15.7792 20.42C15.7792 20.42 15.6893 20.5171 15.4904 20.5462C15.4734 20.5219 15.4369 20.4734 15.4904 20.3958C15.5438 20.3182 15.6045 20.2939 15.6651 20.318C15.7197 20.3269 15.7643 20.3667 15.7792 20.42Z" fill="#574F35"/>
<path fill-rule="evenodd" clip-rule="evenodd" d="M16.1456 20.5388C16.1506 20.5145 16.1336 20.5097 16.1456 20.4975C16.1576 20.4854 16.2234 20.4612 16.2355 20.4732C16.2403 20.4782 16.2355 20.4975 16.2355 20.5212C16.2355 20.5449 16.2355 20.5692 16.2234 20.5867C16.2064 20.611 16.1579 20.6231 16.1336 20.6159C16.1093 20.6087 16.1045 20.5747 16.1045 20.5679C16.1165 20.5631 16.1456 20.551 16.1456 20.5388ZM16.5601 20.2767C16.5601 20.2646 16.6013 20.2402 16.6257 20.2402C16.662 20.2402 16.662 20.2694 16.6669 20.2767C16.6789 20.2815 16.6789 20.2718 16.6911 20.2937C16.7033 20.3156 16.7204 20.3543 16.7081 20.3786C16.6957 20.403 16.6474 20.4198 16.6354 20.415C16.6185 20.4028 16.565 20.2937 16.5601 20.2767Z" fill="#82764F"/>
<path fill-rule="evenodd" clip-rule="evenodd" d="M15.7257 20.5946C15.7257 20.5946 15.7791 20.6066 15.8519 20.6674C15.8276 20.6844 15.7911 20.7038 15.7911 20.7038C15.7911 20.7038 15.7863 20.6479 15.7257 20.5945V20.5946Z" fill="#6E6342"/>
<path fill-rule="evenodd" clip-rule="evenodd" d="M15.6069 20.0603C15.5947 20.0483 15.6432 20.0192 15.6723 20.024C15.7015 20.0288 15.7136 20.0483 15.7451 20.0531C15.7767 20.0579 15.7816 20.041 15.7931 20.0288C15.8047 20.0167 15.8466 20.024 15.8538 20.0288C15.8583 20.0342 15.8623 20.0398 15.8659 20.0458C15.867 20.0271 15.8757 20.0097 15.8901 19.9978C15.909 19.9839 15.9331 19.9795 15.9557 19.9856C15.9605 20.0026 15.9848 20.0632 15.98 20.0754C15.9752 20.0875 15.9024 20.1047 15.8901 20.0923C15.9023 20.1216 15.9557 20.1823 15.9629 20.1943C15.9701 20.2063 15.9095 20.2355 15.8853 20.2307C15.8514 20.2283 15.6426 20.1069 15.6063 20.0608L15.6069 20.0603ZM15.9249 19.6572C15.9204 19.645 15.9118 19.6347 15.9006 19.6281C15.8836 19.6233 15.8278 19.6281 15.8278 19.6572C15.8278 19.6864 15.8758 19.8492 15.9297 19.934C15.9905 20.019 16.0316 20.0892 16.0729 20.1088C16.0998 20.121 16.1315 20.1104 16.1457 20.0844C16.1505 20.0723 16.1626 19.9825 16.1578 19.7713C16.153 19.5601 16.1457 19.3563 16.1335 19.3441C16.1214 19.332 16.0729 19.3321 16.0559 19.3563C16.039 19.3804 15.9297 19.6209 15.9247 19.6572H15.9249Z" fill="#585136"/>
<path fill-rule="evenodd" clip-rule="evenodd" d="M15.7088 20.9006C15.7088 20.9006 15.6238 20.8471 15.5412 20.8836C15.4636 20.9201 15.4684 21.0633 15.4684 21.0633C15.5039 21.0772 15.5439 21.0726 15.5753 21.0511C15.6288 21.0148 15.6966 20.9542 15.7088 20.9007V20.9006Z" fill="#574F35"/>
<path fill-rule="evenodd" clip-rule="evenodd" d="M15.8689 21.0924C15.8641 21.0444 15.8209 21.0444 15.8209 21.0196C15.827 20.9952 15.8491 20.9781 15.8742 20.9783C15.8985 20.9783 15.9222 21.0074 15.952 21.0263C15.9811 21.0432 16.0248 21.0743 16.0296 21.1112C16.0344 21.1482 15.9816 21.2495 15.9228 21.2495C15.8641 21.2495 15.8816 21.1402 15.8694 21.0917L15.8689 21.0924ZM16.3374 21.0267C16.3374 21.0267 16.2403 21.0558 16.2475 21.0267C16.2547 20.9976 16.2767 20.9904 16.3083 20.9904C16.3243 20.9736 16.3458 20.9632 16.3689 20.9611C16.3821 20.9605 16.3951 20.9648 16.4052 20.9733C16.4052 20.9733 16.4708 20.9442 16.4902 20.9611C16.5095 20.9781 16.4951 20.9781 16.5071 20.9976C16.5224 21.0193 16.5324 21.0442 16.5364 21.0704C16.5364 21.0898 16.4636 21.131 16.4052 21.1238C16.3374 21.1093 16.3494 21.0389 16.3374 21.0267ZM16.9029 20.9174C16.9029 20.9174 16.932 20.9344 16.9078 20.9539C16.8909 20.9709 16.8059 21.0019 16.733 21.0073C16.6602 21.0073 16.5947 21.0193 16.5947 20.9952C16.5947 20.971 16.6554 20.9224 16.6917 20.9102C16.7064 20.8917 16.7288 20.881 16.7525 20.8811C16.7816 20.8811 16.8955 20.8689 16.9272 20.8641C16.9563 20.8592 16.9806 20.8761 16.9635 20.9005C16.9563 20.9174 16.9029 20.9174 16.9029 20.9174ZM17.0704 20.168C17.0704 20.168 17.0339 20.2456 16.9928 20.2456C16.9515 20.2408 16.9515 20.2287 16.9515 20.2165C16.9515 20.1996 16.9928 20.1559 16.9878 20.1437C16.9758 20.1437 16.9465 20.1437 16.9515 20.1146C16.9515 20.0903 16.9928 20.0612 17.0291 20.0666C17.0565 20.044 17.0907 20.0313 17.1262 20.0303C17.1675 20.0303 17.2038 20.0423 17.2038 20.0666C17.2038 20.0909 17.1558 20.1442 17.1382 20.1565C17.1188 20.1759 17.0945 20.1885 17.0704 20.1685V20.168ZM16.5169 21.6023C16.5169 21.6023 16.4689 21.6073 16.4689 21.6315C16.4689 21.6436 16.4809 21.6436 16.498 21.6364C16.5079 21.6359 16.5176 21.6342 16.5271 21.6315C16.5319 21.6364 16.5319 21.6606 16.5684 21.6606C16.5983 21.6565 16.6272 21.6466 16.6534 21.6315C16.6825 21.6195 16.7068 21.6071 16.7068 21.5835C16.6946 21.5422 16.6703 21.5227 16.634 21.5227C16.6154 21.5215 16.5968 21.5257 16.5806 21.5348C16.5806 21.5348 16.5684 21.5105 16.5271 21.5348C16.4858 21.5591 16.4906 21.5591 16.5028 21.5713C16.5246 21.5907 16.5174 21.6033 16.5174 21.6033L16.5169 21.6023ZM16.2427 21.8549C16.2427 21.8428 16.3034 21.8185 16.3203 21.8258C16.3373 21.8306 16.3858 21.9228 16.3858 21.9325C16.3858 21.9447 16.3251 21.9738 16.3008 21.9738C16.2765 21.9738 16.2354 21.9325 16.2354 21.9258C16.2354 21.921 16.2645 21.9138 16.2645 21.9089C16.2717 21.8969 16.2427 21.8676 16.2427 21.8554V21.8549ZM16.0507 21.5006C16.0629 21.4958 16.0629 21.4836 16.0798 21.4715C16.0906 21.4643 16.104 21.4625 16.1163 21.4667C16.125 21.4512 16.1401 21.4405 16.1576 21.4374C16.1867 21.4326 16.211 21.4374 16.2056 21.4495C16.2056 21.486 16.2299 21.5102 16.2299 21.5393C16.2299 21.5684 16.2129 21.6049 16.1523 21.6292C16.0917 21.6462 16.0091 21.6462 15.9969 21.6414C15.9848 21.6366 15.9726 21.5879 15.9848 21.5636C15.9969 21.5393 16.0309 21.5127 16.0504 21.5006H16.0507Z" fill="#82764F"/>
<path fill-rule="evenodd" clip-rule="evenodd" d="M16.128 21.5168C16.128 21.5168 16.0867 21.5412 16.0867 21.5533C16.083 21.5651 16.0814 21.5774 16.0819 21.5896C16.0819 21.5968 16.1353 21.5848 16.1425 21.5775C16.1449 21.5727 16.128 21.5295 16.128 21.5168Z" fill="#6E6342"/>
<path fill-rule="evenodd" clip-rule="evenodd" d="M15.767 21.4028C15.7912 21.4078 15.8325 21.4028 15.864 21.415C15.8883 21.4271 15.9053 21.4515 15.881 21.4806C15.8566 21.5097 15.833 21.5534 15.779 21.546C15.7184 21.5412 15.6602 21.5097 15.6602 21.4854C15.6581 21.4543 15.6686 21.4237 15.6893 21.4004C15.7136 21.3811 15.7256 21.3932 15.7669 21.4028H15.767Z" fill="#585136"/>
<path fill-rule="evenodd" clip-rule="evenodd" d="M15.7379 21.4272C15.7379 21.4272 15.6603 21.4879 15.6407 21.5172C15.6164 21.5463 15.4975 21.6967 15.4612 21.7282C15.4733 21.7069 15.487 21.6866 15.5023 21.6676C15.4543 21.6983 15.4184 21.7445 15.4004 21.7986C15.3713 21.8885 15.5631 21.937 15.6892 21.9735C15.8153 22.01 15.8641 22.0215 15.8641 22.0215C15.8177 21.9517 15.7778 21.8778 15.7451 21.8007C15.6971 21.6866 15.6723 21.6744 15.7038 21.621C15.7281 21.5676 15.7646 21.5312 15.7646 21.49C15.75 21.4516 15.7379 21.4272 15.7379 21.4272Z" fill="#574F35"/>
<path fill-rule="evenodd" clip-rule="evenodd" d="M12.9709 21.6191C12.9886 21.6224 13.0067 21.6224 13.0243 21.6191C13.0607 21.6141 13.4394 21.4751 13.8351 21.5001C14.1313 21.518 14.4249 21.5662 14.7112 21.6441C15.2088 21.7751 15.8277 22.0348 16.2282 22.1829C16.3349 22.2241 16.4394 22.297 16.5162 22.326C16.8221 22.445 16.8341 22.445 17.0138 22.4765C17.225 22.5057 17.441 22.4353 17.6667 22.3868C17.9434 22.326 18.4167 22.2969 18.8317 22.2362C18.9659 22.2176 19.0983 22.1876 19.2274 22.1465C19.2274 22.1465 18.8973 22.4765 18.1059 22.5954C17.7861 22.644 17.461 22.6481 17.14 22.6076C16.8875 22.5833 16.7202 22.5468 16.5939 22.5105C16.4507 22.4692 16.157 22.3599 15.7954 22.2705C15.5429 22.2049 15.2613 22.1564 14.9386 22.0957C14.1424 21.95 13.2784 21.7826 12.9706 21.6201L12.9709 21.6191Z" fill="#252211"/>
<path fill-rule="evenodd" clip-rule="evenodd" d="M12.0778 20.1191C11.8858 20.2817 11.6821 20.4371 11.4832 20.5875L10.8837 21.0481C10.6799 21.1985 10.4808 21.3539 10.2768 21.5044C10.0728 21.655 9.86915 21.798 9.65283 21.9364C9.84483 21.7739 10.0485 21.6233 10.2524 21.4753C10.4562 21.3273 10.6676 21.1822 10.8642 21.0321L11.4637 20.5708C11.67 20.4204 11.869 20.2651 12.0778 20.1195V20.1191ZM11.0171 21.8181C11.0171 21.8181 11.2331 21.6384 11.5026 21.3861C11.8374 21.0731 12.2477 20.6725 12.3787 20.5999L11.017 21.8183L11.0171 21.8181Z" fill="#CFB66C"/>
<path fill-rule="evenodd" clip-rule="evenodd" d="M11.0168 21.8176C11.1237 21.7109 11.2378 21.6066 11.3519 21.5045L11.5266 21.3541C11.58 21.3061 11.6408 21.2522 11.6941 21.1987C11.8008 21.092 11.9053 20.9778 12.012 20.8686C12.0649 20.8138 12.1209 20.7619 12.1796 20.7133C12.2089 20.6873 12.2415 20.6653 12.2765 20.6477C12.3058 20.6307 12.3373 20.5997 12.3784 20.5942C12.3543 20.6307 12.3252 20.6477 12.3008 20.6792C12.2717 20.7035 12.2474 20.7326 12.2232 20.7568C12.1698 20.8102 12.1092 20.8587 12.0557 20.9074C11.9416 21.0045 11.8228 21.0994 11.7087 21.201C11.5946 21.3026 11.4879 21.4122 11.3736 21.5141C11.25 21.6186 11.1359 21.7205 11.0168 21.8181V21.8176ZM12.4683 20.8467C12.4683 20.8467 11.6771 21.6211 11.5144 21.7472L12.4683 20.8467Z" fill="#CFB66C"/>
<path fill-rule="evenodd" clip-rule="evenodd" d="M12.4683 20.8472C12.3971 20.9296 12.3208 21.0074 12.2398 21.0801L11.9998 21.3083C11.9222 21.3859 11.8493 21.4636 11.7669 21.5412C11.6819 21.614 11.6043 21.6852 11.5144 21.7524L11.7474 21.5243C11.8251 21.4467 11.9101 21.3812 11.9926 21.3035L12.2256 21.0753C12.3056 20.9953 12.3834 20.9176 12.4683 20.8472ZM12.5046 21.2671C12.4317 21.4706 12.3457 21.6693 12.2473 21.8618C12.0435 22.2696 11.7377 22.7792 11.6041 23.0391L12.5046 21.2671Z" fill="#CFB66C"/>
<path fill-rule="evenodd" clip-rule="evenodd" d="M12.5048 21.2671C12.5048 21.3568 12.4804 21.4346 12.4513 21.5122C12.4229 21.5899 12.3906 21.666 12.3544 21.7404C12.3179 21.8132 12.2766 21.8909 12.2353 21.9613C12.194 22.0317 12.1456 22.1044 12.1091 22.1773L11.864 22.6093C11.779 22.7533 11.6964 22.8981 11.6067 23.0365C11.6673 22.8812 11.7499 22.7356 11.8276 22.5924C11.9126 22.4484 11.9902 22.3044 12.0676 22.1554C12.1055 22.0812 12.1395 22.0051 12.1696 21.9274C12.2059 21.8496 12.2422 21.7768 12.2715 21.7064C12.3078 21.6288 12.3369 21.5559 12.3734 21.4856C12.4145 21.4103 12.4486 21.3375 12.5044 21.2671L12.5048 21.2671Z" fill="#CFB66C"/>
<path fill-rule="evenodd" clip-rule="evenodd" d="M13.3688 23.2568C13.3688 23.2568 13.1288 23.5748 13.1528 23.9776C13.2183 23.7666 13.3008 23.4437 13.3688 23.2568ZM13.597 23.5754C13.597 23.5754 13.5121 24.4394 13.4417 24.8642C13.5412 24.3732 13.5605 24.4145 13.597 23.5754ZM15.1868 24.9154C15.1868 24.9154 14.8276 25.9714 14.8202 26.2648C14.898 25.963 15.0484 25.3466 15.1868 24.9146V24.9154Z" fill="#DEC270"/>
<path fill-rule="evenodd" clip-rule="evenodd" d="M16.0267 23.1919C16.0267 23.1919 16.6093 24.153 17.0463 24.9733C16.928 24.5605 16.656 23.8034 16.0267 23.1919Z" fill="#CBAF59"/>
<path fill-rule="evenodd" clip-rule="evenodd" d="M17.5923 24.6069C17.9121 25.1723 18.2006 25.7549 18.4563 26.3521C18.4078 25.9394 18.2766 25.2332 17.5923 24.6069Z" fill="#E3C677"/>
<path fill-rule="evenodd" clip-rule="evenodd" d="M22.1943 26.024C22.2913 25.9633 22.4831 25.6331 22.6506 25.5507C22.818 25.4657 22.9442 25.4488 23.0948 25.2812C23.2452 25.1064 23.2868 24.9996 23.6165 24.8614C24.0778 24.6622 23.7605 24.4049 23.7605 24.4049C23.8114 24.355 23.8657 24.3088 23.9231 24.2667C24.0421 24.1769 24.1804 24.0676 24.1684 23.8758C24.1514 23.5531 24.0908 23.0846 23.8261 22.8128C24.0834 22.7593 24.5761 22.723 24.8821 22.6454C25.2364 22.5555 25.3991 22.4292 25.3991 22.4292C25.3991 22.4292 25.1953 22.0822 25.5253 21.7328C25.8554 21.3833 26.1249 21.1745 26.3239 20.7836C26.0957 20.7545 25.7479 20.6332 24.8602 20.9705C24.9081 20.9931 24.9544 21.019 24.9986 21.0481C24.9986 21.0481 24.4525 21.1987 24.2535 21.3662C23.9063 21.6598 23.8626 21.9001 23.4865 22.0798C23.1103 22.2595 22.7316 22.2108 22.4186 22.3564C22.1057 22.502 22.0594 22.6259 21.9452 22.6793C21.9695 22.7084 21.9404 22.7569 21.9865 22.7982C21.9573 22.8395 21.7874 23.1161 21.6151 23.1161C21.6321 23.1817 21.7777 23.2302 21.7777 23.2302C21.7777 23.2302 21.6709 23.308 21.3991 23.3273C21.5373 23.4713 21.6685 23.6283 22.0301 23.8564C22.001 23.9171 21.8796 24.007 21.9282 24.1211C21.9817 24.2352 22.1202 24.3905 22.6733 24.5168C22.3917 24.5288 22.0618 24.5944 21.6173 24.5337C21.1732 24.4803 21.1004 24.4488 20.8261 24.5168C20.8553 24.5459 20.9329 24.5459 21.0009 24.6235C20.9281 24.6283 20.4717 24.57 20.3164 24.774C20.1538 24.9851 20.0834 25.3323 20.0956 25.5652C20.0106 25.6065 19.9281 25.6793 19.9693 25.8299C20.0106 25.9804 20.2266 26.0289 20.365 26.1235C20.5033 26.2254 20.5154 26.2617 20.6466 26.2376C20.7849 26.2084 20.9887 26.0702 21.1077 26.0702C21.2268 26.0702 21.3116 26.16 21.3116 26.16C21.3116 26.16 21.6345 26.0046 21.666 26.0337C21.6951 26.0628 21.6708 26.2497 21.7023 26.2788C21.7343 26.3008 22.098 26.0848 22.1951 26.024H22.1943Z" fill="#ECD592"/>
<path fill-rule="evenodd" clip-rule="evenodd" d="M29.2502 16.3102C27.7332 12.3928 23.9831 11.667 23.9831 11.667H13.2841L13.3254 15.6572H15.4561V24.5675H13.2839V28.5505H23.687C26.1942 28.5505 28.2039 26.031 28.2039 26.031C31.4223 21.4632 29.25 16.3102 29.25 16.3102H29.2502ZM23.7429 23.3465C23.7429 23.3465 22.9269 24.5238 22.039 24.5238H20.263L20.2209 15.667H22.5001C22.5001 15.667 23.5561 15.8878 24.2939 17.9776C24.2939 17.9776 25.272 20.9696 23.7429 23.3465Z" fill="white" fill-opacity="0.8"/>
</svg>
