<svg width="17" height="17" viewBox="0 0 17 17" fill="none" xmlns="http://www.w3.org/2000/svg">
<path d="M11.7296 3.50664L13.4946 5.27081M12.8646 1.95248L8.09214 6.72498C7.84554 6.97123 7.67737 7.28496 7.6088 7.62664L7.16797 9.83331L9.37464 9.39165C9.7163 9.32331 10.0296 9.15581 10.2763 8.90915L15.0488 4.13664C15.1922 3.99323 15.306 3.82297 15.3836 3.63559C15.4612 3.44821 15.5012 3.24738 15.5012 3.04456C15.5012 2.84174 15.4612 2.64091 15.3836 2.45353C15.306 2.26615 15.1922 2.09589 15.0488 1.95248C14.9054 1.80906 14.7351 1.6953 14.5478 1.61769C14.3604 1.54007 14.1595 1.50012 13.9567 1.50012C13.7539 1.50012 13.5531 1.54007 13.3657 1.61769C13.1783 1.6953 13.0081 1.80906 12.8646 1.95248V1.95248Z" stroke="#E3B100" stroke-width="2.16667" stroke-linecap="round" stroke-linejoin="round"/>
<path d="M13.834 11.5V14C13.834 14.442 13.6584 14.8659 13.3458 15.1785C13.0333 15.491 12.6093 15.6666 12.1673 15.6666H3.00065C2.55862 15.6666 2.1347 15.491 1.82214 15.1785C1.50958 14.8659 1.33398 14.442 1.33398 14V4.83329C1.33398 4.39127 1.50958 3.96734 1.82214 3.65478C2.1347 3.34222 2.55862 3.16663 3.00065 3.16663H5.50065" stroke="#E3B100" stroke-width="2.16667" stroke-linecap="round" stroke-linejoin="round"/>
</svg>
