<svg width="40" height="40" viewBox="0 0 40 40" fill="none" xmlns="http://www.w3.org/2000/svg">
<rect width="40" height="40" rx="10" fill="#E3B100" fill-opacity="0.2"/>
<path d="M28.3448 27.4937C27.8658 26.3592 27.1708 25.3287 26.2983 24.4596C25.4285 23.5879 24.3981 22.893 23.2641 22.4131C23.254 22.408 23.2438 22.4055 23.2337 22.4004C24.8155 21.2578 25.8438 19.3967 25.8438 17.2969C25.8438 13.8184 23.0255 11 19.5469 11C16.0684 11 13.2501 13.8184 13.2501 17.2969C13.2501 19.3967 14.2784 21.2578 15.8602 22.4029C15.8501 22.408 15.8399 22.4105 15.8298 22.4156C14.6923 22.8955 13.6715 23.5836 12.7956 24.4621C11.9239 25.3319 11.229 26.3623 10.7491 27.4963C10.2776 28.6065 10.0234 29.7968 10.0001 31.0027C9.99939 31.0298 10.0041 31.0568 10.014 31.082C10.0239 31.1073 10.0388 31.1303 10.0577 31.1497C10.0767 31.1691 10.0993 31.1845 10.1243 31.195C10.1492 31.2055 10.1761 31.2109 10.2032 31.2109H11.7266C11.8383 31.2109 11.9272 31.1221 11.9298 31.0129C11.9805 29.0527 12.7676 27.217 14.159 25.8256C15.5987 24.3859 17.5106 23.5938 19.5469 23.5938C21.5833 23.5938 23.4952 24.3859 24.9348 25.8256C26.3262 27.217 27.1133 29.0527 27.1641 31.0129C27.1667 31.1246 27.2555 31.2109 27.3673 31.2109H28.8907C28.9178 31.2109 28.9446 31.2055 28.9696 31.195C28.9946 31.1845 29.0172 31.1691 29.0361 31.1497C29.0551 31.1303 29.0699 31.1073 29.0798 31.082C29.0897 31.0568 29.0945 31.0298 29.0938 31.0027C29.0684 29.7891 28.8171 28.6084 28.3448 27.4937ZM19.5469 21.6641C18.3815 21.6641 17.2846 21.2096 16.4594 20.3844C15.6342 19.5592 15.1798 18.4623 15.1798 17.2969C15.1798 16.1314 15.6342 15.0346 16.4594 14.2094C17.2846 13.3842 18.3815 12.9297 19.5469 12.9297C20.7124 12.9297 21.8092 13.3842 22.6344 14.2094C23.4596 15.0346 23.9141 16.1314 23.9141 17.2969C23.9141 18.4623 23.4596 19.5592 22.6344 20.3844C21.8092 21.2096 20.7124 21.6641 19.5469 21.6641Z" fill="#E3B100"/>
</svg>
