<svg width="20" height="21" viewBox="0 0 20 21" fill="none" xmlns="http://www.w3.org/2000/svg">
<path d="M18.3448 16.4937C17.8658 15.3592 17.1708 14.3287 16.2983 13.4596C15.4285 12.5879 14.3981 11.893 13.2641 11.4131C13.254 11.408 13.2438 11.4055 13.2337 11.4004C14.8155 10.2578 15.8438 8.39668 15.8438 6.29688C15.8438 2.81836 13.0255 0 9.54694 0C6.06842 0 3.25006 2.81836 3.25006 6.29688C3.25006 8.39668 4.27838 10.2578 5.86022 11.4029C5.85006 11.408 5.83991 11.4105 5.82975 11.4156C4.69225 11.8955 3.67155 12.5836 2.79557 13.4621C1.92394 14.3319 1.22898 15.3623 0.749087 16.4963C0.277639 17.6065 0.023377 18.7968 6.34918e-05 20.0027C-0.000614197 20.0298 0.004139 20.0568 0.0140431 20.082C0.0239473 20.1073 0.0388019 20.1303 0.0577317 20.1497C0.0766615 20.1691 0.0992835 20.1845 0.124265 20.195C0.149246 20.2055 0.176081 20.2109 0.203189 20.2109H1.72663C1.83834 20.2109 1.92721 20.1221 1.92975 20.0129C1.98053 18.0527 2.76764 16.217 4.15905 14.8256C5.5987 13.3859 7.51061 12.5938 9.54694 12.5938C11.5833 12.5938 13.4952 13.3859 14.9348 14.8256C16.3262 16.217 17.1133 18.0527 17.1641 20.0129C17.1667 20.1246 17.2555 20.2109 17.3673 20.2109H18.8907C18.9178 20.2109 18.9446 20.2055 18.9696 20.195C18.9946 20.1845 19.0172 20.1691 19.0361 20.1497C19.0551 20.1303 19.0699 20.1073 19.0798 20.082C19.0897 20.0568 19.0945 20.0298 19.0938 20.0027C19.0684 18.7891 18.8171 17.6084 18.3448 16.4937ZM9.54694 10.6641C8.38151 10.6641 7.28463 10.2096 6.45944 9.38438C5.63424 8.55918 5.17975 7.4623 5.17975 6.29688C5.17975 5.13145 5.63424 4.03457 6.45944 3.20937C7.28463 2.38418 8.38151 1.92969 9.54694 1.92969C10.7124 1.92969 11.8092 2.38418 12.6344 3.20937C13.4596 4.03457 13.9141 5.13145 13.9141 6.29688C13.9141 7.4623 13.4596 8.55918 12.6344 9.38438C11.8092 10.2096 10.7124 10.6641 9.54694 10.6641Z" fill="#E3B100"/>
</svg>
