<svg width="17" height="16" viewBox="0 0 17 16" fill="none" xmlns="http://www.w3.org/2000/svg">
<path fill-rule="evenodd" clip-rule="evenodd" d="M13.6181 2.39701C10.5131 -0.707994 5.48207 -0.712994 2.38307 2.38601C-0.717927 5.488 -0.714927 10.517 2.39207 13.622C5.49707 16.727 10.5291 16.731 13.6271 13.632C16.7271 10.533 16.7241 5.50201 13.6181 2.39701ZM9.61507 11.351L7.92707 9.663L6.23907 11.351C5.55007 12.04 5.03207 12.64 4.21007 11.819C3.39007 10.998 3.98707 10.48 4.67907 9.79L6.36707 8.103L4.67907 6.415C3.98907 5.726 3.39007 5.208 4.21007 4.38601C5.03207 3.56601 5.55007 4.16501 6.23907 4.85501L7.92707 6.541L9.61507 4.85501C10.3051 4.16601 10.8201 3.56501 11.6421 4.38601C12.4641 5.208 11.8651 5.726 11.1751 6.415L9.48707 8.10201L11.1751 9.789C11.8641 10.48 12.4641 10.998 11.6421 11.819C10.8221 12.64 10.3051 12.04 9.61507 11.351Z" fill="#DB0D25"/>
</svg>
