<svg width="26" height="26" viewBox="0 0 26 26" fill="none" xmlns="http://www.w3.org/2000/svg">
<path d="M25.6081 16.1448C23.8719 23.1091 16.8181 27.3475 9.85295 25.6108C2.89069 23.8746 -1.34768 16.8204 0.389331 9.85657C2.12481 2.89145 9.17857 -1.34724 16.1416 0.389004C23.1063 2.12525 27.3444 9.18022 25.608 16.1449L25.6081 16.1448H25.6081Z" fill="#50AF95"/>
<path fill-rule="evenodd" clip-rule="evenodd" d="M14.6449 14.4738C14.553 14.4807 14.0781 14.509 13.0187 14.509C12.1761 14.509 11.5778 14.4838 11.3679 14.4738C8.11158 14.3306 5.68101 13.7637 5.68101 13.085C5.68101 12.4063 8.11158 11.8403 11.3679 11.6947V13.9093C11.5809 13.9246 12.1906 13.9606 13.0332 13.9606C14.0444 13.9606 14.5507 13.9185 14.6419 13.91V11.6962C17.8913 11.841 20.3165 12.4079 20.3165 13.085C20.3165 13.7622 17.8921 14.329 14.6419 14.473L14.6449 14.4738ZM14.6449 11.4672V9.48552H19.1797V6.4636H6.8331V9.48552H11.3671V11.4664C7.68184 11.6357 4.9104 12.3657 4.9104 13.2405C4.9104 14.1153 7.68184 14.8446 11.3671 15.0146V21.3649H14.6441V15.0123C18.321 14.843 21.0879 14.1138 21.0879 13.2398C21.0879 12.3657 18.3233 11.6365 14.6441 11.4664L14.6449 11.4672Z" fill="white"/>
</svg>
