<svg width="26" height="26" viewBox="0 0 26 26" fill="none" xmlns="http://www.w3.org/2000/svg">
<path d="M13 26C20.2042 26 26 20.2042 26 13C26 5.79579 20.2042 0 13 0C5.79579 0 0 5.79579 0 13C0 20.2042 5.79579 26 13 26Z" fill="#2775CA"/>
<path d="M16.5749 15.0583C16.5749 13.1625 15.4374 12.5125 13.1624 12.2417C11.5374 12.025 11.2124 11.5917 11.2124 10.8333C11.2124 10.0749 11.7542 9.5875 12.8374 9.5875C13.8124 9.5875 14.3542 9.9125 14.6249 10.725C14.6792 10.8875 14.8417 10.9958 15.0042 10.9958H15.8707C16.0874 10.9958 16.2499 10.8333 16.2499 10.6167V10.5625C16.0332 9.37079 15.0582 8.45 13.8124 8.34171V7.04171C13.8124 6.825 13.6499 6.6625 13.3792 6.60829H12.5667C12.3499 6.60829 12.1874 6.77079 12.1332 7.04171V8.2875C10.5082 8.50421 9.47915 9.5875 9.47915 10.9417C9.47915 12.7292 10.5624 13.4333 12.8374 13.7042C14.3542 13.975 14.8417 14.3 14.8417 15.1667C14.8417 16.0334 14.0832 16.6292 13.0542 16.6292C11.6457 16.6292 11.1582 16.0333 10.9957 15.2208C10.9417 15.0042 10.7792 14.8958 10.6167 14.8958H9.69573C9.47915 14.8958 9.31665 15.0583 9.31665 15.275V15.3292C9.53323 16.6833 10.3999 17.6583 12.1874 17.9292V19.2292C12.1874 19.4458 12.3499 19.6083 12.6207 19.6625H13.4332C13.6499 19.6625 13.8124 19.5 13.8667 19.2292V17.9292C15.4917 17.6583 16.5749 16.5208 16.5749 15.0583Z" fill="white"/>
<path fill-rule="evenodd" clip-rule="evenodd" d="M5.41679 10.3458C3.84587 14.5167 6.01258 19.2292 10.2376 20.7458C10.4001 20.8542 10.5626 21.0708 10.5626 21.2333V21.9917C10.5626 22.1 10.5626 22.1542 10.5084 22.2083C10.4543 22.425 10.2376 22.5333 10.0209 22.425C6.98758 21.45 4.65837 19.1208 3.68337 16.0875C2.05837 10.9417 4.87508 5.47079 10.0209 3.84579C10.0751 3.79171 10.1834 3.79171 10.2376 3.79171C10.4543 3.84579 10.5626 4.00829 10.5626 4.225V4.98329C10.5626 5.25421 10.4543 5.41671 10.2376 5.525C8.01679 6.3375 6.22929 8.07079 5.41679 10.3458ZM15.4918 4.0625C15.5459 3.84579 15.7626 3.7375 15.9793 3.84579C18.9584 4.82079 21.3418 7.15 22.3168 10.2375C23.9418 15.3833 21.1251 20.8542 15.9793 22.4792C15.9251 22.5333 15.8168 22.5333 15.7626 22.5333C15.5459 22.4792 15.4376 22.3167 15.4376 22.1V21.3417C15.4376 21.0708 15.5459 20.9083 15.7626 20.8C17.9834 19.9875 19.7709 18.2542 20.5834 15.9792C22.1543 11.8083 19.9876 7.09579 15.7626 5.57921C15.6001 5.47079 15.4376 5.25421 15.4376 5.0375V4.27921C15.4376 4.17079 15.4376 4.11671 15.4918 4.0625Z" fill="white"/>
</svg>
