<svg width="26" height="26" viewBox="0 0 26 26" fill="none" xmlns="http://www.w3.org/2000/svg">
<path d="M5.97187 18.0375L7.92188 16.0469C7.23125 15.8844 6.58125 15.6406 6.0125 15.2344L5.97187 18.0375ZM12.3094 2.68125L10.3594 4.67188C11.05 4.83437 11.7 5.07812 12.2688 5.48438L12.3094 2.68125ZM1.4625 13.5281L4.26562 13.4875C3.9 12.9188 3.61562 12.2688 3.45312 11.5781L1.4625 13.5281ZM16.8188 7.19063L14.0156 7.23125C14.3813 7.8 14.6656 8.45 14.8281 9.14062L16.8188 7.19063ZM1.4625 7.19063L3.45312 9.14062C3.61562 8.45 3.85938 7.8 4.26562 7.23125L1.4625 7.19063ZM16.8188 13.5281L14.8281 11.5781C14.6656 12.2688 14.4219 12.9188 14.0156 13.4875L16.8188 13.5281ZM5.97187 2.68125L6.0125 5.48438C6.58125 5.11875 7.23125 4.83437 7.92188 4.67188L5.97187 2.68125ZM12.3094 18.0375L12.2688 15.2344C11.7 15.6 11.05 15.8844 10.3594 16.0469L12.3094 18.0375ZM4.34687 13.6906L3.25 16.25L5.80938 15.1531C5.24062 14.7469 4.75312 14.2594 4.34687 13.6906ZM13.9344 7.02812L15.0312 4.46875L12.4719 5.56562C13.0406 5.97187 13.5281 6.45937 13.9344 7.02812ZM3.4125 9.30312L0.8125 10.3594L3.4125 11.4156C3.37187 11.0906 3.33125 10.725 3.33125 10.3594C3.29062 9.99375 3.33125 9.66875 3.4125 9.30312ZM14.8687 11.4156L17.4688 10.3594L14.8687 9.30312C14.95 9.62812 14.95 9.99375 14.95 10.3594C14.95 10.725 14.95 11.05 14.8687 11.4156ZM5.80938 5.56562L3.25 4.46875L4.34687 7.02812C4.75312 6.45937 5.24062 5.97187 5.80938 5.56562ZM12.4719 15.1531L15.0312 16.25L13.9344 13.6906C13.5281 14.2594 13.0406 14.7469 12.4719 15.1531ZM10.1969 4.63125L9.14062 2.03125L8.08437 4.63125C8.40937 4.59062 8.775 4.55 9.14062 4.55C9.50625 4.50937 9.83125 4.55 10.1969 4.63125ZM8.08437 16.0875L9.14062 18.6875L10.1969 16.0875C9.87187 16.1281 9.50625 16.1687 9.14062 16.1687C8.775 16.1687 8.45 16.1687 8.08437 16.0875Z" fill="#FFCE31"/>
<path d="M9.14062 15.6406C12.0574 15.6406 14.4219 13.2761 14.4219 10.3594C14.4219 7.44262 12.0574 5.07812 9.14062 5.07812C6.22387 5.07812 3.85938 7.44262 3.85938 10.3594C3.85938 13.2761 6.22387 15.6406 9.14062 15.6406Z" fill="#FFCE31"/>
<path d="M6.9876 23.1968C6.58135 23.1968 6.1751 23.1156 5.80947 22.9937C4.26572 22.4656 3.20947 21.0031 3.20947 19.3375C3.20947 18.2406 3.69697 17.1437 4.50947 16.4125C4.7126 16.2094 4.95635 16.0469 5.2001 15.925L5.44385 15.0312C6.05322 12.7969 8.08447 11.2531 10.3595 11.2531C10.6032 11.2531 10.8063 11.2531 11.0907 11.2937L11.7001 11.4156L11.7813 11.2125C12.7157 9.50623 14.4626 8.4906 16.3313 8.4906C19.2157 8.4906 21.5313 10.8875 21.5313 13.8125V14.3406C21.7345 14.4219 21.9782 14.5437 22.1813 14.6656C23.5626 15.4781 24.4157 17.0219 24.4157 18.6469C24.4157 20.8 22.9938 22.6281 20.922 23.1156C20.597 23.1969 20.2313 23.2375 19.9063 23.2375H6.9876V23.1968Z" fill="white"/>
<path d="M16.3719 9.2625C18.8094 9.2625 20.8 11.2938 20.8 13.8125V14.1781C19.7844 14.2594 18.85 14.6656 18.1187 15.3156C18.6469 14.9906 19.2969 14.8281 19.9875 14.8281C20.2313 14.8281 20.475 14.8688 20.7188 14.9094C21.125 14.9906 21.4906 15.1531 21.8562 15.3562C22.9531 16.0062 23.725 17.225 23.725 18.6469C23.725 20.4344 22.5063 21.9781 20.8406 22.3438C20.5562 22.425 20.3125 22.425 19.9875 22.425H6.9875C6.6625 22.425 6.3375 22.3844 6.05312 22.2625C4.83437 21.8562 3.98125 20.6781 3.98125 19.3375C3.98125 18.4031 4.3875 17.5906 5.0375 17.0219C5.32187 16.7781 5.64688 16.575 6.0125 16.4125C6.3375 16.2906 6.6625 16.25 7.02812 16.25C8.00312 16.25 8.85625 16.7375 9.425 17.4688H9.46562C8.81562 16.25 7.6375 15.3969 6.21563 15.275C6.74375 13.4062 8.40938 12.025 10.4 12.025C10.6031 12.025 10.8063 12.0656 11.0094 12.0656C11.4156 12.1063 11.7812 12.2281 12.1469 12.3906C13.4875 13 14.4625 14.3 14.7063 15.8438V15.8031C14.7063 14.0563 13.8125 12.5125 12.5125 11.6188C13.2437 10.1969 14.6656 9.2625 16.3719 9.2625ZM16.3719 7.71875C14.3406 7.71875 12.4312 8.775 11.3344 10.5625H11.2125C10.8875 10.5219 10.6438 10.4812 10.3594 10.4812C7.75938 10.4812 5.40313 12.2687 4.7125 14.8281L4.50938 15.4375C4.30625 15.5594 4.14375 15.6813 3.98125 15.8438C3.00625 16.6969 2.4375 17.9969 2.4375 19.3375C2.4375 21.3281 3.69687 23.1156 5.56562 23.725C6.0125 23.8875 6.5 23.9688 6.9875 23.9688H19.9469C20.3531 23.9688 20.7188 23.9281 21.125 23.8469C23.5219 23.2781 25.1875 21.125 25.1875 18.6469C25.1875 16.7375 24.1719 14.95 22.5469 14.0156L22.3031 13.8938V13.8531C22.3031 10.4406 19.6625 7.71875 16.3719 7.71875Z" fill="#75D6FF"/>
</svg>
