<svg width="22" height="22" viewBox="0 0 22 22" fill="none" xmlns="http://www.w3.org/2000/svg">
<path d="M11.0003 0.166656C5.02683 0.166656 0.166992 5.02649 0.166992 11V15.4882C0.166992 16.5976 1.13874 17.5 2.33366 17.5H3.41699C3.70431 17.5 3.97986 17.3859 4.18302 17.1827C4.38619 16.9795 4.50033 16.704 4.50033 16.4167V10.8451C4.50033 10.5578 4.38619 10.2822 4.18302 10.079C3.97986 9.87588 3.70431 9.76174 3.41699 9.76174H2.43333C3.03566 5.56924 6.64316 2.33332 11.0003 2.33332C15.3575 2.33332 18.965 5.56924 19.5673 9.76174H18.5837C18.2963 9.76174 18.0208 9.87588 17.8176 10.079C17.6145 10.2822 17.5003 10.5578 17.5003 10.8451V17.5C17.5003 18.6949 16.5286 19.6667 15.3337 19.6667H13.167V18.5833H8.83366V21.8333H15.3337C17.7235 21.8333 19.667 19.8898 19.667 17.5C20.8619 17.5 21.8337 16.5976 21.8337 15.4882V11C21.8337 5.02649 16.9738 0.166656 11.0003 0.166656Z" fill="#E3B100"/>
</svg>
