<svg width="18" height="16" viewBox="0 0 18 16" fill="none" xmlns="http://www.w3.org/2000/svg">
<path d="M13.8175 3.57689L17.9987 7.60658L13.8175 11.606V8.92456H7.56091V6.2583H13.8175V3.57689ZM11.3028 11.3333L12.9086 12.9542C11.3331 14.4288 9.62625 15.166 7.78815 15.166C5.59657 15.166 3.75089 14.4414 2.25112 12.9921C0.75135 11.5428 0.00146484 9.73252 0.00146484 7.56113C0.00146484 6.1977 0.344847 4.93527 1.03161 3.77383C1.71837 2.61239 2.645 1.69587 3.81149 1.02425C4.97798 0.352638 6.24293 0.0168304 7.60636 0.0168304C9.46466 0.0168304 11.227 0.764191 12.8934 2.25891L11.3028 3.86473C10.1514 2.81438 8.92434 2.28921 7.62151 2.28921C6.11669 2.28921 4.84668 2.81438 3.81149 3.86473C2.77629 4.91507 2.2587 6.1977 2.2587 7.71262C2.2587 9.12655 2.79144 10.3435 3.85694 11.3636C4.92243 12.3836 6.17224 12.8936 7.60636 12.8936C8.92939 12.8936 10.1615 12.3735 11.3028 11.3333Z" fill="black"/>
</svg>
