<svg width="22" height="22" viewBox="0 0 22 22" fill="none" xmlns="http://www.w3.org/2000/svg">
<path d="M14.7371 2.09531C14.6938 2.36615 14.6721 2.63698 14.6721 2.90781C14.6721 5.34531 16.6438 7.3159 19.0704 7.3159C19.3413 7.3159 19.6013 7.28448 19.8721 7.24115V15.9826C19.8721 19.6561 17.7054 21.8336 14.0221 21.8336H6.01734C2.33293 21.8336 0.16626 19.6561 0.16626 15.9826V7.96698C0.16626 4.28365 2.33293 2.09531 6.01734 2.09531H14.7371ZM14.9548 8.68198C14.6613 8.64948 14.3698 8.77948 14.1954 9.01781L11.5748 12.4086L8.57293 10.047C8.38876 9.90615 8.17209 9.8509 7.95543 9.87365C7.73984 9.90615 7.54484 10.0242 7.41376 10.1976L4.20818 14.3695L4.14209 14.467C3.95793 14.8126 4.04459 15.2567 4.36959 15.4961C4.52126 15.5936 4.68376 15.6586 4.86793 15.6586C5.11818 15.6695 5.35543 15.5384 5.50709 15.3336L8.22626 11.8334L11.3138 14.1528L11.4113 14.2167C11.7579 14.4009 12.1913 14.3153 12.4404 13.9892L15.5713 9.94948L15.5279 9.97115C15.7013 9.73281 15.7338 9.42948 15.6146 9.15865C15.4965 8.88781 15.2354 8.70365 14.9548 8.68198ZM19.2222 0.166656C20.663 0.166656 21.833 1.33666 21.833 2.77749C21.833 4.21832 20.663 5.38832 19.2222 5.38832C17.7814 5.38832 16.6114 4.21832 16.6114 2.77749C16.6114 1.33666 17.7814 0.166656 19.2222 0.166656Z" fill="black" fill-opacity="0.92"/>
</svg>
