<svg width="17" height="17" viewBox="0 0 17 17" fill="none" xmlns="http://www.w3.org/2000/svg">
<path d="M11.7296 3.50666L13.4946 5.27083M12.8646 1.95249L8.09214 6.72499C7.84554 6.97124 7.67737 7.28498 7.6088 7.62666L7.16797 9.83333L9.37464 9.39166C9.7163 9.32333 10.0296 9.15583 10.2763 8.90916L15.0488 4.13666C15.1922 3.99325 15.306 3.82299 15.3836 3.63561C15.4612 3.44823 15.5012 3.2474 15.5012 3.04458C15.5012 2.84176 15.4612 2.64093 15.3836 2.45355C15.306 2.26617 15.1922 2.09591 15.0488 1.95249C14.9054 1.80908 14.7351 1.69532 14.5478 1.6177C14.3604 1.54009 14.1595 1.50014 13.9567 1.50014C13.7539 1.50014 13.5531 1.54009 13.3657 1.6177C13.1783 1.69532 13.0081 1.80908 12.8646 1.95249V1.95249Z" stroke="black" stroke-width="2.16667" stroke-linecap="round" stroke-linejoin="round"/>
<path d="M13.834 11.5V14C13.834 14.442 13.6584 14.8659 13.3458 15.1785C13.0333 15.4911 12.6093 15.6667 12.1673 15.6667H3.00065C2.55862 15.6667 2.1347 15.4911 1.82214 15.1785C1.50958 14.8659 1.33398 14.442 1.33398 14V4.83332C1.33398 4.3913 1.50958 3.96737 1.82214 3.65481C2.1347 3.34225 2.55862 3.16666 3.00065 3.16666H5.50065" stroke="black" stroke-width="2.16667" stroke-linecap="round" stroke-linejoin="round"/>
</svg>
