<svg width="19" height="19" viewBox="0 0 19 19" fill="none" xmlns="http://www.w3.org/2000/svg">
<path d="M16.78 7.19875H15.8263C15.7038 7.19875 15.6163 7.1025 15.5638 6.97125C15.5325 6.92305 15.5159 6.86683 15.5159 6.80938C15.5159 6.75192 15.5325 6.6957 15.5638 6.6475L16.2725 6C16.4114 5.86639 16.5218 5.70601 16.597 5.52855C16.6722 5.35109 16.7106 5.16023 16.71 4.9675C16.7098 4.77359 16.671 4.58167 16.5959 4.4029C16.5208 4.22413 16.4109 4.0621 16.2725 3.92625L15.1 2.7275C14.9642 2.59072 14.8026 2.48217 14.6247 2.4081C14.4467 2.33402 14.2559 2.29588 14.0631 2.29588C13.8704 2.29588 13.6795 2.33402 13.5016 2.4081C13.3236 2.48217 13.1621 2.59072 13.0263 2.7275L12.3525 3.375C12.299 3.4093 12.2367 3.42753 12.1731 3.42753C12.1095 3.42753 12.0473 3.4093 11.9938 3.375C11.9409 3.3553 11.8948 3.32098 11.8607 3.27606C11.8266 3.23113 11.806 3.17744 11.8013 3.12125V2.22C11.8014 1.83759 11.6526 1.47018 11.3863 1.19572C11.12 0.921266 10.7572 0.761381 10.375 0.75H8.6775C8.28682 0.749993 7.91202 0.904588 7.63495 1.18002C7.35788 1.45545 7.20106 1.82933 7.19875 2.22V3.17375C7.19875 3.29625 7.1025 3.38375 6.97125 3.43625C6.92305 3.46751 6.86683 3.48415 6.80938 3.48415C6.75192 3.48415 6.6957 3.46751 6.6475 3.43625L6 2.7275C5.72287 2.45202 5.34947 2.29513 4.95875 2.29C4.76617 2.29038 4.57561 2.32928 4.39829 2.40441C4.22097 2.47955 4.06047 2.5894 3.92625 2.7275L2.7275 3.9C2.58673 4.03625 2.47479 4.19942 2.39834 4.3798C2.32189 4.56018 2.28249 4.75409 2.28249 4.95C2.28249 5.14591 2.32189 5.33982 2.39834 5.5202C2.47479 5.70059 2.58673 5.86375 2.7275 6L3.375 6.6475C3.4093 6.70104 3.42753 6.76329 3.42753 6.82688C3.42753 6.89046 3.4093 6.95271 3.375 7.00625C3.3553 7.05909 3.32098 7.10524 3.27606 7.13932C3.23113 7.1734 3.17744 7.19401 3.12125 7.19875H2.22C1.83013 7.19875 1.45623 7.35363 1.18055 7.6293C0.904875 7.90498 0.75 8.27888 0.75 8.66875V10.3225C0.749993 10.7132 0.904588 11.088 1.18002 11.3651C1.45545 11.6421 1.82933 11.7989 2.22 11.8013H3.17375C3.29625 11.8013 3.38375 11.8975 3.43625 12.0288C3.46751 12.077 3.48415 12.1332 3.48415 12.1906C3.48415 12.2481 3.46751 12.3043 3.43625 12.3525L2.7275 13C2.45202 13.2771 2.29513 13.6505 2.29 14.0413C2.2897 14.2352 2.32826 14.4273 2.4034 14.6061C2.47854 14.785 2.58874 14.9469 2.7275 15.0825L3.9 16.2725C4.03582 16.4093 4.19736 16.5178 4.37531 16.5919C4.55327 16.666 4.74412 16.7041 4.93688 16.7041C5.12963 16.7041 5.32048 16.666 5.49844 16.5919C5.67639 16.5178 5.83793 16.4093 5.97375 16.2725L6.6475 15.625C6.70104 15.5907 6.76329 15.5725 6.82688 15.5725C6.89046 15.5725 6.95271 15.5907 7.00625 15.625C7.05909 15.6447 7.10524 15.679 7.13932 15.7239C7.1734 15.7689 7.19401 15.8226 7.19875 15.8788V16.8325C7.21236 17.2132 7.37322 17.5737 7.64743 17.8382C7.92165 18.1026 8.28781 18.2502 8.66875 18.25H10.3225C10.7132 18.25 11.088 18.0954 11.3651 17.82C11.6421 17.5446 11.7989 17.1707 11.8013 16.78V15.8263C11.8013 15.7038 11.8975 15.6163 12.0288 15.5638C12.077 15.5325 12.1332 15.5159 12.1906 15.5159C12.2481 15.5159 12.3043 15.5325 12.3525 15.5638L13.0175 16.2375C13.2946 16.513 13.668 16.6699 14.0588 16.675C14.2513 16.6746 14.4419 16.6357 14.6192 16.5606C14.7965 16.4855 14.957 16.3756 15.0913 16.2375L16.2638 15.065C16.4005 14.9292 16.5091 14.7676 16.5832 14.5897C16.6572 14.4117 16.6954 14.2209 16.6954 14.0281C16.6954 13.8354 16.6572 13.6445 16.5832 13.4666C16.5091 13.2886 16.4005 13.1271 16.2638 12.9913L15.625 12.3525C15.5937 12.3043 15.5771 12.2481 15.5771 12.1906C15.5771 12.1332 15.5937 12.077 15.625 12.0288C15.6447 11.9759 15.679 11.9298 15.7239 11.8957C15.7689 11.8616 15.8226 11.841 15.8788 11.8363H16.8325C17.2117 11.8227 17.571 11.6631 17.8351 11.3907C18.0993 11.1184 18.248 10.7544 18.25 10.375V8.6775C18.25 8.28682 18.0954 7.91202 17.82 7.63495C17.5446 7.35788 17.1707 7.20106 16.78 7.19875ZM9.5 12.5625C8.8943 12.5625 8.30219 12.3829 7.79857 12.0464C7.29494 11.7099 6.90241 11.2316 6.67062 10.672C6.43883 10.1124 6.37818 9.4966 6.49635 8.90254C6.61451 8.30847 6.90619 7.76278 7.33449 7.33449C7.76278 6.90619 8.30847 6.61451 8.90254 6.49635C9.4966 6.37818 10.1124 6.43883 10.672 6.67062C11.2316 6.90241 11.7099 7.29494 12.0464 7.79857C12.3829 8.30219 12.5625 8.8943 12.5625 9.5C12.5625 10.3122 12.2398 11.0912 11.6655 11.6655C11.0912 12.2398 10.3122 12.5625 9.5 12.5625Z" fill="black"/>
</svg>
