<svg width="18" height="18" viewBox="0 0 18 18" fill="none" xmlns="http://www.w3.org/2000/svg">
<path d="M17.3334 5.66669V9.83335H0.666748V5.66669H5.77175C5.95711 6.38189 6.37473 7.01529 6.95903 7.46746C7.54334 7.91963 8.26125 8.16497 9.00008 8.16497C9.73891 8.16497 10.4568 7.91963 11.0411 7.46746C11.6254 7.01529 12.0431 6.38189 12.2284 5.66669H17.3334ZM17.3334 4.00002H0.666748L4.83342 0.666687H13.1667L17.3334 4.00002ZM17.3334 11.5V15.6667C17.3334 16.1087 17.1578 16.5326 16.8453 16.8452C16.5327 17.1578 16.1088 17.3334 15.6668 17.3334H2.33342C1.89139 17.3334 1.46746 17.1578 1.1549 16.8452C0.842343 16.5326 0.666748 16.1087 0.666748 15.6667V11.5H5.77175C5.95711 12.2152 6.37473 12.8486 6.95903 13.3008C7.54334 13.753 8.26125 13.9983 9.00008 13.9983C9.73891 13.9983 10.4568 13.753 11.0411 13.3008C11.6254 12.8486 12.0431 12.2152 12.2284 11.5H17.3334ZM7.55675 11.5H10.4434C10.2971 11.7534 10.0867 11.9637 9.83338 12.11C9.58002 12.2563 9.29263 12.3333 9.00008 12.3333C8.70754 12.3333 8.42014 12.2563 8.16679 12.11C7.91343 11.9637 7.70304 11.7534 7.55675 11.5ZM7.55508 5.67669H10.4417C10.2955 5.93003 10.0851 6.14041 9.83171 6.28668C9.57836 6.43294 9.29096 6.50995 8.99842 6.50995C8.70587 6.50995 8.41848 6.43294 8.16512 6.28668C7.91176 6.14041 7.70137 5.93003 7.55508 5.67669Z" fill="black"/>
</svg>
