<svg width="86" height="36" viewBox="0 0 86 36" fill="none" xmlns="http://www.w3.org/2000/svg">
<path d="M0.5 32L1.44053 29.2755C2.38105 26.5511 4.61481 17.8362 6.49586 16.8827C8.37691 15.9292 10.258 15.6021 12.139 16.8827C14.0201 18.1633 15.9011 23.9979 17.7822 20.2558C19.6632 16.5137 21.1916 16.5251 23.0726 15.7123C24.9537 14.8995 27.1874 17.1314 29.0684 17.9002C30.9495 18.6691 32.8306 15.3289 34.7116 15.7123C36.5927 16.0956 39.1791 15.9387 41.0602 16.8827C42.9412 17.8267 44.8223 19.5077 46.7034 15.7123C48.5844 11.9168 49.7601 10.8087 51.6411 11.2978C53.5222 11.7869 55.4032 16.847 57.2843 19.4924C59.1653 22.1379 61.0464 21.0787 62.9274 17.9002C64.8085 14.7218 66.6895 6.81436 68.5706 5.77707C70.4516 4.73978 72.3327 7.96286 74.2138 9.42536C76.0948 10.8879 77.9759 10.5898 79.8569 9.39211C81.738 8.19446 83.619 6.09723 84.5595 5.04861L85.5 4" stroke="#2F66F6"/>
</svg>
