<svg width="86" height="30" viewBox="0 0 86 30" fill="none" xmlns="http://www.w3.org/2000/svg">
<path d="M0.5 5.54312L1.44444 5.21408C2.38889 4.88503 4.27778 4.22694 6.16667 3.74164C8.05556 3.25635 9.94444 2.94384 11.8333 4.82492C13.7222 6.706 15.6111 10.7807 17.5 12.2061C19.3889 13.6316 21.2778 12.4078 23.1667 10.5843C25.0556 8.76073 26.9444 6.33737 28.8333 4.61394C30.7222 2.8905 32.6111 1.86698 34.5 1.39268C36.3889 0.918375 38.2778 0.993282 40.1667 1.02288C42.0556 1.05247 43.9444 1.03676 45.8333 6.59982C47.7222 12.1629 49.6111 23.3047 51.5 23.793C53.3889 24.2812 55.2778 14.1159 57.1667 14.3125C59.0556 14.5091 60.9444 25.0676 62.8333 27.7731C64.7222 30.4787 66.6111 25.3314 68.5 25.0178C70.3889 24.7041 72.2778 29.2243 74.1667 28.9913C76.0556 28.7583 77.9444 23.7723 79.8333 22.4306C81.7222 21.089 83.6111 23.3918 84.5556 24.5432L85.5 25.6946" stroke="#F7931A"/>
</svg>
