<svg width="87" height="30" viewBox="0 0 87 30" fill="none" xmlns="http://www.w3.org/2000/svg">
<path d="M1 29L1.94444 26.582C2.88889 24.1641 4.77778 19.3282 6.66667 18.4819C8.55556 17.6357 10.4444 20.7791 12.3333 21.9156C14.2222 23.0521 16.1111 22.1818 18 18.8606C19.8889 15.5395 21.7778 9.76766 23.6667 9.0463C25.5556 8.32494 27.4444 12.6541 29.3333 13.3364C31.2222 14.0188 33.1111 11.0544 35 11.3946C36.8889 11.7349 38.7778 15.3797 40.6667 16.2176C42.5556 17.0554 44.4444 15.0862 46.3333 11.7178C48.2222 8.34934 50.1111 3.5817 52 4.01575C53.8889 4.4498 55.7778 10.0856 57.6667 12.4334C59.5556 14.7812 61.4444 13.8412 63.3333 11.0203C65.2222 8.19943 67.1111 3.49775 69 2.57715C70.8889 1.65656 72.7778 4.51704 74.6667 5.81501C76.5556 7.11297 78.4444 6.84842 80.3333 5.7855C82.2222 4.72258 84.1111 2.86129 85.0556 1.93065L86 1" stroke="#2F66F6"/>
</svg>
