<svg width="18" height="18" viewBox="0 0 18 18" fill="none" xmlns="http://www.w3.org/2000/svg">
<path d="M10.5171 17.3334H7.48381C7.29375 17.3334 7.10939 17.2685 6.96131 17.1494C6.81322 17.0302 6.71031 16.8641 6.66964 16.6784L6.33047 15.1084C5.87802 14.9102 5.449 14.6623 5.05131 14.3692L3.52047 14.8567C3.33928 14.9145 3.14376 14.9086 2.96641 14.8399C2.78905 14.7713 2.64052 14.644 2.54547 14.4792L1.02547 11.8534C0.931428 11.6885 0.896125 11.4966 0.925342 11.309C0.954558 11.1215 1.04656 10.9494 1.18631 10.8209L2.37381 9.73758C2.3198 9.24684 2.3198 8.75166 2.37381 8.26091L1.18631 7.18008C1.04637 7.05156 0.954235 6.87931 0.925014 6.69157C0.895793 6.50382 0.931214 6.31172 1.02547 6.14675L2.54214 3.51925C2.63718 3.35451 2.78572 3.22724 2.96307 3.15857C3.14043 3.0899 3.33594 3.08397 3.51714 3.14175L5.04797 3.62925C5.25131 3.47925 5.46297 3.33925 5.68131 3.21258C5.89214 3.09425 6.10881 2.98675 6.33047 2.89091L6.67047 1.32258C6.71095 1.13691 6.81367 0.970655 6.9616 0.851372C7.10952 0.73209 7.29378 0.666948 7.48381 0.666748H10.5171C10.7072 0.666948 10.8914 0.73209 11.0394 0.851372C11.1873 0.970655 11.29 1.13691 11.3305 1.32258L11.6738 2.89175C12.126 3.09 12.5547 3.33791 12.9521 3.63091L14.4838 3.14341C14.6649 3.08584 14.8602 3.09189 15.0374 3.16055C15.2146 3.22921 15.363 3.35636 15.458 3.52091L16.9746 6.14841C17.168 6.48758 17.1013 6.91675 16.8138 7.18091L15.6263 8.26425C15.6803 8.75499 15.6803 9.25017 15.6263 9.74091L16.8138 10.8242C17.1013 11.0892 17.168 11.5176 16.9746 11.8567L15.458 14.4842C15.3629 14.649 15.2144 14.7763 15.037 14.8449C14.8597 14.9136 14.6642 14.9195 14.483 14.8617L12.9521 14.3742C12.5548 14.667 12.126 14.9147 11.6738 15.1126L11.3305 16.6784C11.2898 16.8639 11.187 17.03 11.0391 17.1491C10.8912 17.2682 10.7071 17.3333 10.5171 17.3334ZM5.35047 12.5242L6.03381 13.0242C6.18797 13.1376 6.34797 13.2417 6.51464 13.3367C6.67131 13.4276 6.83131 13.5092 6.99714 13.5834L7.77464 13.9242L8.15547 15.6667H9.84714L10.228 13.9234L11.0055 13.5826C11.3446 13.4326 11.6671 13.2467 11.9663 13.0276L12.6496 12.5276L14.3513 13.0692L15.1971 11.6042L13.878 10.4017L13.9713 9.55841C14.013 9.18925 14.013 8.81675 13.9713 8.44841L13.878 7.60508L15.198 6.40008L14.3513 4.93425L12.6505 5.47591L11.9663 4.97591C11.667 4.75566 11.3449 4.56819 11.0055 4.41675L10.228 4.07591L9.84714 2.33341H8.15547L7.77214 4.07675L6.99714 4.41675C6.65729 4.56559 6.33504 4.75173 6.03631 4.97175L5.35214 5.47175L3.65214 4.93008L2.80464 6.40008L4.12381 7.60091L4.03047 8.44508C3.98881 8.81425 3.98881 9.18675 4.03047 9.55508L4.12381 10.3984L2.80464 11.6009L3.65047 13.0659L5.35047 12.5242ZM8.99714 12.3334C8.11309 12.3334 7.26524 11.9822 6.64012 11.3571C6.015 10.732 5.66381 9.88414 5.66381 9.00008C5.66381 8.11603 6.015 7.26818 6.64012 6.64306C7.26524 6.01794 8.11309 5.66675 8.99714 5.66675C9.8812 5.66675 10.729 6.01794 11.3542 6.64306C11.9793 7.26818 12.3305 8.11603 12.3305 9.00008C12.3305 9.88414 11.9793 10.732 11.3542 11.3571C10.729 11.9822 9.8812 12.3334 8.99714 12.3334ZM8.99714 7.33341C8.67077 7.33375 8.35168 7.42989 8.07946 7.60992C7.80723 7.78996 7.59386 8.04595 7.46581 8.34615C7.33775 8.64635 7.30066 8.97754 7.35912 9.29863C7.41758 9.61972 7.56903 9.91658 7.79468 10.1524C8.02032 10.3882 8.31023 10.5525 8.62844 10.6251C8.94665 10.6976 9.27915 10.6751 9.58469 10.5604C9.89023 10.4457 10.1554 10.2438 10.3472 9.97971C10.539 9.71567 10.6491 9.40112 10.6638 9.07508V9.40841V9.00008C10.6638 8.55805 10.4882 8.13413 10.1757 7.82157C9.86309 7.50901 9.43917 7.33341 8.99714 7.33341Z" fill="black"/>
</svg>
