<svg width="18" height="17" viewBox="0 0 18 17" fill="none" xmlns="http://www.w3.org/2000/svg">
<path d="M5.31641 1.39992L4.12474 0.208252C2.12474 1.73325 0.808073 4.08325 0.691406 6.74992H2.35807C2.4171 5.69309 2.71376 4.6632 3.22596 3.73691C3.73816 2.81062 4.45271 2.0118 5.31641 1.39992ZM15.6414 6.74992H17.3081C17.1831 4.08325 15.8664 1.73325 13.8747 0.208252L12.6914 1.39992C13.5514 2.01481 14.2628 2.81451 14.7732 3.7403C15.2837 4.6661 15.5804 5.69447 15.6414 6.74992ZM13.9997 7.16658C13.9997 4.60825 12.6331 2.46659 10.2497 1.89992V1.33325C10.2497 0.641585 9.69141 0.083252 8.99974 0.083252C8.30807 0.083252 7.74974 0.641585 7.74974 1.33325V1.89992C5.35807 2.46659 3.99974 4.59992 3.99974 7.16658V11.3333L2.33307 12.9999V13.8333H15.6664V12.9999L13.9997 11.3333V7.16658ZM8.99974 16.3333C9.11641 16.3333 9.22474 16.3249 9.33307 16.2999C9.87474 16.1833 10.3164 15.8166 10.5331 15.3166C10.6164 15.1166 10.6581 14.8999 10.6581 14.6666H7.32474C7.33307 15.5833 8.07474 16.3333 8.99974 16.3333Z" fill="black"/>
</svg>
