<svg width="18" height="16" viewBox="0 0 18 16" fill="none" xmlns="http://www.w3.org/2000/svg">
<path d="M13.818 3.57691L17.9992 7.60659L13.818 11.606V8.92457H7.5614V6.25832H13.818V3.57691ZM11.3033 11.3333L12.9091 12.9543C11.3336 14.4288 9.62674 15.166 7.78864 15.166C5.59706 15.166 3.75138 14.4414 2.25161 12.9921C0.751838 11.5429 0.00195312 9.73253 0.00195312 7.56115C0.00195312 6.19772 0.345335 4.93529 1.0321 3.77385C1.71886 2.61241 2.64549 1.69588 3.81198 1.02427C4.97846 0.352653 6.24342 0.0168457 7.60685 0.0168457C9.46515 0.0168457 11.2275 0.764206 12.8939 2.25893L11.3033 3.86474C10.1519 2.8144 8.92483 2.28923 7.622 2.28923C6.11718 2.28923 4.84717 2.8144 3.81198 3.86474C2.77678 4.91509 2.25918 6.19772 2.25918 7.71264C2.25918 9.12656 2.79193 10.3435 3.85742 11.3636C4.92292 12.3836 6.17273 12.8937 7.60685 12.8937C8.92988 12.8937 10.162 12.3735 11.3033 11.3333Z" fill="black"/>
</svg>
