<svg width="20" height="20" viewBox="0 0 20 20" fill="none" xmlns="http://www.w3.org/2000/svg">
<path d="M13.1441 5.55553H8.33301V4.44442H12.6552C12.4982 3.88532 12.4611 3.29936 12.5463 2.72492C12.6315 2.15048 12.8371 1.60052 13.1497 1.11108H4.44412C4.14943 1.11108 3.86682 1.22815 3.65844 1.43652C3.45007 1.64489 3.33301 1.92751 3.33301 2.2222V17.7778C3.33301 18.0724 3.45007 18.3551 3.65844 18.5634C3.86682 18.7718 4.14943 18.8889 4.44412 18.8889H15.5552C15.8499 18.8889 16.1325 18.7718 16.3409 18.5634C16.5493 18.3551 16.6663 18.0724 16.6663 17.7778V7.49997C15.9627 7.50009 15.2706 7.32179 14.6546 6.98174C14.0386 6.64168 13.5189 6.15099 13.1441 5.55553ZM7.2219 14.4444H6.11079V13.3333H7.2219V14.4444ZM7.2219 12.2222H6.11079V11.1111H7.2219V12.2222ZM7.2219 9.99997H6.11079V8.88886H7.2219V9.99997ZM7.2219 7.77775H6.11079V6.66664H7.2219V7.77775ZM7.2219 5.55553H6.11079V4.44442H7.2219V5.55553ZM13.8886 14.4444H8.33301V13.3333H13.8886V14.4444ZM13.8886 12.2222H8.33301V11.1111H13.8886V12.2222ZM13.8886 9.99997H8.33301V8.88886H13.8886V9.99997ZM13.8886 7.77775H8.33301V6.66664H13.8886V7.77775Z" fill="black"/>
<path d="M16.6664 6.11122C18.2006 6.11122 19.4442 4.86757 19.4442 3.33344C19.4442 1.79932 18.2006 0.555664 16.6664 0.555664C15.1323 0.555664 13.8887 1.79932 13.8887 3.33344C13.8887 4.86757 15.1323 6.11122 16.6664 6.11122Z" fill="black"/>
</svg>
