<svg width="20" height="18" viewBox="0 0 20 18" fill="none" xmlns="http://www.w3.org/2000/svg">
<path d="M8.33301 12.3333H11.6663M15.4163 16.5C15.9088 16.5 16.3964 16.403 16.8514 16.2145C17.3064 16.0261 17.7198 15.7499 18.068 15.4016C18.4162 15.0534 18.6924 14.64 18.8809 14.1851C19.0693 13.7301 19.1663 13.2425 19.1663 12.75C19.1663 12.2575 19.0693 11.7699 18.8809 11.3149C18.6924 10.86 18.4162 10.4466 18.068 10.0983C17.7198 9.75013 17.3064 9.47391 16.8514 9.28545C16.3964 9.097 15.9088 9 15.4163 9C14.4218 9 13.468 9.39509 12.7647 10.0983C12.0614 10.8016 11.6663 11.7554 11.6663 12.75C11.6663 13.7446 12.0614 14.6984 12.7647 15.4016C13.468 16.1049 14.4218 16.5 15.4163 16.5V16.5ZM8.33301 4.83333H11.6663H8.33301ZM1.24967 11.0833C1.24967 11.0833 4.58301 3.16667 4.99967 2.33333C5.41634 1.5 6.24967 1.5 6.66634 1.5C7.08301 1.5 8.33301 1.5 8.33301 3.16667V12.3333L1.24967 11.0833ZM4.58301 16.5C4.09055 16.5 3.60292 16.403 3.14794 16.2145C2.69297 16.0261 2.27958 15.7499 1.93136 15.4016C1.58314 15.0534 1.30691 14.64 1.11846 14.1851C0.930004 13.7301 0.833008 13.2425 0.833008 12.75C0.833008 12.2575 0.930004 11.7699 1.11846 11.3149C1.30691 10.86 1.58314 10.4466 1.93136 10.0983C2.27958 9.75013 2.69297 9.47391 3.14794 9.28545C3.60292 9.097 4.09055 9 4.58301 9C5.57757 9 6.5314 9.39509 7.23466 10.0983C7.93792 10.8016 8.33301 11.7554 8.33301 12.75C8.33301 13.7446 7.93792 14.6984 7.23466 15.4016C6.5314 16.1049 5.57757 16.5 4.58301 16.5V16.5ZM18.7497 11.0833C18.7497 11.0833 15.4163 3.16667 14.9997 2.33333C14.583 1.5 13.7497 1.5 13.333 1.5C12.9163 1.5 11.6663 1.5 11.6663 3.16667V12.3333L18.7497 11.0833Z" stroke="white" stroke-width="1.66667"/>
</svg>
