<svg width="14" height="14" viewBox="0 0 14 14" fill="none" xmlns="http://www.w3.org/2000/svg">
<path d="M9.98265 2.60546L11.3946 4.0168L9.98265 2.60546ZM10.8906 1.36213L7.07265 5.18013C6.87537 5.37713 6.74083 5.62812 6.68598 5.90146L6.33331 7.6668L8.09865 7.31346C8.37198 7.2588 8.62265 7.1248 8.81998 6.92746L12.638 3.10946C12.7527 2.99473 12.8437 2.85852 12.9058 2.70862C12.9679 2.55872 12.9999 2.39805 12.9999 2.2358C12.9999 2.07354 12.9679 1.91287 12.9058 1.76297C12.8437 1.61307 12.7527 1.47686 12.638 1.36213C12.5232 1.2474 12.387 1.15639 12.2371 1.09429C12.0872 1.0322 11.9266 1.00024 11.7643 1.00024C11.6021 1.00024 11.4414 1.0322 11.2915 1.09429C11.1416 1.15639 11.0054 1.2474 10.8906 1.36213V1.36213Z" stroke="black" stroke-width="1.5" stroke-linecap="round" stroke-linejoin="round"/>
<path d="M11.6667 9.00016V11.0002C11.6667 11.3538 11.5262 11.6929 11.2761 11.943C11.0261 12.193 10.6869 12.3335 10.3333 12.3335H2.99999C2.64637 12.3335 2.30723 12.193 2.05718 11.943C1.80713 11.6929 1.66666 11.3538 1.66666 11.0002V3.66683C1.66666 3.31321 1.80713 2.97407 2.05718 2.72402C2.30723 2.47397 2.64637 2.3335 2.99999 2.3335H4.99999" stroke="black" stroke-width="1.5" stroke-linecap="round" stroke-linejoin="round"/>
</svg>
