<svg width="20" height="20" viewBox="0 0 20 20" fill="none" xmlns="http://www.w3.org/2000/svg">
<path d="M9.21003 12.0327H6.38463C6.21743 12.0327 6.08203 12.1681 6.08203 12.3353V16.7221C6.08203 16.8893 6.21743 17.0247 6.38463 17.0247H9.21003C9.37723 17.0247 9.51243 16.8893 9.51243 16.7221V12.3351C9.51243 12.1679 9.37703 12.0327 9.21003 12.0327Z" fill="black"/>
<path d="M13.6153 2.97559H10.7899C10.6227 2.97559 10.4873 3.11099 10.4873 3.27819V16.7218C10.4873 16.889 10.6227 17.0244 10.7899 17.0244H13.6153C13.7825 17.0244 13.9179 16.889 13.9179 16.7218V3.27819C13.9179 3.11099 13.7825 2.97559 13.6153 2.97559Z" fill="black"/>
<path d="M18.043 7.05981H15.2176C15.0504 7.05981 14.915 7.19521 14.915 7.36241V16.7218C14.915 16.889 15.0504 17.0244 15.2176 17.0244H18.0428C18.21 17.0244 18.3454 16.889 18.3454 16.7218V7.36241C18.3454 7.19541 18.21 7.05981 18.043 7.05981Z" fill="black"/>
<path d="M4.7823 7.05981H1.9569C1.7897 7.05981 1.6543 7.19521 1.6543 7.36241V16.7218C1.6543 16.889 1.7897 17.0244 1.9569 17.0244H4.7823C4.9495 17.0244 5.0849 16.889 5.0849 16.7218V7.36241C5.0849 7.19541 4.9495 7.05981 4.7823 7.05981Z" fill="black"/>
</svg>
