<svg width="18" height="18" viewBox="0 0 18 18" fill="none" xmlns="http://www.w3.org/2000/svg">
<path fill-rule="evenodd" clip-rule="evenodd" d="M9 0.519531C7.51527 0.524187 6.08117 1.05968 4.95675 2.02928C4.095 2.77178 3.47062 3.73928 3.30975 4.71016C1.42425 5.12641 0 6.76891 0 8.75228C0 11.0563 1.9215 12.8945 4.25362 12.8945H8.4375V6.93991L6.02325 9.35528C5.91763 9.4609 5.77437 9.52024 5.625 9.52024C5.47563 9.52024 5.33237 9.4609 5.22675 9.35528C5.12113 9.24966 5.06179 9.1064 5.06179 8.95703C5.06179 8.80766 5.12113 8.6644 5.22675 8.55878L8.60175 5.18378C8.654 5.1314 8.71607 5.08984 8.78441 5.06148C8.85275 5.03312 8.92601 5.01853 9 5.01853C9.07399 5.01853 9.14725 5.03312 9.21559 5.06148C9.28393 5.08984 9.346 5.1314 9.39825 5.18378L12.7733 8.55878C12.8789 8.6644 12.9382 8.80766 12.9382 8.95703C12.9382 9.1064 12.8789 9.24966 12.7733 9.35528C12.6676 9.4609 12.5244 9.52024 12.375 9.52024C12.2256 9.52024 12.0824 9.4609 11.9767 9.35528L9.5625 6.93991V12.8945H14.274C16.3147 12.8945 18 11.2858 18 9.26416C18 7.42366 16.6028 5.92403 14.8118 5.67091C14.5384 2.76841 12.0262 0.519531 9 0.519531ZM8.4375 16.832V12.8945H9.5625V16.832C9.5625 16.9812 9.50324 17.1243 9.39775 17.2298C9.29226 17.3353 9.14918 17.3945 9 17.3945C8.85082 17.3945 8.70774 17.3353 8.60225 17.2298C8.49676 17.1243 8.4375 16.9812 8.4375 16.832Z" fill="#F1BE07"/>
</svg>
