<svg width="20" height="20" viewBox="0 0 20 20" fill="none" xmlns="http://www.w3.org/2000/svg">
<path d="M6.66643 8.96677H6.18309C5.52351 8.94293 4.86607 9.0549 4.25157 9.29573C3.63707 9.53656 3.07862 9.90112 2.61087 10.3668L2.47754 10.5223V15.1223H4.74421V12.5112L5.04976 12.1668L5.18865 12.0057C5.91194 11.2626 6.81242 10.7158 7.80532 10.4168C7.3082 10.0385 6.91614 9.53934 6.66643 8.96677Z" fill="black"/>
<path d="M17.411 10.3499C16.9432 9.88427 16.3848 9.51972 15.7703 9.27888C15.1558 9.03805 14.4983 8.92608 13.8387 8.94992C13.6364 8.95049 13.4343 8.96162 13.2332 8.98325C12.9788 9.52042 12.5974 9.98758 12.1221 10.3444C13.1821 10.6376 14.1423 11.2137 14.8998 12.011L15.0387 12.1666L15.3387 12.511V15.1277H17.5276V10.5055L17.411 10.3499Z" fill="black"/>
<path d="M6.16692 7.88331H6.33914C6.25912 7.19622 6.37968 6.50066 6.68627 5.88058C6.99286 5.2605 7.47237 4.74242 8.06692 4.38886C7.8514 4.05961 7.55407 3.79198 7.20404 3.61217C6.854 3.43235 6.46327 3.34653 6.07011 3.3631C5.67694 3.37967 5.29482 3.49806 4.96115 3.70668C4.62749 3.91531 4.35373 4.20701 4.16667 4.55322C3.97962 4.89944 3.88569 5.2883 3.89407 5.68172C3.90246 6.07515 4.01287 6.45965 4.21451 6.79759C4.41614 7.13552 4.70209 7.41529 5.04434 7.60951C5.38658 7.80372 5.77341 7.90573 6.16692 7.90553V7.88331Z" fill="black"/>
<path d="M13.5722 7.46678C13.5789 7.59447 13.5789 7.72242 13.5722 7.85011C13.6788 7.86701 13.7865 7.8763 13.8944 7.87789H14C14.3917 7.857 14.7714 7.73502 15.1021 7.52382C15.4327 7.31263 15.7031 7.01942 15.8868 6.67273C16.0705 6.32605 16.1613 5.93771 16.1503 5.54552C16.1394 5.15333 16.0271 4.77066 15.8243 4.43476C15.6216 4.09885 15.3353 3.82117 14.9934 3.62874C14.6515 3.43631 14.2656 3.33569 13.8733 3.33668C13.4809 3.33766 13.0955 3.44022 12.7546 3.63437C12.4136 3.82852 12.1288 4.10764 11.9277 4.44456C12.4306 4.77286 12.844 5.22084 13.131 5.74832C13.418 6.2758 13.5696 6.86628 13.5722 7.46678Z" fill="black"/>
<path d="M9.92767 9.95544C11.2992 9.95544 12.411 8.84361 12.411 7.4721C12.411 6.1006 11.2992 4.98877 9.92767 4.98877C8.55616 4.98877 7.44434 6.1006 7.44434 7.4721C7.44434 8.84361 8.55616 9.95544 9.92767 9.95544Z" fill="black"/>
<path d="M10.0615 11.2777C9.33601 11.2484 8.61206 11.3662 7.93323 11.624C7.25441 11.8817 6.63475 12.2742 6.11155 12.7777L5.97266 12.9332V16.4499C5.97482 16.5645 5.99954 16.6775 6.04539 16.7824C6.09123 16.8874 6.15732 16.9824 6.23986 17.0618C6.32241 17.1413 6.4198 17.2037 6.52647 17.2455C6.63314 17.2873 6.747 17.3077 6.86155 17.3055H13.2449C13.3594 17.3077 13.4733 17.2873 13.58 17.2455C13.6866 17.2037 13.784 17.1413 13.8666 17.0618C13.9491 16.9824 14.0152 16.8874 14.061 16.7824C14.1069 16.6775 14.1316 16.5645 14.1338 16.4499V12.9444L14.0004 12.7777C13.4806 12.2726 12.8631 11.8791 12.1858 11.6212C11.5085 11.3632 10.7856 11.2463 10.0615 11.2777Z" fill="black"/>
</svg>
