<?xml version="1.0" encoding="UTF-8"?>
<!DOCTYPE svg PUBLIC "-//W3C//DTD SVG 1.1//EN" "http://www.w3.org/Graphics/SVG/1.1/DTD/svg11.dtd">
<!-- Creator: CorelDRAW 2020 (64-Bit) -->
<svg xmlns="http://www.w3.org/2000/svg" xml:space="preserve" width="5.18146in" height="4.34043in" version="1.1" style="shape-rendering:geometricPrecision; text-rendering:geometricPrecision; image-rendering:optimizeQuality; fill-rule:evenodd; clip-rule:evenodd"
viewBox="0 0 395.19 331.04"
 xmlns:xlink="http://www.w3.org/1999/xlink"
 xmlns:xodm="http://www.corel.com/coreldraw/odm/2003">
 <defs>
  <style type="text/css">
   <![CDATA[
    .str0 {stroke:white;stroke-width:2.12;stroke-miterlimit:2.61313}
    .fil1 {fill:none}
    .fil0 {fill:white}
   ]]>
  </style>
   <clipPath id="id0">
    <path d="M127.91 100.91c37.34,-16.68 129.5,-27.01 136.65,-27.01 7.15,0 58.79,24.63 58,33.37 -0.79,8.74 -38.13,70.71 -39.72,80.24 -1.59,9.53 -35.75,61.17 -35.75,61.17l-76.27 14.3c0,0 -73.89,-50.05 -69.91,-69.91 3.97,-19.86 27.01,-92.16 27.01,-92.16z"/>
   </clipPath>
    <clipPath id="id1">
     <rect x="123.26" y="9.05" width="51.72" height="51.72"/>
    </clipPath>
    <clipPath id="id2">
     <rect x="180.28" y="283.84" width="40.37" height="40.37"/>
    </clipPath>
   <clipPath id="id3">
    <rect x="8.91" y="249.78" width="57.12" height="57.12"/>
   </clipPath>
    <clipPath id="id4">
     <rect x="11.16" y="134.87" width="31.49" height="31.49"/>
    </clipPath>
    <clipPath id="id5">
     <rect x="335.69" y="16.61" width="26.48" height="26.48"/>
    </clipPath>
   <clipPath id="id6">
    <path d="M339.59 196.85c14.92,0 27.01,12.09 27.01,27.01 0,14.92 -12.09,27.01 -27.01,27.01 -14.92,0 -27.01,-12.09 -27.01,-27.01 0,-14.92 12.09,-27.01 27.01,-27.01z"/>
   </clipPath>
    <clipPath id="id7">
     <path d="M356.15 202.52c1.79,1.39 3.39,3 4.78,4.78l0 33.12c-1.39,1.79 -3,3.39 -4.78,4.78l-33.12 0c-1.79,-1.39 -3.39,-3 -4.78,-4.78l0 -33.12c1.39,-1.79 3,-3.39 4.78,-4.78l33.12 0z"/>
    </clipPath>
    <clipPath id="id8">
     <path d="M339.59 196.85c14.92,0 27.01,12.09 27.01,27.01 0,14.92 -12.09,27.01 -27.01,27.01 -14.92,0 -27.01,-12.09 -27.01,-27.01 0,-14.92 12.09,-27.01 27.01,-27.01z"/>
    </clipPath>
 </defs>
 <g id="Layer_x0020_1">
  <metadata id="CorelCorpID_0Corel-Layer"/>
  <g style="clip-path:url(#id0)">
   <image x="-118.55" y="-83.07" width="620.75" height="451.26" xlink:href="Untitled-1_Images\Untitled-1_ImgID1.png"/>
  </g>
  <g id="_1469561239008">
   <circle class="fil0" cx="149.12" cy="34.91" r="25.62"/>
   <g style="clip-path:url(#id1)">
    <image x="123.26" y="9.05" width="51.72" height="51.72" xlink:href="Untitled-1_Images\Untitled-1_ImgID2.png"/>
   </g>
  </g>
  <g id="_1469561239152">
   <path class="fil1 str0" d="M174.98 14.7c0,0 69.17,-31.94 160.71,1.91l26.48 26.48c0,0 72.29,58.85 -1.24,159.42l-32.22 42.68c0,0 -54.04,50.23 -108.06,58.83l-40.37 0c0,0 -105.01,-23.18 -159.03,-126.46"/>
   <path class="fil1 str0" d="M33.96 124.34c0,0 27.74,-55.65 81.04,-81.04"/>
   <path class="fil1 str0" d="M230.2 309.45c0,0 199.73,15 158.26,-159.34"/>
   <path class="fil1 str0" d="M11.16 134.87c0,0 -21.09,-140.77 183.98,-126.89 85.64,5.8 148.96,66.68 193.66,135.62"/>
   <path class="fil1 str0" d="M16.49 166.35c0,0 -18.27,39.2 11.12,89.87 29.4,50.67 101.82,73.37 172.86,47.81"/>
  </g>
  <g id="_1469561242032">
   <circle class="fil0" cx="200.47" cy="304.03" r="27.01"/>
   <g style="clip-path:url(#id2)">
    <image x="180.28" y="283.84" width="40.37" height="40.37" xlink:href="Untitled-1_Images\Untitled-1_ImgID3.png"/>
   </g>
  </g>
  <g style="clip-path:url(#id3)">
   <image x="8.91" y="249.78" width="57.12" height="57.12" xlink:href="Untitled-1_Images\Untitled-1_ImgID4.png"/>
  </g>
  <g id="_1469561239200">
   <circle class="fil0" cx="27.01" cy="149.77" r="27.01"/>
   <g style="clip-path:url(#id4)">
    <image x="11.16" y="134.87" width="31.49" height="31.49" xlink:href="Untitled-1_Images\Untitled-1_ImgID5.png"/>
   </g>
  </g>
  <g id="_1469561242080">
   <circle class="fil0" cx="348.93" cy="29.85" r="23.09"/>
   <g style="clip-path:url(#id5)">
    <image x="335.69" y="16.61" width="26.48" height="26.48" xlink:href="Untitled-1_Images\Untitled-1_ImgID6.png"/>
   </g>
  </g>
  <path class="fil0" d="M339.59 196.85c14.92,0 27.01,12.09 27.01,27.01 0,14.92 -12.09,27.01 -27.01,27.01 -14.92,0 -27.01,-12.09 -27.01,-27.01 0,-14.92 12.09,-27.01 27.01,-27.01z"/>
  <g style="clip-path:url(#id6)">
   <g id="_1469561240160">
   </g>
   <g style="clip-path:url(#id7)">
    <image x="318.25" y="202.52" width="42.68" height="42.68" xlink:href="Untitled-1_Images\Untitled-1_ImgID7.png"/>
   </g>
   <g style="clip-path:url(#id8)">
   </g>
  </g>
  <path class="fil1" d="M339.59 196.85c14.92,0 27.01,12.09 27.01,27.01 0,14.92 -12.09,27.01 -27.01,27.01 -14.92,0 -27.01,-12.09 -27.01,-27.01 0,-14.92 12.09,-27.01 27.01,-27.01z"/>
 </g>
</svg>
